<?xml version="1.0" encoding="utf-8"?>
<!-- Generator: Adobe Illustrator 24.0.1, SVG Export Plug-In . SVG Version: 6.00 Build 0)  -->
<svg version="1.1" id="Layer_1" xmlns="http://www.w3.org/2000/svg" xmlns:xlink="http://www.w3.org/1999/xlink" x="0px" y="0px"
	 viewBox="0 0 1080 1080" style="enable-background:new 0 0 1080 1080;" xml:space="preserve">
<style type="text/css">
	.st0{fill:#E73D66;}
	.st1{fill:none;}
</style>
<path class="st0" d="M327.78,881.34c-0.95,3.15-0.32,6.27,0.26,9.38c0.44,2.39,0.94,4.77,1.45,7.15c0.06,0.28,0.31,0.51,0.53,0.86
	c2.95-5.17,2.14-16.09-1.46-19.38C328.28,880.05,327.98,880.68,327.78,881.34z"/>
<g>
	<path class="st1" d="M428.14,564.61c1.37,0.31,2.87-0.16,3.16-1.87c-1.27-0.27-2.92,0.08-3.51,1.43c0.14,0.02,0.26,0.06,0.41,0.06
		C428.18,564.35,428.17,564.48,428.14,564.61z"/>
	<path class="st1" d="M415.41,570.31c3.05,0.74,6.15,1.25,9.26,1.71c1.74,0.26,2.47-0.87,2.7-2.44c0.24-1.66,0.51-3.32,0.78-4.97
		c-0.16-0.04-0.33-0.08-0.48-0.14c0.03-0.11,0.08-0.21,0.13-0.31c-1.09-0.14-1.84-0.81-2.63-1.66c-1.68-1.78-2.66-1.85-4.62-0.48
		c-2.55,1.79-4.98,3.74-7.92,5.97C413.82,569.03,414.51,570.09,415.41,570.31z"/>
	<path class="st1" d="M424.54,575.22c-0.04,0.34-0.09,0.68-0.13,1.03c0.55,0.46,1.06,0.98,1.66,1.37c0.89,0.58,2.01,0.96,2.6-0.2
		c0.67-1.34-0.46-2.15-1.52-2.45C426.37,574.74,425.41,575.12,424.54,575.22z"/>
	<path class="st1" d="M417.2,623.14c0.37-0.06,0.74-0.17,1.11-0.26c3.57-0.94,4.53-2.15,3.82-5.7c-0.66-3.36-0.26-6.25,2.22-8.77
		c0.59-0.6,0.88-1.51,1.27-2.29c1.05-2.07,2.04-2.44,3.78-1.01c0.89,0.74,1.73,1.96,1.9,3.07c0.5,3.37,0.84,6.79,0.88,10.2
		c0.02,1.82-0.64,3.66-1.09,5.47c-0.43,1.71-1.08,3.37-1.49,5.09c-0.41,1.7,0.32,2.97,1.88,3.73c1.67,0.81,2.78-0.32,3.52-1.43
		c2-3,3.14-6.31,2.76-10c-0.04-0.37-0.12-0.81-0.34-1.07c-2.7-3.02-2.65-6.76-2.6-10.42c0.05-3.56-1.82-5.93-4.36-7.97
		c-0.77-0.62-1.71-1.04-2.75-1.65c1.13-3.7,2.23-7.31,3.32-10.93c0.25-0.84,0.76-1.79,0.57-2.54c-0.28-1.12-0.83-2.54-1.72-3.07
		c-1.38-0.82-2.28,0.56-2.91,1.66c-0.75,1.32-1.34,2.73-2.02,4.09c-1.6,3.18-1.65,3.12-5.26,2.59c-1.23-0.18-2.55,0.21-3.83,0.34
		c-0.02,0.29-0.05,0.58-0.07,0.87c1.8,0.74,3.59,1.48,5.78,2.38c-0.49,1.66-0.83,3.22-1.42,4.69c-2.38,6-4.92,11.94-7.23,17.97
		C411.35,622.28,412.8,623.85,417.2,623.14z"/>
	<path class="st1" d="M444.93,555.08c-1.3,0.28-2.69,0.37-3.87,0.91c-1.62,0.75-3.47,1.52-3.43,3.83
		C440.83,559.4,443.97,558.91,444.93,555.08z"/>
	<path class="st1" d="M431.34,733.35c-1.18-3.62-3.56-5.73-7.45-5.96C425.27,731.31,427.45,733.05,431.34,733.35z"/>
	<path class="st1" d="M437.55,559.87c-1.47-0.61-2.59-0.39-3.1,1.31C435.86,561.68,436.93,561.33,437.55,559.87z"/>
	<path class="st1" d="M434.34,561.22c-1.37-0.28-2.57-0.22-2.95,1.48C432.83,563.09,434.06,563.11,434.34,561.22z"/>
	<path class="st1" d="M447.77,769.64c0.11-0.19,0.22-0.38,0.33-0.58c-0.43-0.14-0.85-0.28-1.28-0.43
		C447.14,768.97,447.45,769.3,447.77,769.64z"/>
	<path class="st1" d="M448.05,553.6c-1.39-0.38-2.4,0.09-3.01,1.41C446.51,555.54,447.68,555.43,448.05,553.6z"/>
	<path class="st1" d="M445.16,767.01c-0.2,1.15,0.33,1.6,1.44,1.47C446.83,767.31,446.28,766.88,445.16,767.01z"/>
	<path class="st1" d="M457.75,754.86c-0.32-0.34-1.18-0.15-1.79-0.21c0.04-1.09-0.45-1.62-1.57-1.49c0.06-1.12-0.43-1.66-1.59-1.49
		c-0.09-0.47-0.06-1.01-0.29-1.4c-2.42-4.11-6.4-6.53-10.14-9.2c-0.37-0.26-1.09-0.03-1.69,0.01c0.33,0.75,0.57,1.56,1.02,2.22
		c2.72,4.03,6.76,6.39,11,8.46c-0.12,1.1,0.4,1.6,1.48,1.58c-0.31,1.29,0.2,1.8,1.48,1.58c0.71,1.54,1.81,3.03,2.03,4.64
		c0.38,2.78,2.34,4.1,4.26,5.45c0.64,0.45,1.82,0.14,2.75,0.18c-0.05-0.93,0.25-2.14-0.23-2.74
		C462.37,759.82,460.07,757.32,457.75,754.86z"/>
	<path class="st1" d="M439.81,758.61c-9.98-6.59-19.31-13.97-27.46-22.77c-1.38-1.49-2.88-2.86-4.3-4.31
		c-1.15-1.17-2.42-1.77-4.04-1.12c-0.21,2.1,1.45,3.1,2.69,4.25c6.74,6.28,13.54,12.51,20.33,18.75c0.56,0.51,1.18,0.96,1.75,1.47
		c3.81,3.34,7.61,6.68,11.42,10.02c1.41,1.23,2.75,2.62,4.89,2.06C443.9,763.81,442.83,760.61,439.81,758.61z"/>
	<path class="st1" d="M410.15,716.76c1.18,3.41,2.34,4.28,5.94,4.45C414.91,717.82,413.71,716.92,410.15,716.76z"/>
	<path class="st1" d="M405.42,624.56c0.27,0.7,1.45,1.04,2.21,1.54c0.38-0.73,1.17-1.52,1.07-2.18c-0.34-2.3-0.71-4.66-2.73-6.97
		C404.29,619.72,404.49,622.19,405.42,624.56z"/>
	<path class="st1" d="M416.23,721.31c1.13,3.72,3.53,5.84,7.5,5.97C422.52,723.65,420.13,721.53,416.23,721.31z"/>
	<path class="st1" d="M412.64,650.55c2.24,1.44,3.5,0.9,3.79-1.84c0.28-2.63,0.34-5.28,0.4-7.93c0.02-0.86-0.01-1.93-0.48-2.56
		c-1.54-2.08-2.54-4.19-2.27-6.89c0.06-0.56-0.99-1.7-1.59-1.74c-0.84-0.06-1.99,0.45-2.52,1.11c-0.57,0.71-0.74,1.86-0.8,2.83
		c-0.12,1.76-0.03,3.53-0.03,4.95c0.2,2.74,0.41,5.12,0.54,7.51C409.79,648.1,410.98,649.47,412.64,650.55z"/>
	<path class="st1" d="M517.71,425.76c0.43-0.9,1.23-1.84,1.28-2.82c0.18-4.16,0.23-8.34,0.11-12.5c-0.04-1.23-0.78-2.44-1.21-3.66
		c-0.43,0.05-0.87,0.09-1.3,0.14c-0.23,1.97-0.58,3.94-0.67,5.92c-0.15,3.39-0.13,6.79-0.17,10.19
		C515.75,424.17,515.76,425.33,517.71,425.76z"/>
	<path class="st1" d="M427.79,606.31c-1.79,2.62-1.53,3.72,1.63,6.11C431.01,608.7,430.77,607.91,427.79,606.31z"/>
	<path class="st1" d="M284.41,327.28c2.05-2.49,2.04-2.87-0.07-5.43C282.28,324.35,282.29,324.76,284.41,327.28z"/>
	<path class="st1" d="M332.81,323.37c0.93-8.97-0.4-17.67-1.57-26.44c-0.1-0.75-0.2-1.54-0.53-2.2c-0.25-0.48-0.86-1.06-1.33-1.08
		c-0.48-0.02-1.29,0.5-1.42,0.94c-0.46,1.56-0.88,3.18-0.99,4.8c-0.46,6.69-0.96,13.39-1.13,20.1c-0.09,3.37,0.5,6.77,0.8,10.15
		c0.21,2.39,0.63,4.78,0.65,7.17c0.09,8.09,0.03,16.18,0.06,24.26c0,1.01,0.04,2.05,0.32,3c0.11,0.38,0.9,0.56,1.97,1.17
		c0-2.03-0.06-3.51,0.01-4.99c0.25-5.68-0.15-11.51,0.99-17.01C332.02,336.64,332.12,330.01,332.81,323.37z"/>
	<path class="st1" d="M332.06,415.05c1.7-1.75,1.48-3.47-0.11-5.52C329.71,412.22,329.76,413.13,332.06,415.05z"/>
	<path class="st1" d="M390.3,701.49c-0.02,0.05-0.05,0.1-0.07,0.15c0.04,0.93,0.59,1.34,1.52,1.39c0-0.03,0-0.06,0-0.09
		C391.27,702.45,390.78,701.97,390.3,701.49z"/>
	<path class="st1" d="M351.95,277c0.08,0.67,0.89,1.72,1.41,1.75c0.65,0.03,1.68-0.67,1.94-1.31c1.07-2.55,1.04-5.06-1.24-7.69
		C351.54,271.99,351.65,274.52,351.95,277z"/>
	<path class="st1" d="M280.6,290.52c-0.65,0.19-1.36,1.44-1.39,2.23c-0.04,1.08,0.51,2.21,2.58,2.18c0.2-0.67,0.63-1.5,0.63-2.33
		C282.43,291.48,282.14,290.07,280.6,290.52z"/>
	<path class="st1" d="M431.54,733.51c1.72,4,4.63,6.58,8.96,7.47C438.72,737.04,435.87,734.38,431.54,733.51z"/>
	<path class="st1" d="M252.03,691.35c-0.13-1.25-0.14-2.53-0.4-3.76c-0.12-0.55-0.71-1-1.43-1.95c-2.08,11.01,0.4,21.13,1.26,31.34
		c0.29,0.04,0.58,0.08,0.86,0.12c0.27-0.8,0.73-1.6,0.79-2.42c0.21-3.14,0.55-6.31,0.36-9.44
		C253.2,700.6,252.53,695.98,252.03,691.35z"/>
	<path class="st1" d="M280.11,298.62c-1.49,0.23-1.58,1.52-1.56,2.64c0.02,1.39,0.19,3.07,1.87,3.29c1.69,0.22,1.88-1.28,1.94-2.36
		C282.4,299.99,281.39,298.42,280.11,298.62z"/>
	<path class="st1" d="M251.29,679.39c0.66-0.02,1.66-0.82,1.86-1.48c0.36-1.17,0.33-2.49,0.29-3.74
		c-0.5-13.65-1.06-27.31-1.53-40.96c-0.12-3.41,0.04-6.84-0.01-10.25c-0.02-1.45,0.15-3.04-1.85-4.49c-0.15,1.31-0.29,2.04-0.3,2.78
		c-0.14,17.97-0.27,35.95-0.38,53.92c-0.01,0.88-0.05,1.84,0.27,2.62C249.94,678.47,250.74,679.41,251.29,679.39z"/>
	<path class="st1" d="M433.39,572.75c0.44,0.19,1.03,0.64,1.26,0.5c2.33-1.36,4.6-2.82,7.42-4.59
		C438.67,566.86,435.74,568.52,433.39,572.75z"/>
	<path class="st1" d="M440.15,597.9c-1.42-4.41-4.29-6.39-6.78-4.77C434.94,595.46,436.54,597.65,440.15,597.9z"/>
	<path class="st1" d="M441.58,613.24c0.79-2.84,1.31-5.69,0.25-8.5c-0.12-0.31-0.78-0.41-1.71-0.85
		C440.19,607.37,439.71,610.41,441.58,613.24z"/>
	<path class="st1" d="M444.32,713.79c0.84-1.91,1.59-3.05,1.84-4.29c0.85-4.21,1.16-8.55,2.34-12.66
		c2.29-8.01,0.67-15.46-2.43-22.81c-0.42-0.99-0.89-1.95-1.47-3.21c-2.15,1.62-2.38,3.64-2.65,5.58
		c-0.76,5.38-1.42,10.77-2.17,16.15c-0.33,2.34-0.24,4.55,1.32,6.48c0.92,1.13,0.87,2.16,0.18,3.46c-0.55,1.03-1.09,2.52-0.74,3.49
		C441.38,708.41,442.75,710.65,444.32,713.79z"/>
	<path class="st1" d="M428.53,842.08c-0.96-0.42-2.08-0.47-3.6-0.79c0,1.55-0.27,2.72,0.08,3.66c0.33,0.9,1.19,2.05,2.01,2.24
		c1.64,0.38,2.36-1.06,2.85-2.4C430.37,843.47,429.62,842.55,428.53,842.08z"/>
	<path class="st1" d="M434.47,355.52c0.59-0.53,1.18-1.05,2.15-1.92c-1.16-0.9-1.96-1.53-2.76-2.15c-0.4,0.68-1.23,1.47-1.09,2.02
		C432.96,354.25,433.87,354.85,434.47,355.52z"/>
	<path class="st1" d="M450.05,553.23c-0.14-0.29-0.27-0.59-0.41-0.88c-0.41,0.2-0.85,0.36-1.22,0.62c-0.16,0.11-0.19,0.39-0.27,0.61
		c0.21,0.07,0.44,0.19,0.63,0.14C449.22,553.61,449.63,553.4,450.05,553.23z"/>
	<path class="st1" d="M446.51,663.91c1.49-0.23,2.18-1.4,1.78-2.82c-0.5-1.77-1.09-3.59-3.27-4.98c-0.18,2.13-0.43,3.86-0.42,5.58
		C444.6,662.83,444.94,664.16,446.51,663.91z"/>
	<path class="st1" d="M613.02,495.39c-2.61,0.01-4.01,1.27-4.08,3.11c-0.08,2.29-0.03,4.81,1.86,6.63c0.27,0.26,1.01,0.33,1.34,0.14
		c0.33-0.19,0.71-0.94,0.58-1.21c-1.04-2.17-0.29-4.15,0.4-6.2C613.33,497.24,613.08,496.45,613.02,495.39z"/>
	<path class="st1" d="M615.64,509.81c-0.86-0.46-1.92-0.54-2.89-0.78c-2.88-0.7-5.66-1.67-7.39-4.27c-2.07-3.12-4.92-3.64-8.7-2.86
		c0.67,2.26,2.35,2.69,3.79,3.35c2.35,1.08,3.87,2.73,4.32,5.36c0.18,1.05,0.69,2.04,1.29,3.71c2.06-2.55,4.11-2.83,6.47-1.69
		c0.73,0.35,1.78,0.3,2.61,0.11c0.61-0.14,1.5-0.74,1.56-1.23C616.78,510.99,616.18,510.1,615.64,509.81z"/>
	<path class="st1" d="M679.61,859.35c-0.29-0.12-1.28,0.53-1.33,0.91c-0.29,2.12-0.96,4.36,0.79,6.28c2.4-1.95,3.29-3.9,2.43-5.67
		C681.17,860.21,680.34,859.66,679.61,859.35z"/>
	<path class="st1" d="M637.4,399.88c-0.14-1.75-0.68-3.47-0.84-5.23c-0.85-9.46-1.62-18.92-2.47-28.38
		c-0.12-1.38-0.46-2.76-0.86-4.08c-0.34-1.12-1.07-2.31-2.42-1.77c-0.71,0.28-1.37,1.42-1.5,2.25c-0.21,1.35-0.02,2.78,0.1,4.17
		c1.22,13.24,2.48,26.48,3.68,39.72c0.38,4.16,0.56,8.33,0.94,12.48c0.35,3.77,1.08,7.51,1.25,11.29
		c0.63,13.67,1.01,27.34,1.67,41.01c0.16,3.33,0.65,6.73,2.46,9.68c0.28-0.02,0.56-0.05,0.84-0.07c0.06-1.24,0.19-2.48,0.15-3.72
		c-0.24-7.2-0.55-14.4-0.8-21.59c-0.53-14.93-1.03-29.86-1.57-44.78C637.89,407.19,637.69,403.53,637.4,399.88z"/>
	<path class="st1" d="M591.66,489.02c-1.03-0.36-2.28,1.09-2.08,2.53c0.1,0.71,0.83,1.33,1.27,1.99c0.85-0.74,1.71-1.48,2.85-2.47
		C592.79,490.11,592.33,489.25,591.66,489.02z"/>
	<path class="st1" d="M608.56,487.71c-1.05-3.51-2.03-7.06-3.27-10.51c-0.76-2.14-1.86-4.16-2.95-6.16
		c-0.42-0.78-1.21-1.36-1.84-2.02c-0.28,0.1-0.57,0.2-0.85,0.31c0,0.9-0.19,1.85,0.05,2.68c0.35,1.2,1.06,2.29,1.53,3.47
		c2.23,5.59,5.04,11.11,2.34,17.37c-0.04,0.09,0.06,0.24,0.15,0.54c0.64,0.11,1.37,0.34,2.1,0.34c2.69-0.01,3.43-0.78,3.26-3.41
		C609.01,489.44,608.81,488.55,608.56,487.71z"/>
	<path class="st1" d="M613.98,525.5c-0.68,0.04-1.28,1.4-2.18,2.49c0.96,1.02,1.56,2.22,2.35,2.36c1.36,0.25,1.89-0.99,1.9-2.24
		C616.05,526.72,615.43,525.42,613.98,525.5z"/>
	<path class="st1" d="M621.83,505.62c-0.78,1.57-1.41,2.43-1.58,3.38c-0.07,0.39,0.83,1.33,1.34,1.37c1.35,0.1,2.14-0.87,1.99-2.16
		C623.49,507.53,622.75,506.93,621.83,505.62z"/>
	<path class="st1" d="M618.9,538.38c2.02,0.6,3.2-0.22,3.88-2.19C620.06,535.52,620.04,535.52,618.9,538.38z"/>
	<path class="st1" d="M591.49,504.34c-0.49,0.05-1.19,0.36-1.35,0.74c-0.13,0.32,0.38,0.92,0.61,1.39c0.28,0.16,0.57,0.33,0.85,0.49
		c0.23-0.54,0.61-1.06,0.64-1.61C592.26,505.01,591.73,504.32,591.49,504.34z"/>
	<path class="st1" d="M625.79,321.3c-0.32-0.94-1.36-2.26-2.1-2.28c-1.06-0.03-2.38,0.77-3.15,1.62c-0.69,0.75-0.8,2.05-1.32,3.55
		c0.88,2.62,1.63,5.57,2.86,8.3c1.07,2.38,2.97,2.49,4.85,0.67c1.1-1.06,1.47-2.34,1.09-3.81
		C627.3,326.65,626.69,323.93,625.79,321.3z"/>
	<path class="st1" d="M806.11,528.56c-1.36-0.12-1.69,0.85-1.77,1.93c-0.14,1.74,0.69,2.77,2.92,2.89c0.39-0.37,1.41-0.95,1.74-1.79
		C809.39,530.61,807.4,528.67,806.11,528.56z"/>
	<path class="st1" d="M600.72,486.18c0.3,0.14,0.59,0.3,0.89,0.36c0.07,0.01,0.34-0.48,0.3-0.51c-0.23-0.22-0.52-0.38-0.79-0.55
		C601,485.68,600.89,485.87,600.72,486.18z"/>
	<path class="st1" d="M621.95,476.93c0.32-2.3,0.6-3.61,0.68-4.93c0.37-6.36-0.69-12.63-1.22-18.94
		c-0.68-8.07-0.84-16.17-1.72-24.25c-1.14-10.46-1.43-21.01-2.15-31.51c-0.44-6.45-0.71-12.93-1.57-19.33
		c-0.93-6.94-1.61-13.82-1.15-20.84c0.16-2.45-0.3-5.06-3.71-7.2c-0.15,3.72-0.35,6.71-0.37,9.7c-0.02,3.42,0.21,6.85,0.18,10.27
		c-0.03,3.39-1.18,4.48-4.67,4.47c-2.02,0-4.06-0.13-6.04-0.49c-2.18-0.4-4.01,0.28-5.77,1.32c-0.47,0.28-1.05,1.05-0.95,1.45
		c0.15,0.63,0.71,1.38,1.29,1.64c0.77,0.35,1.73,0.31,2.61,0.37c1.52,0.1,3.06,0.01,4.55,0.25c4.18,0.67,5.17,1.86,6.06,6.11
		c0.49,2.33,1.11,4.71,2.17,6.82c1.46,2.91,2.21,5.88,2.37,9.11c0.23,4.56,0.57,9.12,1.04,13.66c0.86,8.32,1.91,16.63,2.73,24.96
		c0.43,4.41,0.48,8.86,0.82,13.28c0.48,6.19,1.06,12.38,1.63,18.56c0.09,1,0.22,2.07,0.66,2.95
		C619.78,475.1,620.63,475.62,621.95,476.93z"/>
	<path class="st1" d="M606.22,499.92c-0.27,0.02-0.53,0.42-0.79,0.65c0.3,0.29,0.59,0.58,0.89,0.87c0.23-0.25,0.46-0.49,0.76-0.83
		C606.73,500.31,606.46,499.91,606.22,499.92z"/>
	<path class="st1" d="M596.16,518.82c-0.6-0.03-1.37,0.85-1.82,1.51c-0.32,0.47-0.24,1.21-0.34,1.83c0.14,1.37-0.1,2.95,1.68,3.42
		c1.2,0.32,2.31-1.2,2.41-3.24c0.03-0.62,0.03-1.34-0.26-1.84C597.42,519.81,596.76,518.85,596.16,518.82z"/>
	<path class="st1" d="M680.2,318.91c-1.35-0.13-2.05,0.75-2.35,1.99c-0.09,0.37-0.26,0.74-0.25,1.11c0.18,4.9,0.36,9.81,0.6,14.71
		c0.02,0.46,0.4,0.9,0.85,1.86c0.77-1.5,1.27-2.1,1.39-2.76c0.65-3.6,1.25-7.21,1.77-10.82c0.18-1.24,0.11-2.52,0.07-3.78
		C682.24,319.89,681.48,319.04,680.2,318.91z"/>
	<path class="st1" d="M725.68,289.46c0.03-0.39-0.35-0.81-0.56-1.21c-0.42,0.32-0.97,0.56-1.21,0.98c-0.11,0.2,0.35,0.73,0.73,1.43
		C725.16,290.1,725.65,289.8,725.68,289.46z"/>
	<path class="st1" d="M706.26,748.24c-1.05,2.27-1.3,4.28,0.55,6.57C708.63,751.5,708.57,750.88,706.26,748.24z"/>
	<path class="st1" d="M687.93,883.41c-0.93,1.72-1.49,3.19,0.25,4.47c0.24,0.18,1.13-0.04,1.27-0.3
		C690.31,885.95,690.43,884.43,687.93,883.41z"/>
	<path class="st1" d="M729.09,848.78c-3.53-2.05-6.99-4.15-9.3-7.68c-0.83-1.27-1.97-1.44-3.32-0.81c-0.56,0.26-1.2,0.34-2.11,0.59
		c0.31-0.78,0.36-1.2,0.59-1.46c2.71-3.1,2.49-6.34,0.81-9.88c-1.89-4.01-3.6-8.12-5.14-12.28c-0.68-1.85-0.87-3.91-1.05-5.9
		c-0.26-2.89-0.22-5.81-0.46-8.71c-0.66-7.82-2.04-15.58-1.26-23.5c0.3-2.98-0.24-6.06-0.5-9.08c-0.05-0.62-0.6-1.2-1.17-2.27
		c-0.37,0.98-0.61,1.4-0.68,1.85c-0.58,3.88-1.31,7.75-1.61,11.65c-0.2,2.6-0.29,5.41,0.47,7.84c1.37,4.4,1.02,8.76,0.86,13.18
		c-0.1,2.77-0.41,5.63,0.14,8.29c1.34,6.51,1.79,13.05,1.64,19.67c-0.09,3.76,0.94,7.27,2.67,10.59c0.58,1.12,1.19,2.25,1.62,3.43
		c1.46,4.05,2.81,8.13,4.25,12.18c2.12,5.97,6.25,6.55,10.86,5.89c3.47-0.49,6.4-3.29,6.96-6.23
		C734.07,852.43,733.44,851.31,729.09,848.78z"/>
	<path class="st1" d="M603.85,685.97c-0.26-4.17-0.4-8.36-0.72-12.53c-0.1-1.23-0.43-2.56-1.07-3.59c-0.52-0.83-1.66-1.27-2.52-1.89
		c-0.59,0.85-1.19,1.7-1.47,2.1c0.05,0.95,0.06,1.2,0.09,1.45c1.03,9.19,2.04,18.37,3.13,27.55c0.11,0.96,0.59,1.94,1.14,2.75
		c0.24,0.36,1.12,0.48,1.65,0.38c0.35-0.07,0.75-0.69,0.82-1.12c0.1-0.6-0.11-1.24-0.15-1.87
		C604.44,694.81,604.12,690.39,603.85,685.97z"/>
	<path class="st1" d="M587.19,439.86c-0.06-1.87,0.39-3.78,0.78-5.64c1.9-8.99,1.07-17.86-1.31-26.61c-0.75-2.75-2.5-4.81-5.52-5.53
		c-0.1,0.47-0.25,0.73-0.19,0.92c0.19,0.6,0.43,1.19,0.7,1.76c2.43,5,3.54,10.27,3.44,15.82c-0.08,4.31-0.12,8.63-0.03,12.94
		c0.08,4.19-0.89,8.06-3.25,11.52c-3.56,5.24-7.19,10.44-10.76,15.67c-1.07,1.57-2.16,3.13-3.07,4.79
		c-2.4,4.36-0.76,8.16,2.27,11.84c0.05-1.32,0.25-2.66,0.14-3.96c-0.28-3.29,0.43-6.24,2.37-8.97c3.96-5.58,7.79-11.26,11.75-16.85
		C586.15,445.24,587.29,442.86,587.19,439.86z"/>
	<path class="st1" d="M583.03,504.2c-0.39,0.96,0.83,2.34,1.89,2.11c0.58-0.13,1.51-0.93,1.44-1.28c-0.14-0.78-0.8-1.47-1.43-2.48
		C584,503.34,583.25,503.66,583.03,504.2z"/>
	<path class="st1" d="M591.68,372.68c0.09,0.07,0.17,0.19,0.26,0.2c0.09,0,0.19-0.11,0.29-0.17c-0.09-0.07-0.18-0.19-0.27-0.2
		C591.87,372.5,591.78,372.62,591.68,372.68z"/>
	<path class="st1" d="M584.51,463.05c0.63,0.68,1.15,1.62,1.93,1.93c0.47,0.18,1.33-0.63,2.82-1.43c-1.5-0.79-2.25-1.43-3.06-1.53
		C585.69,461.94,585.08,462.67,584.51,463.05z"/>
	<path class="st1" d="M590.76,371.52c0.29-0.06,0.58-0.12,0.87-0.18c0.14-1.55,0.4-3.11,0.41-4.66c0.11-19.48,0.19-38.96,0.27-58.44
		c0-0.51-0.02-1.02,0.03-1.52c0.27-2.75,1.61-4.05,4.35-4.23c0.88-0.06,1.83,0.13,2.64-0.14c0.72-0.24,1.27-0.95,1.9-1.46
		c-0.56-0.61-1-1.54-1.69-1.78c-4.79-1.66-10.65,2.05-11.41,7.17c-0.33,2.25-0.57,4.52-0.77,6.79c-0.92,10.85-1.77,21.7-2.71,32.55
		c-0.65,7.6,0.31,14.92,3.61,21.84C588.94,368.89,589.92,370.17,590.76,371.52z"/>
	<path class="st0" d="M382.24,399.47c1.76-1.96,3.42-4.14,4.57-6.5c2.66-5.46,1.34-11.61-3.27-15.57c-1.8-1.55-3.94-2.79-6.08-3.83
		c-4.56-2.22-4.98-2.74-4.75-7.87c0.03-0.76,0.1-1.52,0.15-2.28c0.67-12.42,1.47-24.83,1.99-37.25c0.62-14.84,0.96-29.69,1.52-44.53
		c0.16-4.19-1-7.66-4.05-10.63c-6.15-5.99-11.34-12.99-18.69-17.76c-1.15-0.75-2.61-2.17-1.09-4.52
		c9.14,6.28,17.23,13.88,27.27,19.28c0.5-1.41,1-2.3,1.13-3.25c0.61-4.39,1.11-8.8,1.67-13.2c1.19-9.39,3.15-18.53,8.41-26.86
		c2.27-3.59,3.83-7.77,3.37-11.99c-0.17-1.56,1.39-3.62-1.19-4.67c-0.62,0.54-1.33,1.04-1.91,1.66c-2.16,2.32-4.21,4.75-6.43,7.02
		c-2.38,2.43-3.61,2.57-6.3,0.7c-4.47-3.11-8.93-6.24-13.27-9.52c-4.56-3.44-8.97-7.07-13.46-10.61c-2.9-2.29-6.12-3.98-9.88-5.47
		c-0.63,1.08-1.34,1.97-1.72,2.98c-3.78,10.18-6.44,20.57-5.65,31.57c0.03,0.38,0.1,0.77,0.05,1.14c-0.23,1.96-1.58,2.58-3.16,1.34
		c-1.69-1.33-3.25-2.84-4.86-4.28c-1.18-1.05-2.36-2.11-4.15-3.71c-8.5,36.72-14.08,73.03-19.38,110.41
		c-1.23-1.66-2.28-2.5-2.56-3.56c-1.2-4.39-2.64-8.8-3.14-13.29c-1.31-11.81-1.91-23.7-2.89-35.54c-0.48-5.79-0.88-11.6-1.13-17.41
		c-0.05-1.26-0.52-2.49-0.81-3.73c-0.68,0.57-0.86,1.13-0.89,1.71c-0.32,5.95-0.58,11.91-0.93,17.86c-0.1,1.68,0.13,3.54-1.6,4.98
		c-3.77-3.16-2.27-7.89-3.93-12.03c-1.28,0.6-2.47,0.97-3.44,1.65c-10.13,7.22-20.25,14.46-30.29,21.79c-0.9,0.66-1.85,2-1.84,3.02
		c0.07,6.83-0.73,13.67,0.53,20.5c0.64,3.46,0.51,7.08,0.62,10.62c0.02,0.61-0.48,1.23-1.04,2.55c-1.11-1.84-2.15-3-2.57-4.36
		c-1.87-6.04-3.35-12.2-5.37-18.19c-2.27-6.73-3.74-13.78-7.68-19.99c-0.26,2.14-0.42,4.28-0.22,6.38c0.26,2.77,1.06,5.5,1.19,8.26
		c0.33,7.35,0.75,14.72,0.5,22.06c-0.18,5.28-1.23,10.54-2.18,15.76c-0.66,3.6-1.9,7.09-2.73,10.67
		c-1.32,5.71-1.72,11.52-1.68,17.38c0.03,3.45-1.36,4.54-4.76,4.1c-0.87-0.11-1.7-0.48-2.57-0.67c-1.11-0.24-2.24-0.64-3.35-0.6
		c-5.54,0.17-11.17-0.92-16.59,1.19c-0.79,0.31-1.77,0.08-2.64,0.21c-1.61,0.24-3.21,0.56-4.81,0.86c-1.11,0.21-2.25,0.74-3.31,0.62
		c-3.79-0.44-6.15,1.17-7.26,4.98c0.08,0.29,0.16,0.62,0.24,0.91c0.67,0.64,1.71,1.19,1.9,1.96c0.82,3.19,2.61,5.74,4.87,8
		c1.6,1.6,3.42,2.98,4.97,4.62c6.05,6.4,13.73,10.67,21.07,15.24c3.37,2.1,6.93,3.84,10.54,5.47c3.52,1.59,5.7,3.68,5.99,7.47
		c0.18,2.4,0.49,4.79,0.77,7.18c1.05,8.8,2.11,17.6,3.16,26.41c0.06,0.5-0.01,1.01,0.1,1.5c0.68,2.86,0.8,5.82,0.92,8.76
		c0.45,10.72,1.96,21.46,1.96,32.19c0.01,12.05-0.97,24.09-1.09,36.14c-0.13,13.58,0.1,27.16,0.41,40.73
		c0.36,15.61,1.13,31.21,1.44,46.82c0.42,21.07,0.51,42.15,0.88,63.22c0.23,12.68,0.73,25.35,1.12,38.02
		c0.02,0.51,0.12,1.01,0.13,1.52c0.3,12.92,0.79,25.84,0.85,38.76c0.06,12.31-0.27,24.62-0.58,36.93c-0.07,2.77,0.83,4.87,2.65,6.82
		c3.46,3.69,6.66,7.64,10.27,11.16c3.7,3.6,5.64,7.7,5.35,12.88c-0.06,1.12,0.21,2.27,0.35,3.4c0.33,2.75,0.33,2.7-2.59,3.05
		c-0.65,0.08-1.57,0.46-1.79,0.96c-0.22,0.51,0.21,1.35,0.47,2c0.13,0.32,0.51,0.57,0.83,0.77c3.2,1.94,4.03,5.1,4.22,8.49
		c0.19,3.55,0.16,7.11,0.27,10.66c0.3,9.51,0.76,19.03,0.91,28.54c0.18,11.58-0.08,23.17-0.03,34.75c0,0.29-0.04,0.75-0.08,1.04
		c-0.31,2.45,0.4,4.15,2.63,4.79c3.76,1.08,7.49,2.4,11.38,2.73c1.34,0.11,2.61-0.93,2.79-2.27c0.62-4.68,1.58-9.35,1.86-14.05
		c0.66-10.88,1.41-21.77,1.53-32.67c0.26-24.12,0.36-48.24,0.15-72.36c-0.18-20.67,0.24-41.36-0.87-62.03
		c-0.54-10.01-0.35-20.05-0.68-30.08c-0.28-8.35-0.86-16.7-1.27-25.04c-0.18-3.8-0.34-7.61-0.36-11.42
		c-0.01-2.26-0.44-3.99-3.07-4.41c-2.09-0.33-4.14-0.96-6.24-1.25c-3.22-0.44-3.71-1.38-3.12-5.3c0.1-0.69,0.15-1.38,0.17-2.08
		c0.22-11.02,0.41-22.05,0.61-33.07c0.32-17.64,0.65-35.29,0.96-52.93c0.51-28.94,1.01-57.88,1.53-86.82
		c0.11-6.09,0.28-12.18,0.45-18.27c0.39-14.57,0.8-29.14,1.18-43.72c0.08-3.05,0-6.1,0.1-9.14c0.04-1.31-0.2-2.86,1.82-3.59
		c0.79,1,1.6,2.02,2.39,3.02c0.6-2.33-1.19-4.99,1.41-7.6c0.65,1.6,1.39,2.78,1.59,4.05c0.55,3.37,1.04,6.77,1.24,10.17
		c0.18,2.92,0.38,5.75,1.24,8.6c1.16,3.84,1.66,7.88,2.52,11.81c0.76,3.45,1.51,6.91,2.11,10.39c1.37,8.06,3.87,15.95,3.91,24.23
		c0,0.58,0.05,1.52,0.13,2.09c1.01,7.83,2.2,15.63,2.96,23.48c0.12,1.28,0.73,2.47,1.76,3.23c1.97,1.46,3.44,3.13,4.01,5.6
		c0.19,0.81,1.15,1.78,1.96,2.03c2.7,0.85,7.13-1.83,7.59-4.59c1.02-6.23,2.04-12.47,2.77-18.73c0.7-6.03,0.89-12.12,1.58-18.15
		c0.51-4.52,1.37-9,2.24-13.47c1.49-7.71,3.67-15.31,3.9-23.24c0.02-0.83,0.11-1.65,0.3-2.46c1.57-6.81,3.18-13.6,4.84-20.39
		c0.15-0.63,0.65-1.17,1.29-2.26c0.35,1.17,0.64,1.73,0.67,2.3c0.22,4.3,0.49,8.6,0.56,12.91c0.07,4.56-0.1,9.13-0.09,13.69
		c0,0.7,0.38,1.41,0.58,2.11c0.26-0.04,0.51-0.08,0.77-0.12c0.29-5.91,0.97-11.78,0.49-17.74c-0.23-2.89-0.13-5.82-0.05-8.73
		c0.02-0.77,0.56-1.52,0.86-2.28c2.35,0.32,2.9,1.63,2.98,3.5c0.11,2.53,0.07,5.14,0.71,7.56c0.9,3.41,0.59,6.77,0.54,10.18
		c-0.2,13.15-3.32,26.08-2.36,39.33c0.31,4.21,0.04,8.43-0.39,12.63c-0.18,1.72,0.1,3.61-0.35,5.3c-0.8,3.03-0.89,5.98-0.1,9.02
		c0.27,1.06,0.14,2.26,0.06,3.38c-0.16,2.27-0.63,4.54-0.6,6.8c0.43,37.69-0.51,75.39,0.73,113.07c0.25,7.61,0.11,15.24,0.2,22.85
		c0.19,15.87,0.4,31.74,0.63,47.6c0.02,1.43,0.26,2.86,0.45,4.73c1.91-1.05,2.23-0.98,3.18-2.32c3.83-5.42,9.13-9.67,15.24-12.26
		c7.61-3.22,9.49-6.07,8.9-11.8c-0.29-2.82-0.36-5.66-0.36-8.49c-0.01-13.51,0.57-27.01,1.14-40.5c0.85-20.15,0.29-40.33,1.69-60.47
		c0.84-12.15,1.05-24.34,1.64-36.5c0.88-18.25,2.16-36.49,2.7-54.75c0.6-20.3,0.67-40.62,0.72-60.93c0.01-5.1,1.65-9.1,5.26-12.53
		C376.74,405.1,379.61,402.39,382.24,399.47z M249.38,675.17c0.11-17.97,0.24-35.95,0.38-53.92c0.01-0.73,0.15-1.47,0.3-2.78
		c2,1.45,1.83,3.03,1.85,4.49c0.04,3.42-0.11,6.84,0.01,10.25c0.48,13.65,1.04,27.31,1.53,40.96c0.05,1.25,0.07,2.57-0.29,3.74
		c-0.2,0.66-1.2,1.46-1.86,1.48c-0.55,0.02-1.35-0.92-1.64-1.61C249.32,677.01,249.37,676.05,249.38,675.17z M253.11,714.69
		c-0.06,0.82-0.51,1.61-0.79,2.42c-0.29-0.04-0.58-0.08-0.86-0.12c-0.86-10.2-3.34-20.33-1.26-31.34c0.72,0.95,1.31,1.4,1.43,1.95
		c0.26,1.23,0.26,2.51,0.4,3.76c0.5,4.63,1.18,9.26,1.45,13.9C253.66,708.38,253.33,711.55,253.11,714.69z M280.43,304.55
		c-1.69-0.22-1.85-1.9-1.87-3.29c-0.02-1.11,0.07-2.41,1.56-2.64c1.28-0.2,2.29,1.37,2.25,3.56
		C282.31,303.26,282.11,304.77,280.43,304.55z M281.79,294.93c-2.07,0.03-2.62-1.1-2.58-2.18c0.03-0.79,0.73-2.04,1.39-2.23
		c1.54-0.45,1.83,0.96,1.82,2.08C282.41,293.43,281.98,294.25,281.79,294.93z M284.41,327.28c-2.12-2.52-2.12-2.92-0.07-5.43
		C286.45,324.41,286.46,324.79,284.41,327.28z M329.65,360.27c-0.07,1.48-0.01,2.96-0.01,4.99c-1.07-0.61-1.86-0.79-1.97-1.17
		c-0.27-0.95-0.31-2-0.32-3c-0.03-8.09,0.03-16.18-0.06-24.26c-0.03-2.39-0.44-4.78-0.65-7.17c-0.3-3.38-0.88-6.77-0.8-10.15
		c0.17-6.71,0.67-13.4,1.13-20.1c0.11-1.62,0.53-3.24,0.99-4.8c0.13-0.44,0.94-0.96,1.42-0.94c0.47,0.02,1.09,0.59,1.33,1.08
		c0.33,0.66,0.43,1.45,0.53,2.2c1.17,8.77,2.5,17.47,1.57,26.44c-0.69,6.63-0.79,13.26-2.17,19.89
		C329.5,348.76,329.9,354.59,329.65,360.27z M332.06,415.05c-2.3-1.92-2.35-2.83-0.11-5.52
		C333.54,411.58,333.76,413.3,332.06,415.05z M355.3,277.43c-0.27,0.64-1.3,1.34-1.94,1.31c-0.52-0.03-1.33-1.08-1.41-1.75
		c-0.3-2.48-0.41-5.01,2.11-7.25C356.35,272.37,356.37,274.88,355.3,277.43z"/>
	<path class="st0" d="M887.31,228.79c-12.13-5.33-24.8-7.98-38.11-7.07c-4.58,0.31-6.06,2.99-3.51,6.95
		c1.86,2.9,2.83,5.95,2.79,9.32c-0.09,9.52-0.15,19.04-0.4,28.56c-0.35,13.57-0.87,27.14-1.28,40.71
		c-0.14,4.57-0.06,9.14-0.23,13.71c-0.39,10.52-0.88,21.04-1.31,31.56c-0.06,1.52,0.04,3.05-0.08,4.57
		c-0.05,0.63-0.49,1.22-0.88,2.11c-1.87-2.42-1.57-4.87-1.6-7.24c-0.19-15.61-0.31-31.22-0.58-46.83
		c-0.25-14.59-0.59-29.19-1.01-43.78c-0.63-21.82-1.47-43.64-2.01-65.46c-0.47-18.9-0.68-37.81-0.94-56.72
		c-0.05-3.93,0.21-7.87,0.21-11.8c0-1.43-0.31-2.87-0.52-4.67c-2.26,1.27-1.85,2.95-1.8,4.31c0.61,14.49-1.04,28.87-2.18,43.27
		c-1.29,16.31-2.57,32.63-3.49,48.97c-1,17.74-1.67,35.49-2.35,53.25c-0.59,15.47-1.09,30.95-1.47,46.43
		c-0.62,25.63-1.1,51.27-1.67,76.91c-0.15,6.73-0.44,13.45-0.57,20.17c-0.03,1.75,0.16,3.54,0.48,5.26
		c0.33,1.74,1.49,2.83,3.74,3.31c0.14-1.39,0.35-2.59,0.38-3.8c0.11-4.82,0.15-9.65,0.24-14.47c0.45-23.35,0.91-46.7,1.35-70.05
		c0.03-1.4-0.04-2.8,0.03-4.19c0.04-0.79,0.26-1.58,0.4-2.36c0.98,0.79,1.45,1.65,1.55,2.55c0.27,2.52,0.54,5.05,0.54,7.58
		c0.06,26.41,0.08,52.82,0.11,79.22c0,2.03,0.05,4.06,0.05,6.09c0,1.56,0.64,2.53,2.12,3.23c10.41,4.97,20.78,10.01,31.15,15.04
		c1.48,0.71,2.89,1.67,5.04,0.56c0.48-2.45,1.34-5.15,1.49-7.88c0.53-9.36,0.72-18.71,1.43-28.08c1.34-17.56,1.4-35.22,1.99-52.83
		c0-0.13,0-0.25,0.01-0.38c0.44-5.81,0.97-11.61,1.29-17.43c0.6-11.07,1.05-22.14,1.62-33.21c0.12-2.31,1.88-4.27,4.18-4.46
		c1.42-0.12,2.88,0.1,4.28-0.1c2.42-0.35,3.19-1.65,2.74-3.98c-0.28-1.47-0.6-2.99-0.53-4.47c0.28-6.59,0.73-13.18,1.14-19.77
		c0.29-4.7,0.71-9.38,1.29-14.05c0.66-5.23,1.39-10.45,2.17-15.66c0.18-1.22,1.11-2.32,1.7-3.47v-4.57
		C893.3,232.02,890.41,230.16,887.31,228.79z"/>
	<path class="st0" d="M855.54,966.65c0,0,0-0.01,0-0.01c-2.06-11.95-2.58-24.04-3.08-36.13c-0.28-6.72-0.6-13.44-0.85-20.16
		c-0.86-23.38-1.85-46.75-2.23-70.14c-0.01-0.33,0.04-0.67,0.12-1c2.71-11-2.81-13.78-20.21-18.44c-0.71-0.19-1.28-0.75-1.44-1.46
		c-1.74-7.38-4.95-8.42-8.79-10.68c-2.15,2.37-1.65,5.18-1.74,7.68c-0.43,11.79-0.64,23.59-0.95,35.39
		c-0.3,11.16-0.52,22.33-0.98,33.48c-0.34,8.24-0.93,16.46-1.56,24.68c-0.77,10.1-1.91,20.18-2.47,30.29
		c-0.39,7.07-0.33,14.17,2.06,21.05c1.2,3.45,1.77,7.12,2.83,10.62c1.76,5.79,3.43,11.62,5.6,17.25c3.21,8.32,5.67,16.83,6.68,25.67
		c0.76,6.67,0.95,13.4,1.41,20.11c0.01,0.2,0.24,0.39,0.36,0.59c0.58-0.11,1.16-0.23,1.9-0.37c1.53,6.13,2.56,12.08,2.33,18.23
		c-0.11,2.92,0.92,5.88,0.79,8.8c0.01,0,0,0,0.01,0c1.47-6.38,4.67-12.36,2.3-19.62c-0.26-0.78,0.11-1.68,0.88-1.96
		c5.97-2.16,5.56-12.96,12.71-15.85c3.19-1.29,5.02-3.52,5.83-6.5c0.88-3.26,1.61-6.68,1.66-10.03c0.07-4.8-0.49-9.62-0.87-14.42
		C857.1,984.7,856.31,975.68,855.54,966.65z"/>
	<path class="st0" d="M766.97,824.48c-0.21-3.54-0.82-7.13-0.43-10.61c0.48-4.32,0.32-8.49,0.04-12.8
		c-0.27-4.22-2.15-6.23-5.68-7.45c-3.44-1.19-6.88-2.43-10.36-3.49c-1.56-0.47-2.4-1.31-2.57-2.88c-0.14-1.26-0.18-2.54-0.39-3.78
		c-0.14-0.84-0.23-1.98-0.79-2.41c-2.87-2.23-5.55-4.9-9.64-4.74c-2.66,0.1-5.33,0.07-8,0.02c-2.47-0.05-4.05,1.15-5.05,3.31
		c-0.43,0.92-0.81,1.89-1.42,2.68c-0.96,1.25-2.37,1.11-3-0.31c-0.35-0.79-0.44-1.71-0.55-2.58c-0.35-2.89-0.67-5.79-0.99-8.69
		c-1.13-10.24-1.53-20.49-0.99-30.79c0.3-5.7,0.35-11.42,0.41-17.12c0.01-1.08-0.15-2.61-0.84-3.16c-2.73-2.17-2.46-5.08-2.54-7.99
		c-0.46-16.86,0.44-33.73-0.89-50.6c-0.65-8.33-0.59-16.71-2.01-25c-0.51-2.98-0.27-6.08-0.51-9.11
		c-0.72-9.08-1.62-18.15-2.22-27.24c-0.39-5.95-0.29-11.93-0.55-17.89c-0.22-4.93-0.76-9.85-0.98-14.78
		c-0.61-13.69-1.12-27.38-1.7-41.06c-0.04-1.01-0.35-2-0.48-3c-0.47-3.51-0.93-7.02-1.38-10.54c-0.14-1.13-0.2-2.27-0.38-3.4
		c-0.89-5.61-1.8-11.22-2.73-16.83c-0.21-1.25-0.53-2.47-0.77-3.71c-1.02-5.33-2.59-10.63-0.9-16.13c0.25-0.82,0.14-1.77,0.1-2.65
		c-0.59-11.34,0.3-22.5,2.77-33.64c3.75-16.9,2.58-34.11,2.09-51.22c-0.33-11.54-1.47-23.06-1.71-34.6
		c-0.21-9.89,0.01-19.81,0.66-29.68c0.64-9.71,1.1-19.52,4.44-28.84c0.56-1.58,0.76-3.46,3.2-3.93c1.53,12.71,3.01,25.26,4.54,37.79
		c1.56,12.71,3.38,25.39,4.71,38.12c1.31,12.55,2.15,25.14,3.19,37.72c0.27,0.01,0.54,0.02,0.81,0.03c0.06-0.44,0.17-0.88,0.17-1.31
		c-0.08-6.73-0.05-13.46-0.31-20.18c-0.15-3.91-0.87-7.79-1.12-11.69c-0.68-10.62-1.1-21.26-1.91-31.87
		c-0.83-10.73-2.19-21.43-2.97-32.17c-0.34-4.75,0.18-9.56,0.31-14.51c2.28,0.08,2.06,1.31,2.29,2.22c0.43,1.7,0.59,3.54,1.36,5.07
		c1.49,2.93,1.96,5.92,2.01,9.17c0.17,11.92,0.53,23.84,0.81,35.76c0.22,9.46,2.23,18.57,5.25,27.51c0.44,1.31,0.93,2.31,2.41,2.57
		c2.47,0.43,3.07,2.14,3.26,4.42c0.58,6.7,1.41,13.37,1.99,20.06c0.43,4.92,0.6,9.87,0.9,14.8c0.1,1.71-0.5,3.13-2.19,3.58
		c-5.66,1.48-8.71,5.87-11.72,10.3c-1.78,2.61-1.5,3.8,0.98,5.83c3.22,2.63,6.96,4.12,11.02,4.86c2.05,0.38,3.57-0.36,5.01-1.96
		c1.58-1.76,3.54-3.2,5.38-4.71c1.07-0.88,2.35-1.53,3.35-2.48c1.04-0.98,1.84-2.36,1.07-3.76c-1.08-1.95-2.09-4.28-3.81-5.45
		c-3.2-2.17-4.08-4.93-3.87-8.46c0.18-2.91,0.22-5.83,0.35-8.74c0.23-5.06,0.58-10.12,0.72-15.18c0.11-3.93,0.35-7.91-0.16-11.78
		c-0.94-7.13-0.72-14.13,0.61-21.19c2.63-13.88,3.82-27.91,3.27-42.03c-0.19-4.8,0.61-9.25,2.18-13.76
		c1.66-4.77,3.47-9.68,3.89-14.64c0.94-11.26,0.85-22.61-1.08-33.79c-1.49-8.61-3.76-17.07-5.41-25.66
		c-0.85-4.45-3.43-6.94-7.52-8.13c-10.04-2.92-20.29-4.32-30.77-4.03c-4.44,0.12-7.6,2.03-8.98,6.27c-1.32,4.07-3.96,5.95-8.16,6.06
		c-3.39,0.08-5.66,1.9-6.94,5.02c-0.62,1.52-1.27,3.04-2.06,4.47c-6.63,12.01-10.95,24.83-12.93,38.38
		c-1.28,8.78-2.21,17.62-2.96,26.46c-0.54,6.31-0.7,12.63,1.78,18.77c0.81,1.99,0.62,4.48,0.52,6.73c-0.17,3.8-0.93,7.58-0.91,11.37
		c0.04,6.97,0.3,13.95,0.79,20.91c0.72,10.24,1.75,20.47,2.59,30.71c0.22,2.65,0.57,5.36,0.25,7.97
		c-0.95,7.67-2.25,15.29-3.32,22.95c-0.43,3.12-1.15,6.34-0.8,9.41c1.17,10.18,2.04,20.43,4.63,30.4c0.38,1.45,0.32,3.02,0.49,4.53
		c0.46,4.15,0.85,8.32,1.45,12.45c0.3,2.11,1.28,4.14,1.43,6.24c0.57,8.48,1.1,16.97,1.35,25.46c0.5,16.86-0.1,33.72,0.9,50.59
		c0.85,14.3,0.52,28.67,0.73,43.01c0.07,4.81,0.09,9.62,0.28,14.42c0.14,3.55,0.52,7.08,0.75,10.63c0.34,5.19,0.61,10.38,0.96,15.57
		c0.29,4.42,1.01,8.85,0.89,13.26c-0.19,7.12-0.08,14.17,1.31,21.19c0.39,1.96,0.17,4.04,0.2,6.06c0.02,1.9-0.16,3.81,0.01,5.69
		c0.43,4.78,1,9.55,1.5,14.33c0.08,0.76,0.16,1.53,0.1,2.28c-0.54,6.86,0.21,13.62,0.9,20.44c1.02,10.22,1.46,20.52,0.19,30.79
		c-0.31,2.5-0.7,5-0.96,7.5c-0.27,2.65-0.36,5.31-0.64,7.96c-0.76,7.29-1.76,14.57-2.34,21.88c-1.17,14.92-2.17,29.85-3.14,44.79
		c-0.22,3.41-0.2,6.86-0.01,10.27c0.07,1.26,0.71,2.69,1.53,3.68c4.33,5.26,7.51,11.15,9.33,17.66c4.2,15.02,8.11,30.11,12.28,45.14
		c0.77,2.76,2.03,5.45,3.43,7.97c7.36,13.22,16.9,25.22,22.23,40.38c1.13-1.66,1.83-2.78,2.63-3.82c1.3-1.69,2.45-3.92,4.89-3.76
		c4.76,0.32,8.8-1.88,13.07-3.27c4.08-1.33,6.41-4.18,7.29-8.43c0.69-3.32,1.77-6.56,2.69-9.84c1.08-3.89,2.34-7.74,3.21-11.67
		c0.82-3.69,1.22-7.47,1.81-11.21c0.91-5.74,2.17-11.45,2.65-17.22c0.82-9.97,1.43-19.97,1.62-29.97
		c0.2-10.66-0.18-21.32-0.35-31.99C767.35,827.51,767.06,826,766.97,824.48z M725.13,288.25c0.2,0.41,0.59,0.83,0.56,1.21
		c-0.03,0.34-0.52,0.64-1.04,1.2c-0.37-0.7-0.84-1.23-0.73-1.43C724.16,288.81,724.71,288.56,725.13,288.25z M682.21,324.98
		c-0.52,3.62-1.12,7.23-1.77,10.82c-0.12,0.67-0.62,1.26-1.39,2.76c-0.45-0.96-0.83-1.4-0.85-1.86c-0.24-4.9-0.42-9.8-0.6-14.71
		c-0.01-0.37,0.16-0.74,0.25-1.11c0.3-1.24,1-2.12,2.35-1.99c1.28,0.12,2.04,0.98,2.08,2.29
		C682.32,322.46,682.39,323.74,682.21,324.98z M706.26,748.24c2.32,2.64,2.38,3.25,0.55,6.57
		C704.96,752.53,705.2,750.52,706.26,748.24z M733.36,856.16c-0.56,2.94-3.48,5.73-6.96,6.23c-4.61,0.66-8.74,0.07-10.86-5.89
		c-1.44-4.05-2.79-8.13-4.25-12.18c-0.43-1.19-1.03-2.31-1.62-3.43c-1.73-3.32-2.75-6.83-2.67-10.59c0.15-6.62-0.3-13.15-1.64-19.67
		c-0.55-2.66-0.24-5.53-0.14-8.29c0.16-4.43,0.51-8.78-0.86-13.18c-0.76-2.44-0.67-5.24-0.47-7.84c0.3-3.9,1.03-7.77,1.61-11.65
		c0.07-0.45,0.31-0.87,0.68-1.85c0.57,1.06,1.12,1.64,1.17,2.27c0.26,3.02,0.8,6.1,0.5,9.08c-0.78,7.93,0.6,15.68,1.26,23.5
		c0.24,2.89,0.2,5.81,0.46,8.71c0.18,1.99,0.37,4.05,1.05,5.9c1.54,4.16,3.25,8.27,5.14,12.28c1.67,3.54,1.9,6.78-0.81,9.88
		c-0.23,0.26-0.28,0.68-0.59,1.46c0.91-0.25,1.55-0.33,2.11-0.59c1.35-0.63,2.49-0.46,3.32,0.81c2.31,3.53,5.77,5.63,9.3,7.68
		C733.44,851.31,734.07,852.43,733.36,856.16z"/>
	<path class="st0" d="M645.34,337.33c-3.13-2.15-6.45-4.04-9.81-5.81c-1.87-0.98-2.9-2.24-3.27-4.3c-0.6-3.37-1.45-6.69-2.1-10.05
		c-0.49-2.53-0.5-5.06,0.81-7.42c1.43-2.57,1.61-5.36,1.18-8.14c-0.38-2.47-0.12-4.75,0.69-7.09c1.14-3.27,0.46-6.26-1.95-8.8
		c-0.96-1.01-1.92-2.04-3-2.92c-2.55-2.08-5.13-4.13-7.78-6.08c-3.68-2.7-3.77-5.08-0.23-7.84c1.1-0.85,2.27-1.67,3.15-2.71
		c1.38-1.63,1.23-2.86-0.37-4.29c-0.75-0.67-1.62-1.22-2.49-1.74c-9.69-5.83-19.83-6.73-30.2-2.21c-5.69,2.48-11.18,5.43-16.66,8.35
		c-4.15,2.21-6.01,6.29-4.93,10.93c0.62,2.68,1.44,5.48,2.88,7.79c2.95,4.74,4.17,9.7,3.58,15.21c-0.2,1.89-0.12,3.81-0.25,5.71
		c-0.06,0.88-0.05,1.92-0.52,2.57c-0.5,0.7-1.52,1.41-2.33,1.43c-2.79,0.07-5.14-1.82-5.75-4.59c-0.43-1.97-0.53-4.01-0.76-6.02
		c-0.24-2.01-0.34-4.05-0.71-6.03c-0.59-3.17-2.71-5.18-5.44-7.06c-0.42,2.79-0.97,5.15-1.1,7.53c-0.38,7.34-0.57,14.68-0.89,22.02
		c-0.06,1.3-0.41,2.59-0.67,4.13c-1.83-0.54-3.14-1.02-4.49-1.31c-1.6-0.34-2.76,0.19-3.03,1.98c-0.15,1-0.52,2.03-0.41,3.01
		c0.82,6.92,1.68,13.84,2.69,20.74c0.14,0.96,0.95,2.12,1.79,2.61c2.24,1.31,2.67,3.22,2.44,5.52c-0.34,3.41-0.75,6.81-0.99,10.23
		c-0.15,2.14-0.5,4.43,0.06,6.42c0.74,2.65,0.07,4.69-1.24,6.82c-2.74,4.46-4.68,9.24-5.92,14.35c-2.41,9.97-1.06,19.96-0.31,29.93
		c0.5,6.57,1.35,13.12,1.95,19.69c0.88,9.73,1.66,19.46,2.51,29.19c0.93,10.61,1.85,21.23,2.87,31.83
		c0.63,6.56,1.39,13.11,2.23,19.65c0.17,1.35,0.96,2.63,1.46,3.94c1.05-3.03,1.51-5.86,2.16-8.65c0.65-2.77,0.05-6.07,3.55-8.61
		c0.29,3.05,0.71,5.5,0.71,7.95c0.02,10.97,0.33,21.9-4.6,32.28c-4.25,8.95-4.89,18.57-3.15,28.31c0.21,1.17,0.83,2.27,1.41,3.81
		c1.6-0.89,2.82-1.49,3.96-2.23c2.24-1.44,4.44-2.96,6.65-4.45c4.42-2.98,8.84-5.96,13.25-8.94c1.64-1.11,3.2-2.48,2.87-4.57
		c-0.33-2.09-0.93-4.31-2.07-6.05c-1.86-2.83-2.27-5.81-2.36-9.03c-0.11-4.05-0.07-8.17-0.81-12.14c-1.15-6.2-1.16-12.35-0.53-18.55
		c0.04-0.38,0.45-0.71,1.26-1.92c0.83,4.43,1.78,7.93,2.1,11.49c0.84,9.21,1.45,18.44,2.06,27.67c0.12,1.78,0.72,2.86,2.49,3.27
		c1.23,0.29,2.48,0.6,3.63,1.1c1.37,0.59,2.45,0.2,3.54-0.6c6.65-4.85,13.3-9.7,19.97-14.54c1.38-1,2.65-2.37,4.64-1.71
		c-0.53,1.05-0.84,2.36-1.66,3.07c-2.66,2.31-5.51,4.41-8.31,6.56c-6.83,5.26-13.68,10.5-20.53,15.74
		c-1.97,1.51-2.81,3.47-2.72,5.96c0.12,3.17,0.13,6.35,0.11,9.52c-0.01,1.18-0.23,2.37-0.43,4.23c-3.44-3.62-3.06-8.46-6.37-11.47
		c-0.96,0.54-1.89,0.92-2.67,1.52c-6.46,4.93-12.87,9.91-19.34,14.83c-2.74,2.08-3.57,4.84-3.1,8.08
		c2.07,14.41,4.18,28.83,6.28,43.24c0.58,4,1.27,7.98,1.81,11.98c0.6,4.51,1.05,9.04,1.64,13.55c0.76,5.75,1.75,11.48,2.33,17.25
		c0.32,3.22,1.43,5.84,3.74,8.06c9.71,9.31,19.39,18.65,29.11,27.95c4.58,4.39,9.19,8.75,13.83,13.08c1.81,1.69,3.72,3.26,6.12,5.36
		c1.01-2.25,2.05-3.86,2.44-5.62c0.88-3.95,1.31-8.01,2.16-11.97c1.01-4.75,0.21-9.96,3.55-14.15c0.33-0.41,0.18-1.22,0.23-1.85
		c0.56-8.35,1.1-16.7,1.67-25.04c0.23-3.29,0.45-6.58,0.82-9.85c0.73-6.4,1.77-12.77,2.29-19.18c0.92-11.25,1.6-22.52,2.29-33.79
		c0.74-12.16,1.39-24.32,2.07-36.49c0.35-6.21,0.35-12.45,1.08-18.62c1.23-10.46,2.49-20.91,2.09-31.46
		c-0.11-2.93,0.48-5.23,3.09-6.81c2.36-1.43,2.81-3.57,2.53-6.24c-0.4-3.77-0.48-7.58-0.53-11.37c-0.08-5.82,0.89-11.58,0.23-17.46
		c-0.82-7.32-0.58-14.68,0.63-22c1.17-7.06,1-14.13,0.16-21.24c-0.94-7.93-1.65-15.9-2.34-23.86c-1.31-15.16-2.55-30.33-3.81-45.5
		c-0.34-4.04-0.77-8.08-0.97-12.13c-0.21-4.44,1.53-8.12,4.73-11.21c1.45-1.4,2.85-2.92,3.98-4.58
		C649.48,342.85,649,339.85,645.34,337.33z M604.9,701.09c-0.07,0.43-0.48,1.05-0.82,1.12c-0.53,0.1-1.41-0.02-1.65-0.38
		c-0.55-0.81-1.03-1.79-1.14-2.75c-1.09-9.18-2.1-18.37-3.13-27.55c-0.03-0.25-0.03-0.51-0.09-1.45c0.28-0.4,0.87-1.25,1.47-2.1
		c0.86,0.62,2,1.06,2.52,1.89c0.64,1.03,0.98,2.36,1.07,3.59c0.33,4.17,0.47,8.35,0.72,12.53c0.27,4.42,0.59,8.83,0.9,13.25
		C604.79,699.85,605,700.49,604.9,701.09z M584.66,345.63c0.93-10.85,1.79-21.7,2.71-32.55c0.19-2.27,0.43-4.54,0.77-6.79
		c0.75-5.11,6.62-8.82,11.41-7.17c0.69,0.24,1.13,1.17,1.69,1.78c-0.63,0.5-1.18,1.22-1.9,1.46c-0.81,0.27-1.76,0.08-2.64,0.14
		c-2.74,0.17-4.08,1.48-4.35,4.23c-0.05,0.5-0.02,1.01-0.03,1.52c-0.09,19.48-0.16,38.96-0.27,58.44c-0.01,1.55-0.27,3.11-0.41,4.66
		c-0.29,0.06-0.58,0.12-0.87,0.18c-0.84-1.35-1.82-2.63-2.5-4.05C584.97,360.54,584.01,353.23,584.66,345.63z M592.23,372.7
		c-0.1,0.06-0.19,0.17-0.29,0.17c-0.09,0-0.17-0.13-0.26-0.2c0.09-0.06,0.19-0.18,0.28-0.17
		C592.06,372.51,592.14,372.63,592.23,372.7z M572.75,464.43c-1.94,2.73-2.65,5.67-2.37,8.97c0.11,1.31-0.08,2.64-0.14,3.96
		c-3.03-3.68-4.67-7.48-2.27-11.84c0.91-1.66,2-3.23,3.07-4.79c3.58-5.23,7.2-10.43,10.76-15.67c2.35-3.47,3.33-7.33,3.25-11.52
		c-0.08-4.31-0.04-8.63,0.03-12.94c0.1-5.56-1.01-10.83-3.44-15.82c-0.28-0.57-0.51-1.16-0.7-1.76c-0.06-0.19,0.08-0.45,0.19-0.92
		c3.02,0.72,4.77,2.78,5.52,5.53c2.38,8.76,3.21,17.62,1.31,26.61c-0.39,1.86-0.85,3.77-0.78,5.64c0.1,2.99-1.04,5.37-2.69,7.71
		C580.54,453.16,576.71,458.84,572.75,464.43z M584.93,506.31c-1.06,0.23-2.28-1.15-1.89-2.11c0.22-0.54,0.96-0.87,1.91-1.65
		c0.63,1.01,1.29,1.7,1.43,2.48C586.43,505.38,585.51,506.18,584.93,506.31z M586.44,464.98c-0.78-0.3-1.3-1.25-1.93-1.93
		c0.57-0.37,1.18-1.11,1.69-1.04c0.82,0.11,1.56,0.74,3.06,1.53C587.77,464.34,586.91,465.16,586.44,464.98z M591.6,506.97
		c-0.28-0.16-0.57-0.33-0.85-0.49c-0.23-0.47-0.75-1.06-0.61-1.39c0.16-0.39,0.86-0.7,1.35-0.74c0.23-0.02,0.76,0.67,0.75,1.01
		C592.21,505.9,591.83,506.43,591.6,506.97z M590.85,493.54c-0.44-0.66-1.17-1.28-1.27-1.99c-0.2-1.44,1.05-2.89,2.08-2.53
		c0.67,0.23,1.12,1.09,2.04,2.04C592.56,492.05,591.71,492.79,590.85,493.54z M598.08,522.34c-0.09,2.04-1.2,3.56-2.41,3.24
		c-1.78-0.47-1.55-2.06-1.68-3.42c0.1-0.61,0.02-1.36,0.34-1.83c0.45-0.65,1.23-1.54,1.82-1.51c0.6,0.03,1.26,0.99,1.67,1.68
		C598.12,520.99,598.11,521.72,598.08,522.34z M614.15,530.36c-0.79-0.15-1.39-1.35-2.35-2.36c0.9-1.09,1.5-2.45,2.18-2.49
		c1.45-0.09,2.07,1.22,2.06,2.61C616.04,529.37,615.51,530.61,614.15,530.36z M615.14,512.75c-0.83,0.19-1.88,0.24-2.61-0.11
		c-2.36-1.14-4.41-0.86-6.47,1.69c-0.59-1.67-1.11-2.67-1.29-3.71c-0.45-2.63-1.97-4.28-4.32-5.36c-1.44-0.66-3.12-1.08-3.79-3.35
		c3.78-0.78,6.63-0.27,8.7,2.86c1.72,2.61,4.5,3.58,7.39,4.27c0.98,0.24,2.03,0.32,2.89,0.78c0.54,0.29,1.14,1.18,1.07,1.72
		C616.64,512.02,615.76,512.62,615.14,512.75z M612.72,504.07c0.13,0.27-0.25,1.02-0.58,1.21c-0.33,0.19-1.07,0.12-1.34-0.14
		c-1.88-1.82-1.94-4.33-1.86-6.63c0.07-1.84,1.47-3.1,4.08-3.11c0.06,1.06,0.32,1.85,0.1,2.48
		C612.43,499.92,611.68,501.89,612.72,504.07z M605.82,493.72c-0.72,0-1.45-0.23-2.1-0.34c-0.09-0.3-0.19-0.45-0.15-0.54
		c2.7-6.26-0.1-11.78-2.34-17.37c-0.47-1.17-1.18-2.27-1.53-3.47c-0.24-0.83-0.05-1.78-0.05-2.68c0.28-0.1,0.57-0.2,0.85-0.31
		c0.62,0.67,1.41,1.25,1.84,2.02c1.08,2,2.19,4.03,2.95,6.16c1.23,3.45,2.22,6.99,3.27,10.51c0.25,0.84,0.46,1.73,0.52,2.6
		C609.25,492.95,608.51,493.72,605.82,493.72z M607.08,500.61c-0.31,0.33-0.54,0.58-0.76,0.83c-0.3-0.29-0.59-0.58-0.89-0.87
		c0.26-0.23,0.51-0.63,0.79-0.65C606.46,499.91,606.73,500.31,607.08,500.61z M601.91,486.03c0.04,0.04-0.23,0.53-0.3,0.51
		c-0.3-0.06-0.58-0.23-0.89-0.36c0.18-0.31,0.29-0.51,0.4-0.71C601.39,485.66,601.68,485.81,601.91,486.03z M618.75,471.4
		c-0.58-6.18-1.15-12.37-1.63-18.56c-0.34-4.42-0.39-8.87-0.82-13.28c-0.82-8.33-1.88-16.63-2.73-24.96
		c-0.47-4.54-0.81-9.1-1.04-13.66c-0.16-3.23-0.91-6.19-2.37-9.11c-1.06-2.11-1.68-4.49-2.17-6.82c-0.89-4.25-1.88-5.44-6.06-6.11
		c-1.49-0.24-3.04-0.15-4.55-0.25c-0.88-0.06-1.84-0.02-2.61-0.37c-0.58-0.26-1.15-1.01-1.29-1.64c-0.09-0.4,0.48-1.17,0.95-1.45
		c1.76-1.04,3.6-1.71,5.77-1.32c1.98,0.36,4.02,0.48,6.04,0.49c3.49,0.01,4.64-1.08,4.67-4.47c0.03-3.42-0.2-6.85-0.18-10.27
		c0.02-2.99,0.22-5.98,0.37-9.7c3.41,2.14,3.86,4.75,3.71,7.2c-0.45,7.01,0.22,13.9,1.15,20.84c0.86,6.4,1.13,12.88,1.57,19.33
		c0.72,10.51,1.01,21.05,2.15,31.51c0.88,8.08,1.04,16.18,1.72,24.25c0.53,6.31,1.58,12.58,1.22,18.94
		c-0.08,1.32-0.35,2.63-0.68,4.93c-1.32-1.3-2.17-1.82-2.54-2.58C618.97,473.47,618.84,472.4,618.75,471.4z M618.9,538.38
		c1.14-2.86,1.16-2.86,3.88-2.19C622.1,538.16,620.91,538.98,618.9,538.38z M621.59,510.37c-0.51-0.04-1.41-0.98-1.34-1.37
		c0.17-0.95,0.8-1.82,1.58-3.38c0.92,1.31,1.66,1.91,1.74,2.59C623.73,509.5,622.94,510.46,621.59,510.37z M626.92,333.15
		c-1.89,1.82-3.78,1.71-4.85-0.67c-1.23-2.73-1.98-5.67-2.86-8.3c0.52-1.5,0.63-2.79,1.32-3.55c0.78-0.84,2.09-1.64,3.15-1.62
		c0.74,0.02,1.78,1.34,2.1,2.28c0.9,2.62,1.51,5.35,2.22,8.04C628.39,330.81,628.02,332.09,626.92,333.15z M639.6,455.63
		c0.26,7.2,0.56,14.4,0.8,21.59c0.04,1.24-0.1,2.48-0.15,3.72c-0.28,0.02-0.56,0.05-0.84,0.07c-1.82-2.95-2.3-6.35-2.46-9.68
		c-0.66-13.66-1.05-27.34-1.67-41.01c-0.17-3.77-0.9-7.52-1.25-11.29c-0.38-4.15-0.56-8.33-0.94-12.48
		c-1.2-13.24-2.46-26.48-3.68-39.72c-0.13-1.39-0.31-2.81-0.1-4.17c0.13-0.83,0.79-1.97,1.5-2.25c1.35-0.54,2.07,0.65,2.42,1.77
		c0.41,1.33,0.74,2.7,0.86,4.08c0.85,9.46,1.62,18.92,2.47,28.38c0.16,1.75,0.7,3.47,0.84,5.23c0.29,3.65,0.5,7.31,0.63,10.96
		C638.57,425.77,639.07,440.7,639.6,455.63z"/>
	<path class="st0" d="M609.51,917.38c-1.84,0.38-3.73,0.52-5.61,0.74c-1.25,0.15-2.51,0.25-3.76,0.4c-2.87,0.36-5.74,0.75-8.61,1.11
		c-1.13,0.14-2.27,0.19-3.39,0.36c-2.48,0.37-4.94,0.86-7.43,1.16c-4.88,0.61-9.77,1.12-14.65,1.69c-0.49,0.06-1,0.24-1.44,0.47
		c-2.54,1.3-4.76,0.62-6.5-1.36c-2.03-2.3-4.47-2.6-7.25-2.15c-3.08,0.49-6.2,1.33-9.28,1.24c-4.42-0.13-8.42,1.48-12.63,2.21
		c-4.36,0.76-8.7,1.48-13.56,0.52c0.36-0.97,0.43-2.04,0.96-2.4c2.45-1.63,4.7-3.77,7.95-3.7c0.93-2.65,3.31-3.52,5.62-4.48
		c2.5-1.04,4.16-2.75,4.31-5.61c0.43-8.24,1.12-16.47,1.24-24.71c0.12-8.48,0.29-16.96-0.33-25.47c-0.65-8.84-0.33-17.76-0.16-26.65
		c0.32-17.39,0.95-34.77,1.23-52.15c0.25-15.23,0.17-30.47,0.32-45.7c0.04-3.92,0.65-7.84,0.56-11.75
		c-0.17-7.46,0.43-14.93-0.78-22.39c-1.01-6.23-1.04-12.64-2.25-18.82c-1.56-7.94-1.97-16.02-3.73-23.94
		c-1.61-7.25-2.23-14.73-3.24-22.11c-1.48-10.92-3-21.84-4.33-32.77c-0.75-6.16-1.19-12.35-1.69-18.54c-0.08-1,0.27-2.03,0.42-3.05
		c0.31,0.01,0.62,0.02,0.93,0.03c2.76,10.91,3.76,22.12,5.23,33.26c1.48,11.18,3.15,22.34,4.74,33.5c0.33-0.66,0.33-1.28,0.33-1.91
		c0.05-33.25,0.18-66.5,0.13-99.76c-0.08-45.7-0.34-91.41-0.4-137.11c-0.01-4.53,0.67-9.08,1.24-13.6c0.37-2.9,0.08-3.98-2.61-5.02
		c-1.88-0.72-3.9-1.07-5.84-1.61c-4.23-1.17-4.77-2.06-3.71-6.2c2.01-7.86,4.06-15.71,6.06-23.57c4.29-16.82,9.06-33.55,10.7-50.93
		c0.74-7.86,0.61-15.72-1.13-23.47c-0.62-2.75-1.39-3.22-3.97-2.4c-1.05,0.33-2,0.99-2.94,1.59c-1.06,0.68-1.98,1.59-3.08,2.19
		c-5.13,2.79-10.31,5.47-15.43,8.26c-2.89,1.58-5.7,3.3-8.56,4.95c-1.7,0.98-2.35,2.39-2.37,4.39c-0.08,9.01-0.37,18.02-0.47,27.03
		c-0.19,16.5-0.27,33.01-0.44,49.51c-0.15,14.34-0.56,28.68-0.5,43.02c0.03,8.54-1.04,7.6-6.55,9.38c-3.17,1.02-3.55,1.63-3.28,4.97
		c0.07,0.88,0.33,1.75,0.41,2.63c0.39,4.03,1.11,8.07,1.04,12.1c-0.26,16.87,0.29,33.73-0.6,50.61
		c-0.75,14.18-0.17,28.43-0.25,42.65c-0.14,24.88-0.33,49.76-0.51,74.64c-0.01,1.04-0.24,2.08-0.38,3.24
		c-1.39-0.44-2.29-0.73-3.68-1.17c0.07,22.38-0.94,44.35-0.17,66.36c0.81-2.94,0.96-6.06,3.62-8.26c0.61,3.17,1.01,6.28,0.99,9.39
		c-0.07,12.18-0.53,24.37-0.38,36.54c0.29,24.49,0.94,48.98,1.31,73.48c0.2,12.95,0.09,25.9,0.19,38.85
		c0.13,17.9,0.26,35.79,0.52,53.69c0.07,4.54,0.77,9.06,0.94,13.6c0.54,13.8-0.16,27.64,1.57,41.41c0.88,7.03,1.16,14.15,2.11,21.17
		c0.36,2.68,1.73,5.27,2.89,7.79c0.32,0.7,1.57,1.41,2.36,1.36c1.6-0.09,3.3-0.42,4.74-1.12c4.36-2.11,9.11-1.84,13.69-2.53
		c3.87-0.58,7.8-0.78,11.7-1.21c1.62-0.18,3.23-0.51,4.84-0.81c1.83-0.34,3.65-0.88,5.49-1.05c2.39-0.22,5.04,0.43,7.16-0.38
		c3.37-1.29,6.7-1.07,10.1-1.17c3.91-0.11,7.82-0.17,11.72-0.43c3.52-0.23,7.03-0.71,10.54-1.06c0.88-0.09,1.78-0.07,2.65-0.19
		c4.62-0.67,9.24-1.92,13.86-1.91c5.62,0.01,9.89-2.16,14.01-5.6c3.2-2.67,4.54-5.83,4.66-9.88c0.09-2.89,0.84-5.75,1.04-8.64
		c0.37-5.43,0.87-10.89,0.72-16.32C618.32,919.38,613.79,916.5,609.51,917.38z M515.93,412.84c0.08-1.98,0.44-3.95,0.67-5.92
		c0.43-0.05,0.87-0.09,1.3-0.14c0.42,1.22,1.17,2.43,1.21,3.66c0.12,4.16,0.07,8.34-0.11,12.5c-0.04,0.98-0.85,1.92-1.28,2.82
		c-1.96-0.43-1.97-1.59-1.96-2.74C515.79,419.63,515.78,416.23,515.93,412.84z"/>
	<path class="st0" d="M524.38,917.67c-0.02,0-0.05,0-0.07,0c-0.01,0.04-0.04,0.08-0.05,0.12L524.38,917.67z"/>
	<path class="st0" d="M429.91,474.53"/>
	<path class="st0" d="M430.03,474.48"/>
	<path class="st1" d="M444.32,713.79c0.84-1.91,1.59-3.05,1.84-4.29c0.85-4.21,1.16-8.55,2.34-12.66
		c2.29-8.01,0.67-15.46-2.43-22.81c-0.42-0.99-0.89-1.95-1.47-3.21c-2.15,1.62-2.38,3.64-2.65,5.58
		c-0.76,5.38-1.42,10.77-2.17,16.15c-0.33,2.34-0.24,4.55,1.32,6.48c0.92,1.13,0.87,2.16,0.18,3.46c-0.55,1.03-1.09,2.52-0.74,3.49
		C441.38,708.41,442.75,710.65,444.32,713.79z"/>
	<path class="st1" d="M431.54,733.51c1.72,4,4.63,6.58,8.96,7.47C438.72,737.04,435.87,734.38,431.54,733.51z"/>
	<path class="st1" d="M446.51,663.91c1.49-0.23,2.18-1.4,1.78-2.82c-0.5-1.77-1.09-3.59-3.27-4.98c-0.18,2.13-0.43,3.86-0.42,5.58
		C444.6,662.83,444.94,664.16,446.51,663.91z"/>
	<path class="st1" d="M424.54,575.22c-0.04,0.34-0.09,0.68-0.13,1.03c0.55,0.46,1.06,0.98,1.66,1.37c0.89,0.58,2.01,0.96,2.6-0.2
		c0.67-1.34-0.46-2.15-1.52-2.45C426.37,574.74,425.41,575.12,424.54,575.22z"/>
	<path class="st1" d="M440.15,597.9c-1.42-4.41-4.29-6.39-6.78-4.77C434.94,595.46,436.54,597.65,440.15,597.9z"/>
	<path class="st1" d="M415.41,570.31c3.05,0.74,6.15,1.25,9.26,1.71c1.74,0.26,2.47-0.87,2.7-2.44c0.23-1.56,0.48-3.11,0.73-4.66
		c-0.09-0.08-0.11-0.42-0.19-0.61l-0.11-0.14c-1.09-0.14-1.84-0.81-2.63-1.66c-1.68-1.78-2.66-1.85-4.62-0.48
		c-2.55,1.79-4.98,3.74-7.92,5.97C413.82,569.03,414.51,570.09,415.41,570.31z"/>
	<path class="st1" d="M428.14,564.61c-0.02,0.1-0.03,0.21-0.05,0.31c0.02,0.01,0.03,0.05,0.05,0.05
		c0.44-0.1,21.49-11.57,21.91-11.74c-0.14-0.29-0.27-0.59-0.41-0.88c-0.41,0.2-0.85,0.36-1.22,0.62l-20.64,11.2
		c0.05,0.02,0.09,0.07,0.11,0.14L428.14,564.61z"/>
	<path class="st1" d="M417.2,623.14c0.37-0.06,0.74-0.17,1.11-0.26c3.57-0.94,4.53-2.15,3.82-5.7c-0.66-3.36-0.26-6.25,2.22-8.77
		c0.59-0.6,0.88-1.51,1.27-2.29c1.05-2.07,2.04-2.44,3.78-1.01c0.89,0.74,1.73,1.96,1.9,3.07c0.5,3.37,0.84,6.79,0.88,10.2
		c0.02,1.82-0.64,3.66-1.09,5.47c-0.43,1.71-1.08,3.37-1.49,5.09c-0.41,1.7,0.32,2.97,1.88,3.73c1.67,0.81,2.78-0.32,3.52-1.43
		c2-3,3.14-6.31,2.76-10c-0.04-0.37-0.12-0.81-0.34-1.07c-2.7-3.02-2.65-6.76-2.6-10.42c0.05-3.56-1.82-5.93-4.36-7.97
		c-0.77-0.62-1.71-1.04-2.75-1.65c1.13-3.7,2.23-7.31,3.32-10.93c0.25-0.84,0.76-1.79,0.57-2.54c-0.28-1.12-0.83-2.54-1.72-3.07
		c-1.38-0.82-2.28,0.56-2.91,1.66c-0.75,1.32-1.34,2.73-2.02,4.09c-1.6,3.18-1.65,3.12-5.26,2.59c-1.23-0.18-2.55,0.21-3.83,0.34
		c-0.02,0.29-0.05,0.58-0.07,0.87c1.8,0.74,3.59,1.48,5.78,2.38c-0.49,1.66-0.83,3.22-1.42,4.69c-2.38,6-4.92,11.94-7.23,17.97
		C411.35,622.28,412.8,623.85,417.2,623.14z"/>
	<path class="st1" d="M433.39,572.75c0.44,0.19,1.03,0.64,1.26,0.5c2.33-1.36,4.6-2.82,7.42-4.59
		C438.67,566.86,435.74,568.52,433.39,572.75z"/>
	<path class="st1" d="M441.58,613.24c0.79-2.84,1.31-5.69,0.25-8.5c-0.12-0.31-0.78-0.41-1.71-0.85
		C440.19,607.37,439.71,610.41,441.58,613.24z"/>
	<path class="st1" d="M445.16,767.01c-0.2,1.15,0.33,1.6,1.44,1.47C446.83,767.31,446.28,766.88,445.16,767.01z"/>
	<path class="st1" d="M439.81,758.61c-9.98-6.59-19.31-13.97-27.46-22.77c-1.38-1.49-2.88-2.86-4.3-4.31
		c-1.15-1.17-2.42-1.77-4.04-1.12c-0.21,2.1,1.45,3.1,2.69,4.25c6.74,6.28,13.54,12.51,20.33,18.75c0.56,0.51,1.18,0.96,1.75,1.47
		c3.81,3.34,7.61,6.68,11.42,10.02c1.41,1.23,2.75,2.62,4.89,2.06C443.9,763.81,442.83,760.61,439.81,758.61z"/>
	<path class="st1" d="M447.77,769.64c0.11-0.19,0.22-0.38,0.33-0.58c-0.43-0.14-0.85-0.28-1.28-0.43
		C447.14,768.97,447.45,769.3,447.77,769.64z"/>
	<path class="st1" d="M410.15,716.76c1.18,3.41,2.34,4.28,5.94,4.45C414.91,717.82,413.71,716.92,410.15,716.76z"/>
	<path class="st1" d="M457.75,754.86c-0.32-0.34-1.18-0.15-1.79-0.21c0.04-1.09-0.45-1.62-1.57-1.49c0.06-1.12-0.43-1.66-1.59-1.49
		c-0.09-0.47-0.06-1.01-0.29-1.4c-2.42-4.11-6.4-6.53-10.14-9.2c-0.37-0.26-1.09-0.03-1.69,0.01c0.33,0.75,0.57,1.56,1.02,2.22
		c2.72,4.03,6.76,6.39,11,8.46c-0.12,1.1,0.4,1.6,1.48,1.58c-0.31,1.29,0.2,1.8,1.48,1.58c0.71,1.54,1.81,3.03,2.03,4.64
		c0.38,2.78,2.34,4.1,4.26,5.45c0.64,0.45,1.82,0.14,2.75,0.18c-0.05-0.93,0.25-2.14-0.23-2.74
		C462.37,759.82,460.07,757.32,457.75,754.86z"/>
	<path class="st1" d="M431.34,733.35c-1.18-3.62-3.56-5.73-7.45-5.96C425.27,731.31,427.45,733.05,431.34,733.35z"/>
	<path class="st1" d="M427.79,606.31c-1.79,2.62-1.53,3.72,1.63,6.11C431.01,608.7,430.77,607.91,427.79,606.31z"/>
	<path class="st1" d="M412.64,650.55c2.24,1.44,3.5,0.9,3.79-1.84c0.28-2.63,0.34-5.28,0.4-7.93c0.02-0.86-0.01-1.93-0.48-2.56
		c-1.54-2.08-2.54-4.19-2.27-6.89c0.06-0.56-0.99-1.7-1.59-1.74c-0.84-0.06-1.99,0.45-2.52,1.11c-0.57,0.71-0.74,1.86-0.8,2.83
		c-0.12,1.76-0.03,3.53-0.03,4.95c0.2,2.74,0.41,5.12,0.54,7.51C409.79,648.1,410.98,649.47,412.64,650.55z"/>
	<path class="st1" d="M416.23,721.31c1.13,3.72,3.53,5.84,7.5,5.97C422.52,723.65,420.13,721.53,416.23,721.31z"/>
	<path class="st1" d="M405.42,624.56c0.27,0.7,1.45,1.04,2.21,1.54c0.38-0.73,1.17-1.52,1.07-2.18c-0.34-2.3-0.71-4.66-2.73-6.97
		C404.29,619.72,404.49,622.19,405.42,624.56z"/>
	<path class="st0" d="M427.79,564.16l0.11,0.14C427.88,564.24,427.84,564.18,427.79,564.16z"/>
	<path class="st1" d="M446.51,663.91c1.49-0.23,2.18-1.4,1.78-2.82c-0.5-1.77-1.09-3.59-3.27-4.98c-0.18,2.13-0.43,3.86-0.42,5.58
		C444.6,662.83,444.94,664.16,446.51,663.91z"/>
	<path class="st1" d="M431.54,733.51c1.72,4,4.63,6.58,8.96,7.47C438.72,737.04,435.87,734.38,431.54,733.51z"/>
	<path class="st1" d="M417.2,623.14c0.37-0.06,0.74-0.17,1.11-0.26c3.57-0.94,4.53-2.15,3.82-5.7c-0.66-3.36-0.26-6.25,2.22-8.77
		c0.59-0.6,0.88-1.51,1.27-2.29c1.05-2.07,2.04-2.44,3.78-1.01c0.89,0.74,1.73,1.96,1.9,3.07c0.5,3.37,0.84,6.79,0.88,10.2
		c0.02,1.82-0.64,3.66-1.09,5.47c-0.43,1.71-1.08,3.37-1.49,5.09c-0.41,1.7,0.32,2.97,1.88,3.73c1.67,0.81,2.78-0.32,3.52-1.43
		c2-3,3.14-6.31,2.76-10c-0.04-0.37-0.12-0.81-0.34-1.07c-2.7-3.02-2.65-6.76-2.6-10.42c0.05-3.56-1.82-5.93-4.36-7.97
		c-0.77-0.62-1.71-1.04-2.75-1.65c1.13-3.7,2.23-7.31,3.32-10.93c0.25-0.84,0.76-1.79,0.57-2.54c-0.28-1.12-0.83-2.54-1.72-3.07
		c-1.38-0.82-2.28,0.56-2.91,1.66c-0.75,1.32-1.34,2.73-2.02,4.09c-1.6,3.18-1.65,3.12-5.26,2.59c-1.23-0.18-2.55,0.21-3.83,0.34
		c-0.02,0.29-0.05,0.58-0.07,0.87c1.8,0.74,3.59,1.48,5.78,2.38c-0.49,1.66-0.83,3.22-1.42,4.69c-2.38,6-4.92,11.94-7.23,17.97
		C411.35,622.28,412.8,623.85,417.2,623.14z"/>
	<path class="st1" d="M424.54,575.22c-0.04,0.34-0.09,0.68-0.13,1.03c0.55,0.46,1.06,0.98,1.66,1.37c0.89,0.58,2.01,0.96,2.6-0.2
		c0.67-1.34-0.46-2.15-1.52-2.45C426.37,574.74,425.41,575.12,424.54,575.22z"/>
	<path class="st1" d="M444.32,713.79c0.84-1.91,1.59-3.05,1.84-4.29c0.85-4.21,1.16-8.55,2.34-12.66
		c2.29-8.01,0.67-15.46-2.43-22.81c-0.42-0.99-0.89-1.95-1.47-3.21c-2.15,1.62-2.38,3.64-2.65,5.58
		c-0.76,5.38-1.42,10.77-2.17,16.15c-0.33,2.34-0.24,4.55,1.32,6.48c0.92,1.13,0.87,2.16,0.18,3.46c-0.55,1.03-1.09,2.52-0.74,3.49
		C441.38,708.41,442.75,710.65,444.32,713.79z"/>
	<path class="st1" d="M431.34,733.35c-1.18-3.62-3.56-5.73-7.45-5.96C425.27,731.31,427.45,733.05,431.34,733.35z"/>
	<path class="st1" d="M415.41,570.31c3.05,0.74,6.15,1.25,9.26,1.71c1.74,0.26,2.47-0.87,2.7-2.44c0.23-1.56,0.48-3.11,0.73-4.66
		c0.02,0.01,0.03,0.05,0.05,0.05c0.44-0.1,21.49-11.57,21.91-11.74c-0.14-0.29-0.27-0.59-0.41-0.88c-0.41,0.2-0.85,0.36-1.22,0.62
		l-20.64,11.2c-1.09-0.14-1.84-0.81-2.63-1.66c-1.68-1.78-2.66-1.85-4.62-0.48c-2.55,1.79-4.98,3.74-7.92,5.97
		C413.82,569.03,414.51,570.09,415.41,570.31z"/>
	<path class="st1" d="M433.39,572.75c0.44,0.19,1.03,0.64,1.26,0.5c2.33-1.36,4.6-2.82,7.42-4.59
		C438.67,566.86,435.74,568.52,433.39,572.75z"/>
	<path class="st1" d="M440.15,597.9c-1.42-4.41-4.29-6.39-6.78-4.77C434.94,595.46,436.54,597.65,440.15,597.9z"/>
	<path class="st1" d="M441.58,613.24c0.79-2.84,1.31-5.69,0.25-8.5c-0.12-0.31-0.78-0.41-1.71-0.85
		C440.19,607.37,439.71,610.41,441.58,613.24z"/>
	<path class="st1" d="M457.75,754.86c-0.32-0.34-1.18-0.15-1.79-0.21c0.04-1.09-0.45-1.62-1.57-1.49c0.06-1.12-0.43-1.66-1.59-1.49
		c-0.09-0.47-0.06-1.01-0.29-1.4c-2.42-4.11-6.4-6.53-10.14-9.2c-0.37-0.26-1.09-0.03-1.69,0.01c0.33,0.75,0.57,1.56,1.02,2.22
		c2.72,4.03,6.76,6.39,11,8.46c-0.12,1.1,0.4,1.6,1.48,1.58c-0.31,1.29,0.2,1.8,1.48,1.58c0.71,1.54,1.81,3.03,2.03,4.64
		c0.38,2.78,2.34,4.1,4.26,5.45c0.64,0.45,1.82,0.14,2.75,0.18c-0.05-0.93,0.25-2.14-0.23-2.74
		C462.37,759.82,460.07,757.32,457.75,754.86z"/>
	<path class="st1" d="M447.77,769.64c0.11-0.19,0.22-0.38,0.33-0.58c-0.43-0.14-0.85-0.28-1.28-0.43
		C447.14,768.97,447.45,769.3,447.77,769.64z"/>
	<path class="st1" d="M445.16,767.01c-0.2,1.15,0.33,1.6,1.44,1.47C446.83,767.31,446.28,766.88,445.16,767.01z"/>
	<path class="st1" d="M427.79,606.31c-1.79,2.62-1.53,3.72,1.63,6.11C431.01,608.7,430.77,607.91,427.79,606.31z"/>
	<path class="st1" d="M439.81,758.61c-9.98-6.59-19.31-13.97-27.46-22.77c-1.38-1.49-2.88-2.86-4.3-4.31
		c-1.15-1.17-2.59,1.98-1.36,3.13c6.74,6.28,13.54,12.51,20.33,18.75c0.56,0.51,1.18,0.96,1.75,1.47
		c3.81,3.34,7.61,6.68,11.42,10.02c1.41,1.23,2.75,2.62,4.89,2.06C443.9,763.81,442.83,760.61,439.81,758.61z"/>
	<path class="st1" d="M405.42,624.56c0.27,0.7,1.45,1.04,2.21,1.54c0.38-0.73,1.17-1.52,1.07-2.18c-0.34-2.3-0.71-4.66-2.73-6.97
		C404.29,619.72,404.49,622.19,405.42,624.56z"/>
	<path class="st1" d="M416.23,721.31c1.13,3.72,3.53,5.84,7.5,5.97C422.52,723.65,420.13,721.53,416.23,721.31z"/>
	<path class="st1" d="M412.64,650.55c2.24,1.44,3.5,0.9,3.79-1.84c0.28-2.63,0.34-5.28,0.4-7.93c0.02-0.86-0.01-1.93-0.48-2.56
		c-1.54-2.08-2.54-4.19-2.27-6.89c0.06-0.56-0.99-1.7-1.59-1.74c-0.84-0.06-1.99,0.45-2.52,1.11c-0.57,0.71-0.74,1.86-0.8,2.83
		c-0.12,1.76-0.03,3.53-0.03,4.95c0.2,2.74,0.41,5.12,0.54,7.51C409.79,648.1,410.98,649.47,412.64,650.55z"/>
	<path class="st1" d="M410.15,716.76c1.18,3.41,2.34,4.28,5.94,4.45C414.91,717.82,413.71,716.92,410.15,716.76z"/>
	<path class="st0" d="M454.86,756.97c-2.76,0.26-52.23-44.66-54.62-44.62c-0.3,1.16-0.49,2.14-0.81,3.07
		c-1.59,4.59-0.97,8.66,2.69,12.09c0,0,43.29,37.2,43.39,38.5s-0.54,2.61-1.97,2.22s-43.23-39.53-44.79-39.68
		c-0.2,4.92-0.4,9.58-0.56,14.24c-0.25,7.35-0.6,14.7-0.66,22.06c-0.04,5.33-1.74,10.91,1.94,15.83c0.42,0.56,0.37,1.46,0.53,2.2
		c0.6,2.72,1.07,5.47,1.83,8.14c3.28,11.42,6.65,22.81,9.99,34.21c1.04,3.53,3.65,4.68,7.24,3.55c3.43-1.09,6.93-1.99,10.44-2.75
		c5.13-1.11,10.35-1.85,15.45-3.08c5.37-1.29,10.68-2.89,15.95-4.56c1.33-0.42,3.03-1.07,3.12-2.94c0.09-1.89,0.43-3.96-0.16-5.65
		c-0.9-2.56-0.7-5-0.33-7.49c0.63-4.13,1.62-8.21,2.08-12.35c0.89-8.06,1.48-16.15,2.26-24.22c0.72-7.56,1.62-15.1,2.26-22.67
		c0.63-7.44,1.12-14.9,1.5-22.35c0.34-6.71,0.3-13.44,0.72-20.15c0.19-2.98,0.77-6.05,1.81-8.84c1.57-4.2,2.64-8.38,2.72-12.9
		c0.23-14.21,0.64-28.42,1.01-42.63c0.12-4.82,0.38-9.63,0.49-14.45c0.08-3.66-0.92-6.95-3.15-9.96c-0.83-1.12-1.33-2.74-1.37-4.15
		c-0.27-8.75-0.31-17.51-0.54-26.26c-0.19-7.1-0.57-14.2-0.83-21.29c-0.12-3.3-0.24-6.6-0.16-9.89c0.05-2.14,1.49-3.46,3.29-3.44
		c1.59,0.02,2.45,1.14,2.49,3.57c0.05,3.17,0,6.35-0.06,9.52c-0.2,10.28-0.44,20.55-0.64,30.83c-0.02,1.2,0.13,2.4,0.2,3.6
		c0.26,0.01,0.52,0.02,0.78,0.04c1.04-3.72,2.24-7.46,2.27-11.35c0.12-14.72,0.08-29.45,0.02-44.17c-0.01-1.42-0.51-2.83-0.79-4.25
		c-0.37-0.19-0.75-0.38-1.12-0.57c-0.26,0.59-0.39,1.28-0.8,1.73c-0.37,0.41-1.04,0.54-1.5,0.77c-2.95-3-2.98-3.31-0.84-6.47
		c0.91-1.35,2.04-2.72,0.19-4.24c-0.46,0.15-0.81,0.26-1.16,0.37c-3.22,1.09-4.03,0.62-4.47-2.78c-0.37-2.89-0.59-5.8-0.88-8.7
		c-0.94-9.33-2-18.66-2.75-28.01c-0.3-3.76,0.02-7.57,0.23-11.35c0.19-3.41,1.02-6.83,0.86-10.21c-0.25-5.54-0.99-11.07-1.69-16.58
		c-0.29-2.25-0.89-4.48-1.6-6.64c-0.57-1.76-2.38-2-3.03-0.35c-1.6,4.1-5.22,6.49-7.74,9.77c-6.3,8.19-14.01,15.01-21.42,22.13
		c-0.55,0.53-0.03,0.41-1.62,1.64c-0.98,2.4-1.75,2.91-3.05,4.24c-4.98,5.06-9.77,10.35-15.1,15.02c-4.16,3.65-7.25,7.36-6.24,13.23
		c-1.76,20.61-2.02,41.27-1.78,61.94c0.02,1.44,0.47,2.87,0.72,4.25c1.62-0.09,2.79-0.15,4.56-0.25c-1,2.82-1.77,5.15-2.67,7.44
		c-0.55,1.4-0.98,3.09-2.02,4c-1.59,1.38-1.73,2.97-1.76,4.75c-0.13,7.35-0.25,14.7-0.41,22.05c-0.03,1.51-0.17,3.03-0.34,4.53
		c-0.22,1.99-0.7,3.98-0.74,5.97c-0.11,5.83,0.33,11.7-0.17,17.49c-0.95,11.09,0.1,22.22-1.38,33.34
		c-1.05,7.86-0.37,15.95-0.43,23.94c-0.02,2.41,0.05,4.82,0.1,7.22c0.04,2.02,0.78,3.6,2.56,4.78c2,1.33,54.59,41.32,54.3,44.33
		C456.41,756.37,457.62,756.71,454.86,756.97z M420.54,562.03l2.31,2.81c0.8,0.84,25.58-11.87,25.58-11.87
		c0.37-0.26,0.81-0.42,1.22-0.62c0.14,0.29,0.27,0.59,0.41,0.88c-0.32,0.13-16.64,8.76-24.45,13.34c-2.26,1.33-0.54,5.51-0.94,5.45
		c-3.1-0.46-10.84-2.99-12.04-4.02C415.57,565.77,420.54,562.03,420.54,562.03z M440.13,603.89c0.93,0.45,1.59,0.55,1.71,0.85
		c1.06,2.81,0.54,5.66-0.25,8.5C439.71,610.41,440.19,607.37,440.13,603.89z M434.65,573.25c-0.24,0.14-0.82-0.32-1.26-0.5
		c2.35-4.23,5.28-5.89,8.68-4.09C439.25,570.43,436.98,571.89,434.65,573.25z M440.15,597.9c-3.61-0.25-5.2-2.44-6.78-4.77
		C435.86,591.5,438.72,593.48,440.15,597.9z M441.27,702.49c0.69-1.31,0.74-2.33-0.18-3.46c-1.56-1.92-1.65-4.14-1.32-6.48
		c0.75-5.38,1.41-10.77,2.17-16.15c0.28-1.93,0.5-3.96,2.65-5.58c0.58,1.26,1.06,2.23,1.47,3.21c3.09,7.36,4.72,14.8,2.43,22.81
		c-1.17,4.11-1.49,8.45-2.34,12.66c-0.25,1.24-1,2.37-1.84,4.29c-1.57-3.14-2.94-5.38-3.79-7.81
		C440.18,705.01,440.72,703.52,441.27,702.49z M431.54,733.51 M444.6,661.69c0-1.73,0.25-3.46,0.42-5.58
		c2.19,1.39,2.77,3.21,3.27,4.98c0.4,1.42-0.29,2.59-1.78,2.82C444.94,664.16,444.6,662.83,444.6,661.69z M428.66,577.41
		c-0.58,1.16-1.71,0.78-2.6,0.2c-0.6-0.39-1.11-0.91-1.66-1.37c0.04-0.34,0.09-0.68,0.13-1.03c0.87-0.11,1.83-0.48,2.61-0.26
		C428.2,575.27,429.34,576.08,428.66,577.41z M412.92,618.18c2.31-6.03,4.85-11.97,7.23-17.97c0.58-1.47,0.92-3.04,1.42-4.69
		c-2.19-0.9-3.99-1.64-5.78-2.38c0.02-0.29,0.05-0.58,0.07-0.87c1.28-0.13,2.59-0.52,3.83-0.34c3.6,0.53,3.66,0.59,5.26-2.59
		c0.68-1.36,1.27-2.77,2.02-4.09c0.63-1.1,1.53-2.48,2.91-1.66c0.89,0.53,1.44,1.94,1.72,3.07c0.19,0.75-0.32,1.7-0.57,2.54
		c-1.09,3.62-2.19,7.23-3.32,10.93c1.04,0.62,1.98,1.03,2.75,1.65c2.54,2.04,4.41,4.41,4.36,7.97c-0.05,3.66-0.1,7.4,2.6,10.42
		c0.23,0.26,0.31,0.7,0.34,1.07c0.37,3.69-0.77,7-2.76,10c-0.73,1.1-1.85,2.24-3.52,1.43c-1.56-0.76-2.29-2.03-1.88-3.73
		c0.41-1.72,1.06-3.38,1.49-5.09c0.46-1.81,1.12-3.65,1.09-5.47c-0.04-3.41-0.38-6.82-0.88-10.2c-0.16-1.11-1.01-2.33-1.9-3.07
		c-1.74-1.44-2.73-1.06-3.78,1.01c-0.4,0.78-0.68,1.69-1.27,2.29c-2.48,2.52-2.88,5.41-2.22,8.77c0.7,3.55-0.26,4.75-3.82,5.7
		c-0.37,0.1-0.73,0.2-1.11,0.26C412.8,623.85,411.35,622.28,412.92,618.18z M423.89,727.39 M427.79,606.31
		c2.98,1.6,3.21,2.39,1.63,6.11C426.26,610.03,426,608.92,427.79,606.31z M416.23,721.31 M407.63,626.1
		c-0.76-0.5-1.94-0.84-2.21-1.54c-0.93-2.37-1.13-4.84,0.56-7.62c2.02,2.31,2.38,4.68,2.73,6.97
		C408.8,624.58,408.02,625.37,407.63,626.1z M409.67,645.99c-0.13-2.39-0.34-4.78-0.54-7.51c0-1.42-0.09-3.19,0.03-4.95
		c0.07-0.98,0.23-2.13,0.8-2.83c0.53-0.66,1.69-1.17,2.52-1.11c0.6,0.04,1.65,1.18,1.59,1.74c-0.27,2.7,0.73,4.81,2.27,6.89
		c0.47,0.63,0.5,1.7,0.48,2.56c-0.06,2.64-0.12,5.3-0.4,7.93c-0.29,2.74-1.56,3.29-3.79,1.84
		C410.98,649.47,409.79,648.1,409.67,645.99z M410.15,716.76 M454.18,753.35"/>
	<path class="st0" d="M875.36,451.78c-9.98-4.66-19.87-9.51-29.82-14.25c-1.32-0.63-2.75-1.04-4.45-1.67
		c-0.14,1.43-0.31,2.4-0.32,3.38c-0.08,8.37,0.02,16.74-0.22,25.11c-0.3,10.25-0.87,20.5-1.39,30.74c-0.06,1.16-0.57,2.31-0.98,3.87
		c-1.96-2.16-1.7-4.26-1.7-6.24c0.02-12.06,0.09-24.12,0.18-36.18c0.01-1.13,0.07-2.31,0.38-3.39c1.66-5.9,0.38-11.85,0.3-17.78
		c-0.03-2.17-0.85-2.43-3.95-2.27c-0.14,0.93-0.4,1.91-0.43,2.9c-0.52,14.44-1.03,28.88-1.48,43.32c-0.13,4.31-0.04,8.63-0.1,12.95
		c-0.02,1.19-0.22,2.37-0.37,3.89c-3.19-2.09-1.25-5.39-3.13-7.87c-2.99-0.29-6.24-0.7-9.51-0.88c-3.4-0.19-4.08,0.7-3.43,4.03
		c0.12,0.62,0.31,1.23,0.53,1.82c1.17,3.2,2.45,6.37,3.52,9.61c1.51,4.57,2.83,9.21,4.31,13.79c0.72,2.22,1.65,4.38,2.63,6.95
		c1.59-1.85,2.76-3.21,3.92-4.57c0.31,0.1,0.63,0.2,0.94,0.31c0.04,1.02,0.35,2.13,0.08,3.06c-0.71,2.43-1.55,4.84-2.6,7.14
		c-0.4,0.88-1.53,1.44-2.33,2.14c-0.61-0.73-1.25-1.45-1.82-2.21c-0.22-0.29-0.28-0.7-0.4-1.06c-1.96-6.15-3.76-12.35-5.94-18.42
		c-1.68-4.7-2.43-9.85-6.15-13.69c-0.63-0.65-0.78-1.86-0.93-2.85c-0.34-2.13-0.61-4.27-0.78-6.42c-0.24-3.11-1.11-5.94-2.88-8.54
		c-0.69-1.01-1.42-2.29-1.38-3.43c0.26-8.11-1.16-16.18-0.25-24.3c0.44-3.9,0.53-7.84,0.64-11.77c0.14-5.08-0.06-10.17,0.27-15.23
		c0.25-3.82-1.03-6.21-4.54-7.8c-8.08-3.67-16.06-7.56-24.08-11.36c-0.34-0.16-0.69-0.33-1.05-0.45c-2.47-0.82-3.33-0.3-3.52,2.21
		c-0.09,1.14-0.02,2.28,0.01,3.43c0.11,4.82,0.28,9.64,0.35,14.46c0.1,7.36,0,14.73,0.23,22.09c0.38,11.79,1.02,23.58,1.43,35.38
		c0.24,6.94-0.68,7.93-7.4,8.88c-9.29,1.32-18.46,3.15-27.3,6.39c-1.99,0.73-3.99,1.46-5.89,2.38c-1.14,0.55-2.18,1.49-1.82,3.01
		c0.39,1.63,1.77,2.07,3.2,2.17c0.86,0.06,1.78-0.07,2.61-0.33c3.69-1.19,7.34-2.51,11.04-3.68c2.43-0.77,4.92-1.58,7.97,0.14
		c-1.64,0.9-2.76,1.88-4.03,2.14c-4.82,1-6.99,4.67-9.01,8.52c-1.13,2.16-0.37,3.35,2.14,3.42c1.39,0.04,2.79-0.14,4.18-0.23
		c6.91-0.46,13.6,1.11,20.34,2.25c3.88,0.66,4.95,1.8,4.98,5.74c0.13,14.22,0.14,28.44,0.42,42.65c0.18,8.98-0.01,17.95,0.86,26.96
		c1.15,11.86,1.07,23.83,1.69,35.74c0.44,8.49,1.2,16.96,1.71,25.44c0.57,9.5,1.03,19,1.49,28.51c0.05,1.08,0.17,2.33-1.64,3.05
		c-5.24-7.6-10.37-15.35-15.84-22.84c-5.55-7.61-11.23-15.14-17.59-22.26c-1.47,2.11-1.57,2.17-0.58,3.85
		c3.88,6.53,7.78,13.05,11.76,19.52c4.44,7.22,9.04,14.36,13.46,21.59c3.63,5.93,7.12,11.96,10.66,17.95
		c0.76,1.29,1.71,2.57,0.77,4.12c-1.52,0.69-2.23-0.31-2.88-1.24c-2.55-3.64-5.25-7.19-7.55-10.97
		c-4.44-7.29-9.61-13.96-15.75-19.89c-0.67-0.65-1.53-1.11-2.57-1.85c-1.07,2.17-1.14,3.96-0.43,5.82c0.63,1.66,1.33,3.29,1.87,4.97
		c1.75,5.42,3.54,10.83,5.11,16.31c0.56,1.95,1.12,4.08-0.16,6.39c-1.46-1.6-2.73-2.98-3.99-4.36c-0.43,0.91-0.4,1.41-0.2,1.83
		c3.82,7.99,7.66,15.97,11.48,23.97c0.54,1.14,1.38,2.36,1.32,3.51c-0.19,3.81,0.24,7.69-1.5,11.37c-1.06,2.23-0.23,3.83,2.25,4.1
		c2.85,0.31,4.09,2.19,5.55,4.11c-0.25,0.93-0.55,1.76-0.69,2.63c-0.59,3.67,0.57,5.16,4.33,5.53c1.26,0.12,2.54,0,3.81,0.06
		c2.58,0.13,3.36,0.78,3.87,3.27c0.18,0.86,0.21,1.76,0.24,2.65c0.44,11.41,0.83,22.83,1.32,34.24c0.56,13.06,1.16,26.11,1.83,39.17
		c0.12,2.4,0.21,4.89,1.43,7.31c1.71-1.37,1.68-3,1.84-4.65c0.51-5.4,1.12-10.79,1.71-16.19c0.05-0.49,0.35-0.96,0.43-1.46
		c0.3-1.86,0.77-3.73,0.79-5.6c0.17-17.39,0.26-34.79,0.38-52.18c0.01-1.52,0.04-3.05,0.16-4.56c0.19-2.33,1.22-4.2,3.56-4.91
		c2.24-0.68,3.18-2.29,3.82-4.33c0.33-1.05,0.74-2.28,1.52-2.93c1.17-0.96,1.25-2.05,1.36-3.34c0.26-3.03-1.11-5.56-1.93-8.33
		c-0.89-2.99-2.14-4.96-4.89-6.17c-1.71-0.75-2.4-2.15-2.32-3.99c0.07-1.65,0.03-3.3,0.1-4.95c0.45-10.27,0.93-20.54,1.37-30.81
		c0.36-8.37,0.71-16.74,1.03-25.11c0.69-17.75,1.53-35.5,2.01-53.25c0.51-18.65,0.67-37.32,0.99-55.97c0.01-0.76,0.02-1.53,0.1-2.28
		c0.06-0.63,0.15-1.27,0.37-1.86c0.49-1.3,1.41-1.82,2.68-1.02c2.87,1.82,6.04,3.35,8.47,5.66c2.36,2.24,4.83,3.07,7.86,2.98
		c0.89-0.03,1.78-0.09,2.66-0.06c3.41,0.14,4.58,1.27,4.73,4.6c0.05,1.14-0.05,2.28-0.08,3.43c-0.18,6.22-0.3,12.43-0.54,18.65
		c-0.5,12.79,0.71,25.56,0.02,38.38c-0.69,12.91-0.19,25.89-0.19,38.84c0,1.21,0.15,2.42,0.26,4.08c1.33-0.72,2.26-1.08,3.03-1.66
		c10.69-7.93,21.37-15.89,32.04-23.85c0.61-0.45,1.23-0.91,1.75-1.45c0.51-0.54,1.17-1.15,1.27-1.81c0.58-3.62,1.3-7.25,1.45-10.89
		c0.33-8.12-0.2-16.3,0.62-24.35c1.26-12.37,0.7-24.8,2.34-37.17c1.2-9.12,0.25-18.47,1.51-27.7c0.86-6.26,0.66-12.66,1.04-19
		c0.64-10.75,1.38-21.5,2.05-32.25c0.25-4.05,0.37-8.11,0.61-12.17c0.36-6.07,0.65-12.15,1.22-18.2
		C879.49,454.66,878.11,453.06,875.36,451.78z M809,531.58c-0.34,0.85-1.36,1.42-1.74,1.79c-2.23-0.12-3.06-1.15-2.92-2.89
		c0.09-1.08,0.41-2.05,1.77-1.93C807.4,528.67,809.39,530.61,809,531.58z"/>
	<path class="st0" d="M720.27,949.88c-6.91-10.94-13.44-22.12-20.06-33.24c-0.64-1.07-1.06-2.31-1.38-3.53
		c-4.46-16.65-8.87-33.32-13.34-49.96c-0.29-1.07-0.9-2.07-1.44-3.06c-1.93-3.55-3.9-7.07-5.86-10.61c-0.3-0.54-0.53-1.16-0.97-1.56
		c-2.55-2.35-3.29-5.3-3.03-8.61c0.61-7.59,1.15-15.18,1.87-22.76c0.89-9.33,1.99-18.65,2.88-27.98
		c1.04-10.84,1.95-21.69,2.92-32.54c0.28-3.16,0.77-6.31,0.79-9.47c0.06-9.14-0.05-18.28-0.16-27.42c-0.02-1.77-0.08-3.61-0.55-5.29
		c-1.12-3.99-0.86-8.03-0.95-12.09c-0.1-4.55-0.53-9.1-0.85-13.65c-0.21-2.89-0.57-5.78-0.71-8.67c-0.27-5.44-0.36-10.89-0.65-16.34
		c-0.15-2.77-0.66-5.52-0.83-8.29c-0.35-5.95-0.5-11.91-0.87-17.86c-0.66-10.49-1.53-20.98-2.12-31.48
		c-0.35-6.2-0.35-12.43-0.46-18.64c-0.27-14.34-0.51-28.69-0.77-43.03c-0.28-15.49-0.55-30.97-0.86-46.45
		c-0.21-10.52-0.7-20.97-3.13-31.34c-2.13-9.09-3.18-18.44-4.7-27.67c-0.27-1.62-0.48-3.26-0.72-4.89
		c-0.48-3.22-0.96-6.43-1.43-9.65c-0.33-0.01-0.67-0.01-1-0.02c-0.45,1.31-0.93,2.61-1.35,3.93c-2.11,6.65-4.78,13.18-6.15,19.98
		c-1.89,9.34-1.64,18.88-0.32,28.36c0.91,6.53,1.73,13.08,2.29,19.65c0.46,5.42,0.87,10.89,0.63,16.31
		c-0.75,16.47-2.2,32.92-2.69,49.4c-0.67,22.96-0.62,45.93-1.04,68.89c-0.49,26.91-0.12,53.77,2.32,80.6
		c0.95,10.48,0.93,21.04,1.61,31.55c0.72,11.14,1.74,22.25,2.64,33.38c0.63,7.71,1.28,15.42,1.92,23.13
		c0.17,2.08-0.24,3.91-1.33,5.79c-0.75,1.29-1.09,3.19-0.8,4.65c0.8,4.07,2.04,8.05,3.1,12.07c0.23,0.86,0.48,1.71,0.63,2.58
		c1.28,7.47,2.55,14.95,3.79,22.43c0.56,3.38,0.73,6.85,1.6,10.13c1.63,6.09,3.8,12.04,5.45,18.13c1.15,4.25,1.67,8.52-2.63,11.75
		c-0.83,0.63-1.26,2.13-1.38,3.29c-0.16,1.48,0.1,3.03,0.31,4.53c0.89,6.53,2.21,12.93,4.7,19.09c2.65,6.55,4.67,13.37,7.56,19.81
		c4.08,9.11,8.69,18,14.43,26.21c1.86,2.66,4.02,5.2,6.43,7.37c6.22,5.6,15.34,3.02,20.05-2.15c1.27-1.4,1.5-2.66,1.08-4.46
		C723.85,956.47,722.35,953.17,720.27,949.88z M679.07,866.55c-1.75-1.92-1.08-4.16-0.79-6.28c0.05-0.38,1.04-1.03,1.33-0.91
		c0.73,0.3,1.55,0.85,1.88,1.53C682.36,862.65,681.47,864.6,679.07,866.55z M689.45,887.58c-0.14,0.27-1.03,0.48-1.27,0.3
		c-1.73-1.27-1.18-2.74-0.25-4.47C690.43,884.43,690.31,885.95,689.45,887.58z"/>
	<path class="st0" d="M761.59,318.59c0.15,7.23,0.55,14.46,0.87,21.68c0.71,16.1,1.53,32.19,2.07,48.3c0.12,3.62,1.28,6,4.56,7.54
		c8.72,4.1,17.38,8.31,26.08,12.45c0.75,0.36,1.61,0.5,2.87,0.89c0.5-3.75,1.2-7.2,1.38-10.68c0.51-9.75,0.86-19.52,1.19-29.28
		c0.54-15.86,1.15-31.71,1.47-47.57c0.71-34.41,0.12-68.8-2.08-103.15c-0.7-10.86-2.05-21.71-3.68-32.48
		c-1.72-11.4-4.21-22.67-6.22-34.03c-4.15-23.49-6.88-47.16-9.19-70.89c-1.18-12.11-2.66-24.2-4.04-36.29
		c-0.16-1.43-0.58-2.83-0.88-4.24c-0.34,0.02-0.68,0.04-1.02,0.06c-0.14,1.02-0.42,2.04-0.41,3.06c0.21,17.66-0.98,35.25-2.26,52.85
		c-1.03,14.22-3.13,28.19-7.47,41.82c-3.13,9.83-4.88,19.97-4.85,30.32c0.11,30.08,0.25,60.17,0.55,90.25
		C760.73,278.99,761.17,298.79,761.59,318.59z"/>
	<path class="st0" d="M360.54,747.9c-3.78,2.06-7.66,3.94-11.51,5.88c-3.28,1.66-6.57,3.29-9.85,4.96c-2.8,1.43-4.32,3.6-4.58,6.89
		c-0.84,10.74-0.26,21.51-1.22,32.28c-1.17,13.11-1.02,26.34-1.78,39.5c-0.8,13.79-0.27,27.61-1.45,41.41
		c-1.12,13.11-0.66,26.32-1.61,39.48c-0.98,13.52-1.05,27.1-1.56,40.66c-0.46,12.16-1.14,24.31-1.46,36.48
		c-0.32,11.92-0.33,23.85-0.42,35.78c-0.02,2.03,0.26,4.05,0.32,6.08c0.05,1.7,0.76,2.92,2.32,3.6c2.07,0.9,4.15,1.78,6.25,2.61
		c4.89,1.93,9.91,2.74,15.7,1.73c0.25-2.36,0.51-4.48,0.68-6.62c0.22-2.78,0.33-5.57,0.53-8.35c0.59-8.08,1.24-16.16,1.78-24.25
		c0.62-9.22,1.16-18.45,1.7-27.68c0.56-9.48,1.1-18.96,1.6-28.44c0.49-9.11,0.91-18.23,1.38-27.34c0.54-10.38,1.18-20.75,1.64-31.13
		c0.58-13.16,1-26.33,1.51-39.49c0.05-1.39,0.24-2.78,0.32-4.17c0.59-10.76,1.18-21.52,1.74-32.28c0.1-1.9,0.02-3.81,0.14-5.71
		c0.43-6.94,0.99-13.88,1.35-20.83c0.23-4.43,0.1-8.88,0.31-13.32c0.29-5.94,0.79-11.88,1.12-17.82c0.13-2.28,0.07-4.57,0.06-6.85
		C365.53,746.19,364.59,745.69,360.54,747.9z"/>
	<path class="st0" d="M858.12,652.22c-9.54,7.55-19.07,15.11-28.68,22.57c-1.87,1.46-2.72,3.06-2.72,5.44
		c0,18.14-0.1,36.28-0.15,54.42c-0.03,10.91,0.09,21.82-0.09,32.73c-0.22,13.06-0.67,26.12-1.07,39.17
		c-0.05,1.71,0.45,2.89,1.94,3.79c1.95,1.18,3.84,2.47,5.72,3.77c7.2,4.96,14.38,9.95,21.59,14.9c0.67,0.46,1.53,0.66,2.53,1.08
		c0.3-0.98,0.64-1.66,0.69-2.36c0.48-6.32,1.08-12.63,1.31-18.95c0.66-17.61,1.13-35.23,1.76-52.85c0.35-9.89,0.87-19.77,1.33-29.65
		c0.34-7.35,0.82-14.69,1.05-22.03c0.22-6.96,0.17-13.93,0.27-20.89c0.14-9.9,0.3-19.79,0.45-29.69c0.03-1.74,0-3.48,0-5.22
		c-0.35-0.12-0.71-0.25-1.06-0.37C861.35,649.46,859.78,650.9,858.12,652.22z"/>
	<path class="st0" d="M432.45,469.36c5.06-5.51,10.13-11.02,15.26-16.47c3.98-4.23,8.28-8.19,12.01-12.63
		c3.21-3.82,4.66-6.14,1.36-11.27c-0.69-1.07-1.35-2.15-2-3.24c-1.36-2.31-1.58-4.52,0.53-6.56c1.39-1.35,1.78-3.02,1.47-4.89
		c-0.42-2.56-0.45-5.05,1.36-7.14c-0.28-0.62-0.37-1.19-0.71-1.51c-2.07-2.03-4.12-4.1-6.31-5.99c-4.08-3.51-4.31-5.08-1.01-9.15
		c2.33-2.88,2.59-3.92,0.24-6.64c-2.27-2.63-2.44-4.89-0.66-7.84c1.65-2.73,1.29-4.23-0.98-6.45c-1.72-1.67-3.53-3.35-5.57-4.56
		c-3.81-2.26-6.22-5.38-7.6-9.58c-0.86-2.61-2.31-5.05-3.63-7.49c-0.59-1.08-1.4-2.33-2.95-1.87c-1.51,0.45-1.53,1.83-1.53,3.13
		c0,1.27,0.11,2.56-0.08,3.8c-0.29,1.97-1.74,2.85-4.27,2.85c-2.43-0.01-3.56-0.7-3.71-2.85c-0.16-2.37-0.38-4.91,0.29-7.11
		c0.74-2.44,0.21-4.63,0.34-7.53c-0.85,0.73-1.31,0.96-1.53,1.33c-3.45,5.62-6.94,11.21-10.23,16.92c-0.85,1.48-1.41,3.32-1.5,5.02
		c-0.62,11.88-1.14,23.76-1.58,35.64c-0.34,9.36-0.51,18.73-0.76,28.1c-0.01,0.25-0.03,0.51-0.05,0.76
		c-0.44,10.38-0.83,20.76-1.35,31.13c-0.37,7.34-1.09,14.66-1.33,22.01c-0.17,5.38,0.2,10.79,0.35,17.02
		c1.56-1.45,2.48-2.26,3.33-3.12c5.54-5.58,11.06-11.2,16.62-16.76c0.99-0.99,1.74-2.4,2.88-2.81
		C430.69,471.81,431.14,470.79,432.45,469.36z M433.86,351.45c0.8,0.63,1.6,1.25,2.76,2.15c-0.97,0.87-1.56,1.4-2.15,1.92
		c-0.6-0.68-1.51-1.28-1.7-2.05C432.63,352.92,433.46,352.13,433.86,351.45z"/>
	<path class="st0" d="M228.5,222.85c2.6-0.32,3.5,0.32,3.89,2.9c0.15,1,0.13,2.02,0.13,3.04c0.01,3.81-0.03,7.62,0.01,11.42
		c0.01,1.17-0.29,2.56,1.7,3.51c1.01-4.48,2.12-8.67,2.74-13.01c0.27-1.86,0.64-3.75,1.34-5.48c0.62-1.55,3.19-2.72,4.42-2.36
		c1.69,0.51,1.64,2.08,1.95,3.4c0.14,0.61,0.18,1.26,0.21,1.89c0.28,4.79,0.68,9.58,0.8,14.38c0.32,12.3,0.49,24.61,0.79,36.91
		c0.09,3.51,0.43,7.01,0.7,11.26c1.73-0.85,2.69-1.19,3.49-1.75c4.36-3.06,8.68-6.18,13.02-9.28c4.85-3.47,9.73-6.89,14.54-10.42
		c3.31-2.43,3.91-4.5,2.72-8.21c-0.39-1.2-0.78-2.41-1.05-3.65c-2.74-12.54-5-25.13-4.15-38.06c0.23-3.49-0.25-6.8-2.04-9.89
		c-0.49-0.85-0.74-1.91-0.86-2.9c-0.36-3.15-0.65-6.31-0.89-9.47c-0.66-8.58-1.45-17.01-5.65-24.93c-2.19-4.14-2.74-9.17-3.89-13.83
		c-0.26-1.06-0.09-2.29,0.15-3.38c0.52-2.4-0.63-4.34-1.63-6.48c-1.06,2.97-2.23,5.96-2.31,8.99c-0.17,5.83-2.02,11.18-3.78,16.58
		c-1.1,3.36-3.31,4.51-6.76,3.71c-0.97-0.22-1.93-0.6-2.81-1.07c-1.31-0.7-2.5-0.62-3.45,0.46c-1.38,1.58-3.09,1.88-5.08,2.05
		c-2.98,0.25-5.55,1.2-6.88,4.46c-0.98,2.4-2.72,4.47-4.02,6.75c-0.42,0.73-0.68,1.64-0.74,2.48c-0.19,2.62,0.16,5.36-0.46,7.86
		c-1.47,5.89-1.27,11.82-1.15,17.76C223.55,222.48,224.62,223.34,228.5,222.85z"/>
	<path class="st0" d="M398.52,640.56c1.07-12.72,0.23-25.6,0.31-38.41c0.01-2.12,0.54-4.23,0.83-6.35c0.14-1,0.41-1.99,0.44-2.98
		c0.19-5.96,0.24-11.93,0.5-17.88c0.56-12.52-0.76-25.05,0.86-37.59c0.92-7.13,0.47-14.44,0.72-21.67
		c0.13-3.79,0.47-7.57,0.67-11.36c0.02-0.28-0.28-0.58-0.47-0.94c-3.01,2.77-5.72,5.64-8.82,8.01c-2.79,2.13-3.97,4.58-4.07,8.07
		c-0.18,6.46-0.7,12.91-1.2,19.36c-0.52,6.7-1.26,13.38-1.78,20.07c-0.64,8.24-1.91,16.25-4.73,24.14
		c-4.45,12.45-7.47,25.22-6.74,38.7c0.38,7.05,1.66,13.79,3.8,20.45c0.47,1.47,1.31,2.27,2.83,2.71c3.16,0.9,4.72,3.03,4.72,6.44
		c0.01,6.09,0.25,12.18,0.28,18.27c0,1.35-0.3,2.8-0.84,4.03c-0.89,2.03-1.01,3.74,0.33,5.69c0.8,1.17,1.13,2.79,1.29,4.26
		c0.3,2.9,0.46,5.82,0.45,8.74c-0.01,3.29,0.1,6.49,2.43,9.13l-0.12-0.05l0,0c-0.01,0.1,0.02,0.16,0.03,0.25
		c0.02-0.05,0.05-0.1,0.07-0.15c0.48,0.48,0.96,0.96,1.45,1.45c0,0.03,0,0.06,0,0.09c0.04,0,0.07,0.01,0.11,0.02l-0.1-0.14
		c3.96-0.43,3.99-0.42,4.56-4.32c0.28-1.88,0.55-3.77,0.59-5.66c0.16-7.86-0.11-15.75,0.44-23.59
		C398.01,659.75,397.71,650.17,398.52,640.56z"/>
	<path class="st0" d="M485.78,302.63c1.76-0.71,2.95-1.07,4.01-1.64c7.36-3.96,14.68-8,22.04-11.96c5.47-2.94,11-5.77,16.48-8.7
		c2.88-1.54,3.07-2.06,1.95-5.12c-3.2-8.74-7.16-17.09-12.97-24.43c-1.32-1.66-2.87-3.32-4.67-4.37c-3.63-2.12-5.31-5.18-6.01-9.17
		c-0.38-2.2-1.22-4.37-2.13-6.42c-0.79-1.78-2.42-2.5-4.41-2.3c-2.98,0.3-5.3,1.59-6.67,4.35c-0.34,0.68-0.53,1.43-0.87,2.11
		c-0.66,1.3-1.62,1.55-2.76,0.59c-0.97-0.82-1.82-1.78-2.82-2.55c-0.82-0.63-1.8-1.05-3.38-1.96c-0.35,2.46-0.83,4.15-0.8,5.84
		c0.1,5.45,0.42,10.9,0.6,16.35c0.28,8.11,0.47,16.23,0.81,24.34c0.22,5.19,0.62,10.38,0.95,15.57
		C485.32,296.05,485.53,298.93,485.78,302.63z"/>
	<path class="st0" d="M563.41,725.35c1,4.03,1.1,8.26,3.44,11.93c0.79,1.24,1.15,2.82,1.47,4.29c0.89,4.16,3.4,7.56,5.16,11.31
		c0.31,0.65,0.95,1.14,1.45,1.69c1.16,1.29,2.48,2.46,3.46,3.88c1.85,2.66,4.24,4.38,7.47,4.61c3.54,0.25,7.01,0.55,10.43,1.73
		c3.04,1.05,4.92-0.42,5.02-3.67c0.08-2.6,0.68-4.95,1.86-7.27c2.35-4.59,4.43-9.32,6.8-13.9c1.53-2.96,0.94-5.34-1.28-7.56
		c-4.77-4.74-9.3-9.74-14.35-14.16c-10.5-9.21-20.56-18.85-30.12-29.03c-0.8-0.85-1.83-1.47-2.75-2.2c-0.3,0.21-0.6,0.41-0.9,0.62
		c0,1.49-0.06,2.98,0.01,4.47c0.11,2.41,0.38,4.8,0.46,7.21C561.38,708.03,561.29,716.76,563.41,725.35z"/>
	<path class="st0" d="M400.47,389.98c-0.5,2.18-1.62,3.69-3.81,4.29c-3.82,1.05-5.38,3.91-6.14,7.48
		c-1.72,8.07-1.11,15.88,2.63,23.33c1.64,3.28,1.95,6.65,1.5,10.33c-1.28,10.31-2.57,20.64-3.23,31
		c-0.85,13.41-1.09,26.87-1.55,40.3c-0.03,1,0.34,2,0.61,3.46c3.55-3.32,6.59-6.15,9.59-8.99c0.55-0.52,0.96-1.18,1.49-1.73
		c1.44-1.47,1.73-3.25,1.75-5.24c0.06-4.68,0.29-9.35,0.44-14.02c0.36-11.26,0.76-22.51,1.06-33.77c0.24-8.88-0.25-17.82,0.68-26.62
		c1.06-10.01,1.19-19.99,1.26-30c0.02-3.43-0.49-6.98,0.23-10.25c1.37-6.21,0.52-12.38,0.6-18.57c0.01-0.91-0.35-1.83-0.58-2.96
		c-3.06,1.06-6.22,0.75-8.37,4.05c1.2,1.33,2.37,2.77,3.68,4.05c2.08,2.04,2.9,4.3,2.15,7.22
		C403.04,378.87,401.74,384.42,400.47,389.98z"/>
	<path class="st0" d="M332.25,177.27c10.2,7.92,20.39,15.87,30.54,23.85c2.49,1.96,4.81,4.14,7.32,6.08c2.3,1.78,4.01,1.61,6-0.49
		c2.09-2.22,4.05-4.55,6.08-6.82c4.89-5.49,4.94-5.65,0.76-11.65c-1.44-2.07-2.25-4.22-2.1-6.74c0.12-2.03,0.16-4.06,0.3-6.08
		c0.26-3.93-1.4-6.81-4.59-9.01c-2.98-2.06-6.28-3.31-9.79-3.98c-4.72-0.9-4.81-0.93-4.83-5.84c-0.01-3.11,0-6.21,0-9.32
		c-0.26,0.03-0.52,0.07-0.78,0.1c-1.36,5.39-2.95,10.74-4,16.19c-0.84,4.36-2.99,4.38-6.23,3.72c-3.32-0.67-6.74-1.04-10.13-1.1
		c-3.55-0.06-6.63,1.48-9.12,4.06C328.77,173.24,328.94,174.7,332.25,177.27z"/>
	<path class="st0" d="M331.06,754.02c0.5,2.27,1.16,2.81,3.38,2.23c0.85-0.22,1.68-0.57,2.49-0.93c5.99-2.71,11.93-5.56,17.98-8.13
		c3.56-1.52,4.59-3.95,4.71-7.73c0.44-13.58-1.18-27.05-1.67-40.57c-0.03-0.91-0.43-2.14-1.1-2.61c-1.22-0.86-2.34,0.13-3.38,0.9
		c-6.55,4.77-13.11,9.54-19.71,14.25c-2.55,1.82-3.94,4.06-3.83,7.34c0.17,4.68,0.04,9.38,0.04,14.07c0.03,0,0.05,0,0.08,0
		c0,0.89-0.01,1.78,0,2.66C330.15,741.67,329.7,747.89,331.06,754.02z"/>
	<path class="st0" d="M596.35,975.65c-0.36-1.45-1.01-2.91-1.01-4.36c-0.01-2.05-1.09-2.77-2.76-2.83
		c-2.02-0.07-4.06-0.02-6.06,0.22c-7.52,0.88-15.03,1.88-22.55,2.77c-4.76,0.57-9.53,1.07-14.3,1.55
		c-7.79,0.78-15.59,1.48-23.37,2.28c-4.26,0.44-8.53,0.82-12.62,2.26c-2.04,0.72-2.55,1.98-1.18,3.64c0.88,1.07,1.81,2.35,3,2.86
		c3.18,1.37,5.04,3.57,5.6,6.96c0.02,0.14,0.42,0.22,1.03,0.51c0.73-0.81,1.61-1.65,2.33-2.6c1.31-1.74,3.03-2.69,5.17-2.75
		c4.31-0.11,8.61-0.17,12.92-0.2c2.44-0.02,4.05,1.2,4.87,3.5c0.34,0.95,0.61,1.95,1.12,2.81c1.44,2.49,3.15,3.11,6.84,2.36
		c-0.55-1.81-1.06-3.34-1.49-4.9c-0.61-2.2-0.19-3.32,1.86-4.29c0.99-0.47,2.18-0.76,3.27-0.74c11.52,0.16,22.99-0.48,34.46-1.56
		c3.35-0.31,4.07-0.95,3.7-4.19C597.02,977.84,596.62,976.75,596.35,975.65z"/>
	<path class="st0" d="M453.73,822.85c-9.19,2.16-18.36,4.41-27.56,6.54c-5.26,1.22-10.56,2.3-15.84,3.44
		c-1.57,0.34-2.57,1.91-1.87,3.43c0.89,1.94,1.82,3.99,3.23,5.53c5.41,5.86,10.99,11.56,16.58,17.24c1.05,1.07,2.37,1.91,3.67,2.68
		c3.21,1.89,5.86,1.37,8.36-1.39c0.75-0.83,1.75-1.43,2.51-2.25c1.53-1.66,3.5-3.17,4.33-5.15c1.95-4.63,3.35-9.49,4.96-14.27
		c0.72-2.15,1.26-4.27,3.94-5.09c0.96-0.29,1.94-1.71,2.22-2.8c0.69-2.68,0.78-5.45-0.02-8.67
		C456.6,822.37,455.14,822.52,453.73,822.85z M429.88,844.8c-0.49,1.34-1.22,2.78-2.85,2.4c-0.82-0.19-1.68-1.34-2.01-2.24
		c-0.35-0.94-0.08-2.11-0.08-3.66c1.53,0.32,2.64,0.37,3.6,0.79C429.62,842.55,430.37,843.47,429.88,844.8z"/>
	<path class="st0" d="M521.63,921.11c0.37,0.08,0.73,0.26,1.06,0.21c10.84-1.77,21.71-3.39,32.49-5.46c3.47-0.67,7.08-1.9,9.09-5.43
		c2.31-4.05,4.64-8.08,6.98-12.11c2.08-3.59,0.69-6.87-0.24-9.86c-1.46,1.13-2.62,2.37-4.04,3.06c-4.26,2.05-7.21,5.54-10.22,8.93
		c-2.74,3.09-5.96,5.31-9.68,7.07c-4.49,2.13-9.86,2.28-13.58,6.14c-0.77,0.8-1.76,1.4-2.67,2.08c-1.91,1.43-3.84,2.78-6.42,2.08
		C524.91,920.04,521.54,919.13,521.63,921.11z"/>
	<path class="st0" d="M524.38,917.67c0,0-0.12,0.12-0.12,0.12c0.05,0.02,0.1,0.02,0.15,0.03
		C524.4,917.77,524.39,917.73,524.38,917.67z"/>
	<path class="st0" d="M390.23,701.64c-0.44,0.94-1.1,1.87-1.14,2.82c-0.09,2.65,0,5.33,0.27,7.97c0.25,2.48,0.79,4.87,1.64,7.3
		c0.76,2.18-0.36,4.95-0.33,7.46c0.03,3.42,0.46,6.83,0.55,10.25c0.12,5-0.5,5.74-5.3,7.03c-2.06,0.55-2.63,1.5-1.71,3.66
		c0.83,1.96,1.93,3.82,3.09,5.61c0.76,1.17,1.09,2.06,0.34,3.44c-3.24,5.94-0.72,13.24,5.97,16.68c0.71-3.71,0.82-7.31,0.86-10.95
		c0.04-4.56,0.32-9.11,0.6-13.67c0.5-8.2,1.43-16.4-0.36-24.57c-0.13-0.58-0.12-1.31,0.12-1.83c1.97-4.38,1-9.01,1.24-13.53
		c0.08-1.57-0.57-2.59-2.07-3.25c-1.24-0.55-2.39-1.38-2.23-3.03C390.82,702.98,390.27,702.57,390.23,701.64z"/>
	<path class="st0" d="M792.01,869.98c-0.66,3.98-0.86,8.07-1.9,11.94c-1.54,5.71-1.89,11.47-1.77,17.29
		c0.11,5.57,0.4,11.14,0.7,16.7c0.26,4.93,0.61,9.85,0.98,14.77c0.38,5.05,1,10.1-0.77,15.04c-0.09,0.26,0.17,0.65,0.26,0.98
		c0.26,0.02,0.52,0.04,0.79,0.06c1.08-3.6,1.82-7.29,1.85-11.07c0.16-17.21-0.19-34.43,1.12-51.62c0.18-2.4,0.3-4.8,0.34-7.21
		c0.06-3.39,0.01-6.77,0.01-10.16C792.67,867.71,792.2,868.82,792.01,869.98z"/>
	<path class="st0" d="M583.16,994.53c-2.25,2.37-4.51,4.67-6.68,7.06c-2.29,2.52-4.55,5.08-6.73,7.71c-2,2.42-4.79,4.24-6.21,7.6
		c11.04-1.75,16.67-9.01,20.81-17.92C585.02,997.55,584.93,996.02,583.16,994.53z"/>
	<path class="st0" d="M245.39,859.04c3.85,3.26,7.74,6.46,11.64,9.65c0.44,0.36,1.07,0.51,1.73,0.8c1.67-2.01,0.43-3.51-0.66-4.76
		c-3.8-4.37-7.73-8.65-11.65-12.92c-0.48-0.52-1.23-0.8-2.08-1.34C242.23,853.93,242.61,856.68,245.39,859.04z"/>
	<path class="st0" d="M255.89,871.62c-1.96-1.38-3.85-2.87-5.73-4.35c-1.87-1.47-3.69-3-5.54-4.5c-0.04,3.06,1.08,5.34,3.2,7.14
		c1.05,0.89,2.29,1.85,2.79,3.04c1.33,3.18,4.13,5.02,6.25,7.47c0.5,0.58,1.37,0.82,2.15,1.26
		C260.37,876.65,259.53,874.19,255.89,871.62z"/>
	<path class="st0" d="M251.35,924.65c-1.97-2.36-3.92-4.74-6.15-7.43c-1.39,3.17-1.24,5.66,0.82,7.75c2.48,2.51,5.11,4.86,7.73,7.22
		c0.6,0.54,1.43,0.81,2.24,1.25c1.17-1.88,0.38-3.02-0.73-4.21C253.9,927.76,252.64,926.19,251.35,924.65z"/>
	<path class="st0" d="M244.1,888.87c-1.13,2.3-0.59,4.16,0.88,5.44c3.88,3.39,7.94,6.57,11.95,9.81c0.12,0.1,0.45-0.05,0.68-0.09
		C256.7,901.46,247.48,891,244.1,888.87z"/>
	<path class="st0" d="M251.12,910.22c-2.09-2.01-3.12-5.11-6.08-6.52c-0.75,2.93-0.84,3.68,0.72,5.13c3.29,3.09,6.79,5.96,10.2,8.92
		c0.24-0.24,0.48-0.48,0.71-0.72C256.18,913.72,253.23,912.24,251.12,910.22z"/>
	<path class="st0" d="M253.53,969.88c-2.59-2.65-5.18-5.31-8.11-8.31C245.5,965.73,248.72,969.2,253.53,969.88z"/>
	<path class="st0" d="M421.2,49.56v0.08c2.9-1.96,5.24-4.19,7-6.7c1.76-2.51,2.64-5.14,2.64-7.88c0-3.07-0.87-5.85-2.6-8.34
		c-1.73-2.49-4.18-4.45-7.33-5.91c-3.16-1.45-6.8-2.18-10.94-2.18c-1.79,0-4.58,0.11-8.38,0.34c-4.92,0.34-9.92,0.5-15,0.5h-11.31
		l-2.77,5.45l9.3,2.43v47.1l-7.88,6.2v4.69h12.74c2.46,0,5.92,0.14,10.39,0.42c2.68,0.28,5.42,0.42,8.21,0.42
		c4.13,0,8.46-0.92,12.99-2.77c4.53-1.84,8.31-4.32,11.36-7.42c3.04-3.1,4.57-6.41,4.57-9.93c0-3.63-1.16-6.91-3.48-9.85
		C428.4,53.29,425.23,51.07,421.2,49.56L421.2,49.56z M414.75,39.51c0,3.13-0.71,5.5-2.14,7.12c-1.42,1.62-3.51,2.43-6.24,2.43
		h-9.39V27.52c2.01-0.95,4.16-1.42,6.45-1.42c3.74,0,6.56,1.23,8.46,3.69C413.8,32.24,414.75,35.48,414.75,39.51L414.75,39.51z
		 M407.71,77.89h-0.08c-3.91,0-7.46-0.61-10.64-1.84V55.18h7.04h1.68c4.13,0.22,7.25,1.55,9.34,3.98c2.1,2.43,3.14,5.55,3.14,9.34
		c0,2.91-0.94,5.2-2.81,6.87C413.51,77.05,410.95,77.89,407.71,77.89L407.71,77.89z"/>
	<polygon class="st0" points="499.98,86.94 499.98,62.22 495.37,60.29 482.38,79.06 463.53,79.06 463.53,30.46 471.49,24.25 
		471.49,19.56 441.82,19.56 439.06,25.01 448.36,27.44 448.36,74.54 440.48,80.74 440.48,85.43 493.95,85.43 	"/>
	<path class="st0" d="M546.41,17.88c-5.42,0-11.15,1.61-17.18,4.82c-6.03,3.21-11.08,7.6-15.13,13.16
		c-4.05,5.56-6.08,11.61-6.08,18.14c0,6.37,1.35,12.07,4.06,17.1c2.71,5.03,6.51,8.95,11.4,11.77c4.89,2.82,10.55,4.23,16.97,4.23
		c5.42,0,11.13-1.61,17.14-4.82c6.01-3.21,11.05-7.58,15.13-13.12c4.08-5.53,6.12-11.57,6.12-18.1c0-6.37-1.34-12.07-4.02-17.1
		c-2.68-5.03-6.48-8.97-11.4-11.82C558.51,19.31,552.84,17.88,546.41,17.88L546.41,17.88z M541.55,27.52
		c4.58,0,8.42,1.24,11.52,3.73c3.1,2.49,5.41,5.8,6.91,9.93c1.51,4.14,2.26,8.74,2.26,13.83c0,4.25-0.75,8.07-2.26,11.48
		c-1.51,3.41-3.56,6.09-6.16,8.05c-2.6,1.96-5.43,2.93-8.51,2.93c-4.58,0-8.42-1.24-11.52-3.73c-3.1-2.49-5.42-5.81-6.96-9.97
		c-1.54-4.16-2.3-8.76-2.3-13.79c0-4.25,0.75-8.07,2.26-11.48c1.51-3.41,3.56-6.09,6.16-8.05C535.56,28.5,538.42,27.52,541.55,27.52
		L541.55,27.52z"/>
	<path class="st0" d="M626.78,17.88c-5.42,0-11.15,1.61-17.18,4.82c-6.03,3.21-11.08,7.6-15.13,13.16
		c-4.05,5.56-6.08,11.61-6.08,18.14c0,6.37,1.35,12.07,4.06,17.1c2.71,5.03,6.51,8.95,11.4,11.77c4.89,2.82,10.55,4.23,16.97,4.23
		c5.42,0,11.13-1.61,17.14-4.82c6.01-3.21,11.05-7.58,15.13-13.12c4.08-5.53,6.12-11.57,6.12-18.1c0-6.37-1.34-12.07-4.02-17.1
		c-2.68-5.03-6.48-8.97-11.4-11.82C638.88,19.31,633.21,17.88,626.78,17.88L626.78,17.88z M621.92,27.52
		c4.58,0,8.42,1.24,11.52,3.73c3.1,2.49,5.41,5.8,6.91,9.93c1.51,4.14,2.26,8.74,2.26,13.83c0,4.25-0.75,8.07-2.26,11.48
		c-1.51,3.41-3.56,6.09-6.16,8.05c-2.6,1.96-5.43,2.93-8.51,2.93c-4.58,0-8.42-1.24-11.52-3.73c-3.1-2.49-5.42-5.81-6.96-9.97
		c-1.54-4.16-2.3-8.76-2.3-13.79c0-4.25,0.75-8.07,2.26-11.48c1.51-3.41,3.56-6.09,6.16-8.05C615.93,28.5,618.79,27.52,621.92,27.52
		L621.92,27.52z"/>
	<path class="st0" d="M704.39,18.72c-1.68,0-4.41,0.11-8.21,0.34c-4.92,0.34-9.95,0.5-15.09,0.5h-11.82l-2.77,5.45l9.3,2.85v46.68
		l-7.88,6.2v4.69h13.24c2.23,0,5.45,0.14,9.64,0.42c2.51,0.28,5.06,0.42,7.63,0.42c5.36,0,11.01-1.58,16.93-4.74
		c5.92-3.16,10.88-7.43,14.88-12.82c3.99-5.39,5.99-11.27,5.99-17.64c0-6.2-1.33-11.76-3.98-16.68c-2.65-4.92-6.4-8.76-11.23-11.52
		C716.19,20.11,710.65,18.72,704.39,18.72L704.39,18.72z M700.87,78.48h-0.08c-3.69,0-6.96-0.53-9.81-1.59V28.19
		c2.12-1.34,4.44-2.01,6.96-2.01c4.8,0,8.84,1.3,12.11,3.9c3.27,2.6,5.7,6.06,7.29,10.39c1.59,4.33,2.39,9.18,2.39,14.54
		c0,4.47-0.83,8.49-2.47,12.07c-1.65,3.58-3.91,6.37-6.79,8.38C707.59,77.47,704.39,78.48,700.87,78.48L700.87,78.48z"/>
	<path class="st0" d="M539.83,139.99c-3.97,0-8.09,1.13-12.36,3.39c-4.27,2.26-7.84,5.31-10.69,9.13
		c-2.85,3.83-4.27,7.95-4.27,12.36c0,4.08,0.91,7.79,2.72,11.15c1.82,3.35,4.36,5.99,7.63,7.92c3.27,1.93,6.94,2.89,11.02,2.89
		c3.97,0,8.09-1.13,12.36-3.39c4.27-2.26,7.84-5.31,10.69-9.14c2.85-3.83,4.27-7.95,4.27-12.36c0-4.08-0.91-7.79-2.72-11.15
		c-1.82-3.35-4.34-5.99-7.58-7.92C547.66,140.96,543.97,139.99,539.83,139.99L539.83,139.99z M534.97,149.71
		c3.41,0,6.06,1.52,7.96,4.57c1.9,3.05,2.85,6.91,2.85,11.61c0,3.69-0.6,6.5-1.8,8.42c-1.2,1.93-2.95,2.89-5.24,2.89
		c-3.47,0-6.15-1.55-8.05-4.65c-1.9-3.1-2.85-7-2.85-11.69c0-3.69,0.6-6.47,1.8-8.34C530.85,150.65,532.63,149.71,534.97,149.71
		L534.97,149.71z"/>
	<path class="st0" d="M598.16,112c-3.58,0-7.31,1.13-11.19,3.39c-3.88,2.26-7.11,5.31-9.68,9.14c-2.57,3.83-3.86,7.95-3.86,12.36
		v6.45h-8.97v5.53h8.97v26.15l-7.46,6.29V186h31.76l2.68-5.45l-12.74-3.35v-28.33h14.08v-5.53h-14.08v-11.73
		c0-3.3,0.54-5.81,1.63-7.54c1.09-1.73,2.67-2.6,4.74-2.6c2.01,0,4.01,0.71,5.99,2.14c1.98,1.42,3.65,3.37,4.99,5.82h5.28v-15
		c-1.12-0.61-2.93-1.17-5.45-1.68C602.35,112.25,600.12,112,598.16,112L598.16,112z"/>
</g>
</svg>
