<svg width="2225" height="2407" viewBox="0 0 2225 2407" fill="none" xmlns="http://www.w3.org/2000/svg">
<path d="M440.083 1.75064C465.088 -1.02603 505.562 8.99769 526.93 22.5919C538.594 30.0127 542.207 37.4903 558.263 39.4525C596.183 44.0865 633.616 38.9018 672.874 39.8738C783.735 42.5073 891.888 74.665 986.178 133.031C1190.09 259.915 1308.78 492.147 1360.63 719.94C1376.84 791.145 1385.41 859.149 1391.29 931.803C1392.31 944.437 1391.94 957.484 1393.24 970.063C1396.91 1005.28 1401.47 1039.39 1403.27 1074.83C1405.88 1133 1404.2 1191.28 1398.24 1249.2C1396.81 1264.34 1393.99 1297.93 1390.82 1312.3C1372.59 1394.92 1341.01 1480.45 1296.44 1552.13C1319.06 1568.1 1340.18 1571.26 1355.07 1599.59C1379.17 1645.41 1351.99 1695.82 1339.86 1738.65C1343.99 1757.76 1364.35 1788.83 1374.53 1808.15C1384.09 1826.61 1392.47 1845.65 1399.62 1865.16C1440.59 1976.19 1435.6 2079.32 1386.53 2186.14L1446.7 2398.58H566.498H160.518H144.073C142.943 2396.28 148.008 2388.84 150.018 2383.97C170.115 2335.32 192.876 2287.07 212.644 2238.37C217.341 2226.8 223.456 2214.82 226.601 2202.78C161.781 2086.7 171.343 1946.05 220.645 1827.01C231.892 1799.85 245.196 1774.28 256.289 1747.14C259.413 1739.49 239.237 1705.85 237.34 1696.38C229.609 1671.78 224.678 1641.89 237.495 1617.66C250.623 1592.83 273.493 1578.74 299.336 1570.45C290.236 1500.81 278.66 1431.41 269.102 1361.65C267.071 1346.82 256.458 1283.52 257.862 1270.24C259.098 1258.56 299.071 1219.6 310.261 1207.28C337.35 1177.39 363.453 1146.62 388.524 1115.02C456.872 1029.07 535.751 910.208 581.24 809.889C512.955 830.355 394.83 789.554 322.4 799.415C301.822 802.216 277.244 808.579 260.661 820.775C231.614 842.136 217.846 856.99 180.224 863.315C163.962 866.048 143.928 865.714 129.544 855.479C119.268 848.167 104.024 825.565 95.7615 814.045C61.03 765.619 19.158 710.503 6.71184 651.425C2.01974 629.153 12.5057 599.614 24.3012 580.62C55.3798 530.58 100.686 484.196 138.762 438.648C202.682 362.186 266.179 285.358 318.394 200.24C333.181 176.136 349.449 146.745 358.493 120.277C368.815 90.068 360.685 63.0211 382.697 34.6796C398.383 14.482 415.245 5.3719 440.083 1.75064Z" fill="#7F072A"/>
<path d="M439.126 1122.25C442.936 1125.07 457.724 1160.64 460.463 1167.45C501.204 1268.67 549.193 1352.81 620.351 1435.59C559.17 1456.25 484.012 1490.11 427.213 1520.57C397.099 1537.46 369.453 1554.98 345.428 1580.03L302.506 1282.65C312.852 1272.12 325.5 1259.8 335.14 1248.82C342.538 1240.41 349.607 1230.25 357.406 1221.23C385.725 1189.14 412.979 1156.13 439.126 1122.25Z" fill="#B7224C"/>
<path d="M306.133 1730.46L350.475 1730.54C397.25 1779.42 448.559 1829.44 496.465 1877.53C425.75 1932.76 365.023 1999.7 316.919 2075.45C296.026 2111.77 285.235 2131.52 271.715 2172.02L260.692 2172.09C194.26 2039.06 229.303 1897.51 294.504 1772.4C301.168 1759.61 303.618 1744.5 306.133 1730.46Z" fill="#B7224C"/>
<path d="M441.249 45.9313C455.783 44.9419 459.441 46.1504 473.093 50.061C459.659 53.7057 418.672 70.3491 430.47 96.5807C431.993 99.9663 450.407 117.323 454.223 121.151L516.208 183.284C474.215 297.109 348.463 348.398 259.289 416.823C206.126 458.007 156.489 503.552 110.891 552.986C101.063 563.433 91.5604 574.184 82.3976 585.22C76.4014 592.434 61.4865 611.464 55.541 615.953C79.4262 568.418 143.186 503.309 179.418 459.234C234.351 392.413 288.879 327.131 336.566 254.256C363.09 213.39 389.532 170.455 403.861 123.623C413.755 91.2903 400.399 59.4311 441.249 45.9313Z" fill="#B7224C"/>
<path d="M323.041 1603.59C324.759 1603.23 327.227 1603.18 329.045 1603.07C333.116 1606.44 328.411 1605.8 331.821 1610.54C343.208 1611.89 358 1611.14 369.74 1611.06L419.658 1611.16L607.299 1611.43L549.564 1666.82C547.796 1668.66 546.26 1669.38 543.721 1669.41C512.061 1669.77 480.35 1669.37 448.682 1669.22L267.561 1668.76C271.802 1647.49 299.44 1604.72 323.041 1603.59Z" fill="#B7224C"/>
<path d="M2044.46 2187.95L2001.46 2398.95H758.105V2195.56L1918.61 2187.95H2044.46Z" fill="#7F072A"/>
<path d="M1086.11 1396.95H1428.6L1471.61 1185.95L1121.61 1186.95L1086.11 1396.95Z" fill="#7F072A"/>
<path d="M1613.11 2190.45H1953.61L2011.61 1908.95L1661.61 1909.95L1613.11 2190.45Z" fill="#7F072A"/>
<path d="M752.15 1081.45H1475.6L1528.61 846.953L789.105 847.953L752.15 1081.45Z" fill="#7F072A"/>
<path d="M2044.61 2185.95H1944.11L1937.11 2205.45L2040.61 2206.45L2044.61 2185.95Z" fill="#7F072A"/>
<path d="M2017.11 1833.45L2104.11 1842.95C2104.11 1842.95 2144.91 1778.95 2172.61 1660.95C2202.07 1535.45 2177.11 1451.95 2177.11 1451.95L2087.61 1442.45L2017.11 1833.45Z" fill="#7F072A"/>
<mask id="mask0_213_1893" style="mask-type:alpha" maskUnits="userSpaceOnUse" x="758" y="459" width="1454" height="1931">
<rect x="758.105" y="459.953" width="1453" height="1930" fill="#D9D9D9"/>
</mask>
<g mask="url(#mask0_213_1893)">
<mask id="path-13-outside-1_213_1893" maskUnits="userSpaceOnUse" x="619.93" y="848.313" width="1565" height="1576" fill="black">
<rect fill="white" x="619.93" y="848.313" width="1565" height="1576"/>
<path d="M920.336 868.313C938.589 868.313 953.886 871.667 966.471 878.056L967.303 874.125H1494.48L1490.79 891.125H1494.48L1478.21 966.098H1474.05L1470.79 981.125H1474.48L1458.21 1056.1H1435.18L1420.09 1126.5H1415.73L1412.14 1143.28H1415.78L1401.97 1207.72H1423L1419.49 1224.72H1423L1407.88 1297.95H1402.95L1399.49 1314.72H1403L1389.71 1379.12H1633.81C1647.83 1379.12 1660.2 1381.18 1670.98 1384.93L1672.21 1379.12H2054.98C2133.44 1379.13 2164.82 1430.85 2164.82 1508.15C2164.82 1511.03 2164.78 1513.95 2164.7 1516.9C2164.78 1519.61 2164.82 1522.36 2164.82 1525.15C2164.82 1551.88 2161.34 1581.52 2154.36 1612.91C2150.38 1632.16 2145.97 1649.75 2141.11 1665.76C2139.43 1677.8 2137.18 1690.21 2134.36 1702.91C2105.89 1840.65 2055.32 1892.95 1979.19 1892.95H1972.94L1971.2 1901.12H1974.82L1909.78 2206.68H2003.87L2000.36 2223.68H2003.87L1986.44 2307.95H1981.54L1980.36 2313.68H1983.87L1966.44 2397.95H1381.41L1385.05 2380.95H1381.41L1383.23 2372.47C1362.85 2392.98 1335.62 2403.76 1303.51 2403.76C1294.21 2403.76 1285.5 2403.04 1277.4 2401.62C1269.78 2403.04 1261.81 2403.76 1253.51 2403.76C1244.21 2403.76 1235.5 2403.04 1227.4 2401.62C1219.78 2403.04 1211.81 2403.76 1203.51 2403.76C1188.11 2403.76 1174.32 2401.77 1162.27 2397.95H674.801L678.433 2380.95H674.801L742.073 2066.1H679.45L683.141 2049.1H679.45L695.724 1974.12H699.878L703.141 1959.1H699.45L712.896 1897.15C661.11 1888.54 639.93 1846.09 639.93 1786.6C639.93 1783.61 639.969 1780.54 640.056 1777.42C639.971 1774.84 639.93 1772.24 639.93 1769.6C639.93 1757.97 640.511 1745.19 642.255 1732.4H662.956C660.909 1721.36 659.93 1709.37 659.93 1696.6C659.93 1693.61 659.969 1690.54 660.056 1687.42C659.971 1684.84 659.93 1682.24 659.93 1679.6C659.93 1667.97 660.511 1655.19 662.255 1642.4H679.892C677.039 1632.54 675.382 1621.79 675.382 1609.92C675.382 1606.8 675.462 1603.7 675.619 1600.62C675.463 1598.11 675.382 1595.54 675.382 1592.92C675.382 1563.73 682.314 1536.1 695.481 1513.91C695.518 1512.81 695.563 1511.72 695.619 1510.62C695.463 1508.11 695.382 1505.54 695.382 1502.92C695.382 1458.22 711.648 1417.16 741.668 1393.71C740.502 1393.74 739.329 1393.76 738.149 1393.76C671.895 1393.76 644.579 1348.43 644.579 1274.62C644.579 1271.73 644.619 1268.8 644.696 1265.82C644.619 1263.13 644.579 1260.4 644.579 1257.62C644.579 1227.98 648.648 1193.69 656.784 1155.92C660.834 1136.94 665.189 1119.46 669.861 1103.42C671.693 1091.36 674.001 1078.84 676.784 1065.92C706.424 927.013 752.338 868.314 820.336 868.313C829.811 868.313 838.489 869.218 846.405 870.98C854.06 869.191 862.033 868.313 870.336 868.313C879.811 868.313 888.489 869.218 896.405 870.98C904.06 869.191 912.033 868.313 920.336 868.313Z"/>
</mask>
<path d="M920.336 868.313C938.589 868.313 953.886 871.667 966.471 878.056L967.303 874.125H1494.48L1490.79 891.125H1494.48L1478.21 966.098H1474.05L1470.79 981.125H1474.48L1458.21 1056.1H1435.18L1420.09 1126.5H1415.73L1412.14 1143.28H1415.78L1401.97 1207.72H1423L1419.49 1224.72H1423L1407.88 1297.95H1402.95L1399.49 1314.72H1403L1389.71 1379.12H1633.81C1647.83 1379.12 1660.2 1381.18 1670.98 1384.93L1672.21 1379.12H2054.98C2133.44 1379.13 2164.82 1430.85 2164.82 1508.15C2164.82 1511.03 2164.78 1513.95 2164.7 1516.9C2164.78 1519.61 2164.82 1522.36 2164.82 1525.15C2164.82 1551.88 2161.34 1581.52 2154.36 1612.91C2150.38 1632.16 2145.97 1649.75 2141.11 1665.76C2139.43 1677.8 2137.18 1690.21 2134.36 1702.91C2105.89 1840.65 2055.32 1892.95 1979.19 1892.95H1972.94L1971.2 1901.12H1974.82L1909.78 2206.68H2003.87L2000.36 2223.68H2003.87L1986.44 2307.95H1981.54L1980.36 2313.68H1983.87L1966.44 2397.95H1381.41L1385.05 2380.95H1381.41L1383.23 2372.47C1362.85 2392.98 1335.62 2403.76 1303.51 2403.76C1294.21 2403.76 1285.5 2403.04 1277.4 2401.62C1269.78 2403.04 1261.81 2403.76 1253.51 2403.76C1244.21 2403.76 1235.5 2403.04 1227.4 2401.62C1219.78 2403.04 1211.81 2403.76 1203.51 2403.76C1188.11 2403.76 1174.32 2401.77 1162.27 2397.95H674.801L678.433 2380.95H674.801L742.073 2066.1H679.45L683.141 2049.1H679.45L695.724 1974.12H699.878L703.141 1959.1H699.45L712.896 1897.15C661.11 1888.54 639.93 1846.09 639.93 1786.6C639.93 1783.61 639.969 1780.54 640.056 1777.42C639.971 1774.84 639.93 1772.24 639.93 1769.6C639.93 1757.97 640.511 1745.19 642.255 1732.4H662.956C660.909 1721.36 659.93 1709.37 659.93 1696.6C659.93 1693.61 659.969 1690.54 660.056 1687.42C659.971 1684.84 659.93 1682.24 659.93 1679.6C659.93 1667.97 660.511 1655.19 662.255 1642.4H679.892C677.039 1632.54 675.382 1621.79 675.382 1609.92C675.382 1606.8 675.462 1603.7 675.619 1600.62C675.463 1598.11 675.382 1595.54 675.382 1592.92C675.382 1563.73 682.314 1536.1 695.481 1513.91C695.518 1512.81 695.563 1511.72 695.619 1510.62C695.463 1508.11 695.382 1505.54 695.382 1502.92C695.382 1458.22 711.648 1417.16 741.668 1393.71C740.502 1393.74 739.329 1393.76 738.149 1393.76C671.895 1393.76 644.579 1348.43 644.579 1274.62C644.579 1271.73 644.619 1268.8 644.696 1265.82C644.619 1263.13 644.579 1260.4 644.579 1257.62C644.579 1227.98 648.648 1193.69 656.784 1155.92C660.834 1136.94 665.189 1119.46 669.861 1103.42C671.693 1091.36 674.001 1078.84 676.784 1065.92C706.424 927.013 752.338 868.314 820.336 868.313C829.811 868.313 838.489 869.218 846.405 870.98C854.06 869.191 862.033 868.313 870.336 868.313C879.811 868.313 888.489 869.218 896.405 870.98C904.06 869.191 912.033 868.313 920.336 868.313Z" fill="#7F072A"/>
<path d="M920.336 868.313V848.313H920.336L920.336 868.313ZM966.471 878.056L957.418 895.889L980.643 907.68L986.037 882.197L966.471 878.056ZM967.303 874.125V854.125H951.093L947.736 869.983L967.303 874.125ZM1494.48 874.125L1514.03 878.367L1519.29 854.125H1494.48V874.125ZM1490.79 891.125L1471.25 886.883L1465.98 911.125H1490.79V891.125ZM1494.48 891.125L1514.03 895.367L1519.29 871.125H1494.48V891.125ZM1478.21 966.098V986.098H1494.33L1497.75 970.34L1478.21 966.098ZM1474.05 966.098V946.098H1457.93L1454.51 961.855L1474.05 966.098ZM1470.79 981.125L1451.25 976.883L1445.98 1001.12H1470.79V981.125ZM1474.48 981.125L1494.03 985.367L1499.29 961.125H1474.48V981.125ZM1458.21 1056.1V1076.1H1474.33L1477.75 1060.34L1458.21 1056.1ZM1435.18 1056.1V1036.1H1419.01L1415.62 1051.91L1435.18 1056.1ZM1420.09 1126.5V1146.5H1436.26L1439.64 1130.69L1420.09 1126.5ZM1415.73 1126.5V1106.5H1399.56L1396.18 1122.31L1415.73 1126.5ZM1412.14 1143.28L1392.58 1139.08L1387.4 1163.28H1412.14V1143.28ZM1415.78 1143.28L1435.34 1147.47L1440.52 1123.28H1415.78V1143.28ZM1401.97 1207.72L1382.41 1203.53L1377.23 1227.72H1401.97V1207.72ZM1423 1207.72L1442.58 1211.77L1447.54 1187.72H1423V1207.72ZM1419.49 1224.72L1399.9 1220.68L1394.94 1244.72H1419.49V1224.72ZM1423 1224.72L1442.58 1228.77L1447.54 1204.72H1423V1224.72ZM1407.88 1297.95V1317.95H1424.18L1427.47 1301.99L1407.88 1297.95ZM1402.95 1297.95V1277.95H1386.65L1383.36 1293.91L1402.95 1297.95ZM1399.49 1314.72L1379.9 1310.68L1374.94 1334.72H1399.49V1314.72ZM1403 1314.72L1422.58 1318.77L1427.54 1294.72H1403V1314.72ZM1389.71 1379.12L1370.12 1375.08L1365.16 1399.12H1389.71V1379.12ZM1670.98 1384.93L1664.41 1403.82L1685.82 1411.26L1690.54 1389.1L1670.98 1384.93ZM1672.21 1379.12V1359.12H1656.02L1652.65 1374.96L1672.21 1379.12ZM2054.98 1379.12V1359.12V1359.12V1379.12ZM2164.82 1508.15H2184.82V1508.15H2164.82ZM2164.7 1516.9L2144.71 1516.35L2144.69 1516.93L2144.71 1517.5L2164.7 1516.9ZM2164.82 1525.15H2184.82V1525.15H2164.82ZM2154.36 1612.91L2134.84 1608.57L2134.81 1608.71L2134.78 1608.86L2154.36 1612.91ZM2141.11 1665.76L2121.97 1659.95L2121.52 1661.45L2121.3 1662.99L2141.11 1665.76ZM2134.36 1702.91L2114.84 1698.57L2114.81 1698.71L2114.78 1698.86L2134.36 1702.91ZM1972.94 1892.95V1872.95H1956.75L1953.38 1888.79L1972.94 1892.95ZM1971.2 1901.12L1951.64 1896.96L1946.5 1921.12H1971.2V1901.12ZM1974.82 1901.12L1994.38 1905.29L1999.52 1881.12H1974.82V1901.12ZM1909.78 2206.68L1890.22 2202.52L1885.07 2226.68H1909.78V2206.68ZM2003.87 2206.68L2023.46 2210.73L2028.43 2186.68H2003.87V2206.68ZM2000.36 2223.68L1980.77 2219.63L1975.8 2243.68H2000.36V2223.68ZM2003.87 2223.68L2023.46 2227.73L2028.43 2203.68H2003.87V2223.68ZM1986.44 2307.95V2327.95H2002.72L2006.02 2312.01L1986.44 2307.95ZM1981.54 2307.95V2287.95H1965.25L1961.96 2303.9L1981.54 2307.95ZM1980.36 2313.68L1960.77 2309.63L1955.8 2333.68H1980.36V2313.68ZM1983.87 2313.68L2003.46 2317.73L2008.43 2293.68H1983.87V2313.68ZM1966.44 2397.95V2417.95H1982.72L1986.02 2402.01L1966.44 2397.95ZM1381.41 2397.95L1361.86 2393.77L1356.69 2417.95H1381.41V2397.95ZM1385.05 2380.95L1404.6 2385.13L1409.77 2360.95H1385.05V2380.95ZM1381.41 2380.95L1361.85 2376.78L1356.69 2400.95H1381.41V2380.95ZM1383.23 2372.47L1402.78 2376.64L1417 2310.08L1369.03 2358.38L1383.23 2372.47ZM1303.51 2403.76V2423.76V2423.76V2403.76ZM1277.4 2401.62L1280.85 2381.92L1277.28 2381.3L1273.73 2381.96L1277.4 2401.62ZM1253.51 2403.76V2423.76V2423.76V2403.76ZM1227.4 2401.62L1230.85 2381.92L1227.28 2381.3L1223.73 2381.96L1227.4 2401.62ZM1203.51 2403.76V2423.76V2423.76V2403.76ZM1162.27 2397.95L1168.31 2378.89L1165.37 2377.95H1162.27V2397.95ZM674.801 2397.95L655.242 2393.77L650.077 2417.95H674.801V2397.95ZM678.433 2380.95L697.991 2385.13L703.157 2360.95H678.433V2380.95ZM674.801 2380.95L655.242 2376.77L650.076 2400.95H674.801V2380.95ZM742.073 2066.1L761.632 2070.28L766.798 2046.1H742.073V2066.1ZM679.45 2066.1L659.905 2061.85L654.643 2086.1H679.45V2066.1ZM683.141 2049.1L702.685 2053.34L707.948 2029.1H683.141V2049.1ZM679.45 2049.1L659.905 2044.86L654.643 2069.1H679.45V2049.1ZM695.724 1974.12V1954.12H679.599L676.179 1969.88L695.724 1974.12ZM699.878 1974.12V1994.12H716.002L719.423 1978.37L699.878 1974.12ZM703.141 1959.1L722.685 1963.34L727.949 1939.1H703.141V1959.1ZM699.45 1959.1L679.905 1954.86L674.643 1979.1H699.45V1959.1ZM712.896 1897.15L732.44 1901.39L736.895 1880.87L716.177 1877.42L712.896 1897.15ZM639.93 1786.6H619.93V1786.6H639.93ZM640.056 1777.42L660.048 1777.97L660.065 1777.37L660.045 1776.76L640.056 1777.42ZM639.93 1769.6H619.93V1769.6H639.93ZM642.255 1732.4V1712.4H624.797L622.438 1729.7L642.255 1732.4ZM662.956 1732.4V1752.4H687.006L682.621 1728.75L662.956 1732.4ZM659.93 1696.6H639.93H639.93H659.93ZM660.056 1687.42L680.048 1687.97L680.065 1687.37L680.045 1686.76L660.056 1687.42ZM659.93 1679.6H639.93H639.93H659.93ZM662.255 1642.4V1622.4H644.797L642.438 1639.7L662.255 1642.4ZM679.892 1642.4V1662.4H706.5L699.103 1636.84L679.892 1642.4ZM675.382 1609.92H655.382V1609.92H675.382ZM675.619 1600.62L695.593 1601.65L695.651 1600.51L695.581 1599.38L675.619 1600.62ZM675.382 1592.92H655.382V1592.92H675.382ZM695.481 1513.91L712.682 1524.12L715.302 1519.7L715.471 1514.57L695.481 1513.91ZM695.619 1510.62L715.593 1511.65L715.651 1510.51L715.581 1509.38L695.619 1510.62ZM695.382 1502.92H675.382V1502.92H695.382ZM741.668 1393.71L753.98 1409.47L802.08 1371.9L741.07 1373.72L741.668 1393.71ZM738.149 1393.76L738.149 1413.76H738.149V1393.76ZM644.579 1274.62L624.579 1274.62V1274.62H644.579ZM644.696 1265.82L664.69 1266.34L664.704 1265.79L664.688 1265.24L644.696 1265.82ZM644.579 1257.62L624.579 1257.62V1257.62H644.579ZM656.784 1155.92L676.336 1160.13L676.34 1160.11L676.344 1160.09L656.784 1155.92ZM669.861 1103.42L689.063 1109.01L689.435 1107.73L689.635 1106.42L669.861 1103.42ZM676.784 1065.92L696.336 1070.13L696.34 1070.11L696.344 1070.09L676.784 1065.92ZM820.336 868.313V848.313H820.336L820.336 868.313ZM846.405 870.98L842.059 890.502L846.514 891.494L850.958 890.455L846.405 870.98ZM870.336 868.313V848.313H870.336L870.336 868.313ZM896.405 870.98L892.059 890.502L896.514 891.494L900.958 890.455L896.405 870.98ZM920.336 868.313V888.313C936.159 888.313 948.214 891.217 957.418 895.889L966.471 878.056L975.524 860.222C959.558 852.117 941.018 848.313 920.336 848.313V868.313ZM966.471 878.056L986.037 882.197L986.869 878.267L967.303 874.125L947.736 869.983L946.904 873.914L966.471 878.056ZM967.303 874.125V894.125H1494.48V874.125V854.125H967.303V874.125ZM1494.48 874.125L1474.94 869.883L1471.25 886.883L1490.79 891.125L1510.34 895.367L1514.03 878.367L1494.48 874.125ZM1490.79 891.125V911.125H1494.48V891.125V871.125H1490.79V891.125ZM1494.48 891.125L1474.94 886.883L1458.66 961.856L1478.21 966.098L1497.75 970.34L1514.03 895.367L1494.48 891.125ZM1478.21 966.098V946.098H1474.05V966.098V986.098H1478.21V966.098ZM1474.05 966.098L1454.51 961.855L1451.25 976.883L1470.79 981.125L1490.34 985.367L1493.6 970.34L1474.05 966.098ZM1470.79 981.125V1001.12H1474.48V981.125V961.125H1470.79V981.125ZM1474.48 981.125L1454.94 976.883L1438.66 1051.86L1458.21 1056.1L1477.75 1060.34L1494.03 985.367L1474.48 981.125ZM1458.21 1056.1V1036.1H1435.18V1056.1V1076.1H1458.21V1056.1ZM1435.18 1056.1L1415.62 1051.91L1400.53 1122.31L1420.09 1126.5L1439.64 1130.69L1454.73 1060.29L1435.18 1056.1ZM1420.09 1126.5V1106.5H1415.73V1126.5V1146.5H1420.09V1126.5ZM1415.73 1126.5L1396.18 1122.31L1392.58 1139.08L1412.14 1143.28L1431.69 1147.47L1435.29 1130.69L1415.73 1126.5ZM1412.14 1143.28V1163.28H1415.78V1143.28V1123.28H1412.14V1143.28ZM1415.78 1143.28L1396.23 1139.08L1382.41 1203.53L1401.97 1207.72L1421.53 1211.91L1435.34 1147.47L1415.78 1143.28ZM1401.97 1207.72V1227.72H1423V1207.72V1187.72H1401.97V1207.72ZM1423 1207.72L1403.41 1203.68L1399.9 1220.68L1419.49 1224.72L1439.07 1228.77L1442.58 1211.77L1423 1207.72ZM1419.49 1224.72V1244.72H1423V1224.72V1204.72H1419.49V1224.72ZM1423 1224.72L1403.41 1220.68L1388.3 1293.91L1407.88 1297.95L1427.47 1301.99L1442.58 1228.77L1423 1224.72ZM1407.88 1297.95V1277.95H1402.95V1297.95V1317.95H1407.88V1297.95ZM1402.95 1297.95L1383.36 1293.91L1379.9 1310.68L1399.49 1314.72L1419.07 1318.77L1422.54 1302L1402.95 1297.95ZM1399.49 1314.72V1334.72H1403V1314.72V1294.72H1399.49V1314.72ZM1403 1314.72L1383.41 1310.68L1370.12 1375.08L1389.71 1379.12L1409.29 1383.17L1422.58 1318.77L1403 1314.72ZM1389.71 1379.12V1399.12H1633.81V1379.12V1359.12H1389.71V1379.12ZM1633.81 1379.12V1399.12C1645.87 1399.12 1655.99 1400.89 1664.41 1403.82L1670.98 1384.93L1677.54 1366.04C1664.41 1361.47 1649.79 1359.12 1633.81 1359.12V1379.12ZM1670.98 1384.93L1690.54 1389.1L1691.77 1383.29L1672.21 1379.12L1652.65 1374.96L1651.42 1380.76L1670.98 1384.93ZM1672.21 1379.12V1399.12H2054.98V1379.12V1359.12H1672.21V1379.12ZM2054.98 1379.12V1399.12C2089.44 1399.13 2110.48 1410.22 2123.57 1426.96C2137.35 1444.6 2144.82 1471.71 2144.82 1508.15H2164.82H2184.82C2184.82 1467.29 2176.61 1429.89 2155.08 1402.34C2132.86 1373.89 2098.98 1359.13 2054.98 1359.12V1379.12ZM2164.82 1508.15H2144.82C2144.82 1510.83 2144.78 1513.57 2144.71 1516.35L2164.7 1516.9L2184.69 1517.45C2184.78 1514.33 2184.82 1511.23 2184.82 1508.15H2164.82ZM2164.7 1516.9L2144.71 1517.5C2144.79 1520.02 2144.82 1522.56 2144.82 1525.15H2164.82H2184.82C2184.82 1522.16 2184.78 1519.21 2184.69 1516.29L2164.7 1516.9ZM2164.82 1525.15H2144.82C2144.82 1550.19 2141.55 1578.37 2134.84 1608.57L2154.36 1612.91L2173.89 1617.24C2181.12 1584.68 2184.82 1553.57 2184.82 1525.15H2164.82ZM2154.36 1612.91L2134.78 1608.86C2130.9 1627.61 2126.63 1644.61 2121.97 1659.95L2141.11 1665.76L2160.25 1671.56C2165.31 1654.89 2169.86 1636.71 2173.95 1616.96L2154.36 1612.91ZM2141.11 1665.76L2121.3 1662.99C2119.7 1674.48 2117.55 1686.37 2114.84 1698.57L2134.36 1702.91L2153.89 1707.24C2156.82 1694.06 2159.16 1681.12 2160.92 1668.52L2141.11 1665.76ZM2134.36 1702.91L2114.78 1698.86C2100.81 1766.43 2081.93 1810.09 2059.4 1836.64C2037.77 1862.11 2011.85 1872.95 1979.19 1872.95V1892.95V1912.95C2022.66 1912.95 2060.08 1897.64 2089.89 1862.53C2118.79 1828.48 2139.44 1777.12 2153.95 1706.96L2134.36 1702.91ZM1979.19 1892.95V1872.95H1972.94V1892.95V1912.95H1979.19V1892.95ZM1972.94 1892.95L1953.38 1888.79L1951.64 1896.96L1971.2 1901.12L1990.76 1905.29L1992.5 1897.12L1972.94 1892.95ZM1971.2 1901.12V1921.12H1974.82V1901.12V1881.12H1971.2V1901.12ZM1974.82 1901.12L1955.26 1896.96L1890.22 2202.52L1909.78 2206.68L1929.34 2210.85L1994.38 1905.29L1974.82 1901.12ZM1909.78 2206.68V2226.68H2003.87V2206.68V2186.68H1909.78V2206.68ZM2003.87 2206.68L1984.29 2202.63L1980.77 2219.63L2000.36 2223.68L2019.94 2227.73L2023.46 2210.73L2003.87 2206.68ZM2000.36 2223.68V2243.68H2003.87V2223.68V2203.68H2000.36V2223.68ZM2003.87 2223.68L1984.29 2219.63L1966.85 2303.9L1986.44 2307.95L2006.02 2312.01L2023.46 2227.73L2003.87 2223.68ZM1986.44 2307.95V2287.95H1981.54V2307.95V2327.95H1986.44V2307.95ZM1981.54 2307.95L1961.96 2303.9L1960.77 2309.63L1980.36 2313.68L1999.94 2317.73L2001.13 2312L1981.54 2307.95ZM1980.36 2313.68V2333.68H1983.87V2313.68V2293.68H1980.36V2313.68ZM1983.87 2313.68L1964.29 2309.63L1946.85 2393.9L1966.44 2397.95L1986.02 2402.01L2003.46 2317.73L1983.87 2313.68ZM1966.44 2397.95V2377.95H1381.41V2397.95V2417.95H1966.44V2397.95ZM1381.41 2397.95L1400.97 2402.13L1404.6 2385.13L1385.05 2380.95L1365.49 2376.77L1361.86 2393.77L1381.41 2397.95ZM1385.05 2380.95V2360.95H1381.41V2380.95V2400.95H1385.05V2380.95ZM1381.41 2380.95L1400.97 2385.13L1402.78 2376.64L1383.23 2372.47L1363.67 2368.29L1361.85 2376.78L1381.41 2380.95ZM1383.23 2372.47L1369.03 2358.38C1352.81 2374.72 1330.87 2383.76 1303.51 2383.76V2403.76V2423.76C1340.36 2423.76 1372.9 2411.25 1397.42 2386.56L1383.23 2372.47ZM1303.51 2403.76V2383.76C1295.25 2383.76 1287.69 2383.12 1280.85 2381.92L1277.4 2401.62L1273.95 2421.32C1283.3 2422.96 1293.17 2423.76 1303.51 2423.76V2403.76ZM1277.4 2401.62L1273.73 2381.96C1267.39 2383.14 1260.65 2383.76 1253.51 2383.76V2403.76V2423.76C1262.97 2423.76 1272.18 2422.94 1281.07 2421.28L1277.4 2401.62ZM1253.51 2403.76V2383.76C1245.25 2383.76 1237.69 2383.12 1230.85 2381.92L1227.4 2401.62L1223.95 2421.32C1233.3 2422.96 1243.17 2423.76 1253.51 2423.76V2403.76ZM1227.4 2401.62L1223.73 2381.96C1217.39 2383.14 1210.65 2383.76 1203.51 2383.76V2403.76V2423.76C1212.97 2423.76 1222.18 2422.94 1231.07 2421.28L1227.4 2401.62ZM1203.51 2403.76V2383.76C1189.8 2383.76 1178.1 2381.99 1168.31 2378.89L1162.27 2397.95L1156.23 2417.02C1170.54 2421.55 1186.41 2423.76 1203.51 2423.76V2403.76ZM1162.27 2397.95V2377.95H674.801V2397.95V2417.95H1162.27V2397.95ZM674.801 2397.95L694.359 2402.13L697.991 2385.13L678.433 2380.95L658.874 2376.77L655.242 2393.77L674.801 2397.95ZM678.433 2380.95V2360.95H674.801V2380.95V2400.95H678.433V2380.95ZM674.801 2380.95L694.359 2385.13L761.632 2070.28L742.073 2066.1L722.515 2061.92L655.242 2376.77L674.801 2380.95ZM742.073 2066.1V2046.1H679.45V2066.1V2086.1H742.073V2066.1ZM679.45 2066.1L698.995 2070.34L702.685 2053.34L683.141 2049.1L663.596 2044.85L659.905 2061.85L679.45 2066.1ZM683.141 2049.1V2029.1H679.45V2049.1V2069.1H683.141V2049.1ZM679.45 2049.1L698.995 2053.34L715.269 1978.37L695.724 1974.12L676.179 1969.88L659.905 2044.86L679.45 2049.1ZM695.724 1974.12V1994.12H699.878V1974.12V1954.12H695.724V1974.12ZM699.878 1974.12L719.423 1978.37L722.685 1963.34L703.141 1959.1L683.596 1954.85L680.333 1969.88L699.878 1974.12ZM703.141 1959.1V1939.1H699.45V1959.1V1979.1H703.141V1959.1ZM699.45 1959.1L718.995 1963.34L732.44 1901.39L712.896 1897.15L693.351 1892.91L679.905 1954.86L699.45 1959.1ZM712.896 1897.15L716.177 1877.42C695.746 1874.02 682.637 1864.46 674.027 1850.47C664.924 1835.68 659.93 1814.33 659.93 1786.6H639.93H619.93C619.93 1818.35 625.525 1847.97 639.959 1871.43C654.886 1895.69 678.259 1911.67 709.614 1916.88L712.896 1897.15ZM639.93 1786.6H659.93C659.93 1783.78 659.967 1780.9 660.048 1777.97L640.056 1777.42L620.063 1776.86C619.971 1780.18 619.93 1783.43 619.93 1786.6H639.93ZM640.056 1777.42L660.045 1776.76C659.968 1774.42 659.93 1772.03 659.93 1769.6H639.93H619.93C619.93 1772.45 619.975 1775.27 620.066 1778.07L640.056 1777.42ZM639.93 1769.6H659.93C659.93 1758.6 660.483 1746.76 662.071 1735.1L642.255 1732.4L622.438 1729.7C620.54 1743.62 619.93 1757.35 619.93 1769.6H639.93ZM642.255 1732.4V1752.4H662.956V1732.4V1712.4H642.255V1732.4ZM662.956 1732.4L682.621 1728.75C680.834 1719.12 679.93 1708.38 679.93 1696.6H659.93H639.93C639.93 1710.37 640.983 1723.6 643.291 1736.05L662.956 1732.4ZM659.93 1696.6H679.93C679.93 1693.78 679.967 1690.9 680.048 1687.97L660.056 1687.42L640.063 1686.86C639.971 1690.18 639.93 1693.43 639.93 1696.6H659.93ZM660.056 1687.42L680.045 1686.76C679.968 1684.42 679.93 1682.03 679.93 1679.6H659.93H639.93C639.93 1682.45 639.975 1685.27 640.066 1688.07L660.056 1687.42ZM659.93 1679.6H679.93C679.93 1668.6 680.483 1656.76 682.071 1645.1L662.255 1642.4L642.438 1639.7C640.54 1653.62 639.93 1667.35 639.93 1679.6H659.93ZM662.255 1642.4V1662.4H679.892V1642.4V1622.4H662.255V1642.4ZM679.892 1642.4L699.103 1636.84C696.767 1628.77 695.382 1619.89 695.382 1609.92H675.382H655.382C655.382 1623.7 657.311 1636.32 660.68 1647.96L679.892 1642.4ZM675.382 1609.92H695.382C695.382 1607.14 695.453 1604.38 695.593 1601.65L675.619 1600.62L655.645 1599.6C655.471 1603.02 655.382 1606.46 655.382 1609.92H675.382ZM675.619 1600.62L695.581 1599.38C695.45 1597.28 695.382 1595.13 695.382 1592.92H675.382H655.382C655.382 1595.95 655.475 1598.93 655.658 1601.87L675.619 1600.62ZM675.382 1592.92H695.382C695.382 1566.77 701.612 1542.77 712.682 1524.12L695.481 1513.91L678.281 1503.71C663.016 1529.43 655.382 1560.7 655.382 1592.92H675.382ZM695.481 1513.91L715.471 1514.57C715.503 1513.59 715.544 1512.61 715.593 1511.65L695.619 1510.62L675.645 1509.6C675.583 1510.82 675.532 1512.04 675.492 1513.25L695.481 1513.91ZM695.619 1510.62L715.581 1509.38C715.45 1507.28 715.382 1505.13 715.382 1502.92H695.382H675.382C675.382 1505.95 675.475 1508.93 675.658 1511.87L695.619 1510.62ZM695.382 1502.92H715.382C715.382 1462.51 730.115 1428.11 753.98 1409.47L741.668 1393.71L729.356 1377.95C693.181 1406.21 675.382 1453.93 675.382 1502.92H695.382ZM741.668 1393.71L741.07 1373.72C740.078 1373.75 739.106 1373.76 738.149 1373.76V1393.76V1413.76C739.553 1413.76 740.926 1413.74 742.266 1413.7L741.668 1393.71ZM738.149 1393.76L738.149 1373.76C710.092 1373.76 693.271 1364.5 682.634 1350.03C671.161 1334.42 664.579 1309.64 664.579 1274.62H644.579H624.579C624.579 1313.41 631.655 1348.21 650.403 1373.72C669.988 1400.36 699.952 1413.76 738.149 1413.76L738.149 1393.76ZM644.579 1274.62L664.579 1274.62C664.579 1271.92 664.616 1269.16 664.69 1266.34L644.696 1265.82L624.703 1265.3C624.621 1268.44 624.579 1271.55 624.579 1274.62L644.579 1274.62ZM644.696 1265.82L664.688 1265.24C664.616 1262.75 664.579 1260.21 664.579 1257.62H644.579H624.579C624.579 1260.59 624.621 1263.51 624.705 1266.4L644.696 1265.82ZM644.579 1257.62L664.579 1257.62C664.579 1229.73 668.419 1196.88 676.336 1160.13L656.784 1155.92L637.233 1151.7C628.876 1190.5 624.579 1226.24 624.579 1257.62L644.579 1257.62ZM656.784 1155.92L676.344 1160.09C680.307 1141.51 684.547 1124.51 689.063 1109.01L669.861 1103.42L650.659 1097.82C645.831 1114.4 641.361 1132.36 637.225 1151.74L656.784 1155.92ZM669.861 1103.42L689.635 1106.42C691.4 1094.79 693.632 1082.68 696.336 1070.13L676.784 1065.92L657.233 1061.7C654.369 1075 651.985 1087.92 650.088 1100.41L669.861 1103.42ZM676.784 1065.92L696.344 1070.09C710.954 1001.62 729.103 955.533 750.259 926.915C770.617 899.375 793.395 888.313 820.336 888.313L820.336 868.313L820.336 848.313C779.278 848.314 745.101 866.601 718.093 903.137C691.882 938.595 672.255 991.305 657.225 1061.74L676.784 1065.92ZM820.336 868.313V888.313C828.546 888.313 835.75 889.098 842.059 890.502L846.405 870.98L850.752 851.458C841.228 849.338 831.076 848.313 820.336 848.313V868.313ZM846.405 870.98L850.958 890.455C857.013 889.04 863.452 888.313 870.336 888.313L870.336 868.313L870.336 848.313C860.615 848.313 851.107 849.342 841.853 851.506L846.405 870.98ZM870.336 868.313V888.313C878.546 888.313 885.75 889.098 892.059 890.502L896.405 870.98L900.752 851.458C891.228 849.338 881.076 848.313 870.336 848.313V868.313ZM896.405 870.98L900.958 890.455C907.013 889.04 913.452 888.313 920.336 888.313L920.336 868.313L920.336 848.313C910.615 848.313 901.107 849.342 891.853 851.506L896.405 870.98Z" fill="#7F072A" mask="url(#path-13-outside-1_213_1893)"/>
<mask id="path-15-outside-2_213_1893" maskUnits="userSpaceOnUse" x="753.605" y="867.953" width="754" height="439" fill="black">
<rect fill="white" x="753.605" y="867.953" width="754" height="439"/>
<path d="M858.15 1296.76C791.895 1296.76 764.58 1251.43 764.58 1177.62C764.58 1147.98 768.648 1113.69 776.784 1075.92C806.425 937.013 852.338 878.314 920.337 878.314C986.591 878.314 1013.91 922.483 1013.91 995.712C1013.91 1025.35 1009.26 1060.22 1001.12 1098.58C972.062 1238.07 926.73 1296.76 858.15 1296.76ZM863.381 1220.63C880.816 1220.63 895.927 1188.08 916.849 1089.86C925.567 1049.18 930.798 1013.73 930.798 989.901C930.798 967.235 926.148 954.448 915.106 954.448C898.252 954.448 882.56 986.414 861.637 1084.63C852.919 1125.32 847.689 1160.77 847.689 1185.18C847.689 1207.26 852.338 1220.63 863.381 1220.63ZM981.288 1290.95L1067.3 884.125H1160.29V1021.87L1158.55 1169.49L1188.19 1021.87L1216.09 884.125H1284.08L1198.07 1290.95H1104.5V1153.21L1106.24 1005.59L1076.6 1153.21L1049.29 1290.95H981.288ZM1222.49 1290.95L1309.08 884.125H1494.48L1478.21 959.098H1379.41L1360.81 1046.28H1435.78L1420.09 1119.5H1345.12L1324.19 1217.72H1423L1407.88 1290.95H1222.49Z"/>
</mask>
<path d="M858.15 1296.76C791.895 1296.76 764.58 1251.43 764.58 1177.62C764.58 1147.98 768.648 1113.69 776.784 1075.92C806.425 937.013 852.338 878.314 920.337 878.314C986.591 878.314 1013.91 922.483 1013.91 995.712C1013.91 1025.35 1009.26 1060.22 1001.12 1098.58C972.062 1238.07 926.73 1296.76 858.15 1296.76ZM863.381 1220.63C880.816 1220.63 895.927 1188.08 916.849 1089.86C925.567 1049.18 930.798 1013.73 930.798 989.901C930.798 967.235 926.148 954.448 915.106 954.448C898.252 954.448 882.56 986.414 861.637 1084.63C852.919 1125.32 847.689 1160.77 847.689 1185.18C847.689 1207.26 852.338 1220.63 863.381 1220.63ZM981.288 1290.95L1067.3 884.125H1160.29V1021.87L1158.55 1169.49L1188.19 1021.87L1216.09 884.125H1284.08L1198.07 1290.95H1104.5V1153.21L1106.24 1005.59L1076.6 1153.21L1049.29 1290.95H981.288ZM1222.49 1290.95L1309.08 884.125H1494.48L1478.21 959.098H1379.41L1360.81 1046.28H1435.78L1420.09 1119.5H1345.12L1324.19 1217.72H1423L1407.88 1290.95H1222.49Z" fill="#CBBC9D"/>
<path d="M776.784 1075.92L786.56 1078.02L786.562 1078.01L786.564 1078L776.784 1075.92ZM1001.12 1098.58L991.339 1096.51L991.335 1096.52L991.331 1096.54L1001.12 1098.58ZM916.849 1089.86L907.071 1087.77L907.069 1087.78L916.849 1089.86ZM861.637 1084.63L871.415 1086.73L871.418 1086.72L861.637 1084.63ZM858.15 1296.76V1286.76C827.558 1286.76 807.451 1276.47 794.577 1258.95C781.285 1240.87 774.58 1213.58 774.58 1177.62H764.58H754.58C754.58 1215.47 761.532 1247.76 778.462 1270.79C795.809 1294.4 822.488 1306.76 858.15 1306.76V1296.76ZM764.58 1177.62H774.58C774.58 1148.85 778.534 1115.29 786.56 1078.02L776.784 1075.92L767.009 1073.81C758.762 1112.1 754.58 1147.11 754.58 1177.62H764.58ZM776.784 1075.92L786.564 1078C801.279 1009.04 819.798 961.298 842.218 930.971C864.238 901.182 889.867 888.314 920.337 888.314V878.314V868.314C882.808 868.314 851.481 884.795 826.135 919.082C801.188 952.829 781.93 1003.89 767.005 1073.83L776.784 1075.92ZM920.337 878.314V888.314C951.023 888.314 971.126 898.39 983.96 915.543C997.204 933.244 1003.91 960.05 1003.91 995.712H1013.91H1023.91C1023.91 958.146 1016.95 926.253 999.974 903.561C982.587 880.323 955.905 868.314 920.337 868.314V878.314ZM1013.91 995.712H1003.91C1003.91 1024.4 999.396 1058.52 991.339 1096.51L1001.12 1098.58L1010.9 1100.66C1019.12 1061.93 1023.91 1026.31 1023.91 995.712H1013.91ZM1001.12 1098.58L991.331 1096.54C976.901 1165.81 958.663 1213.68 936.39 1244.07C914.533 1273.89 888.925 1286.76 858.15 1286.76V1296.76V1306.76C895.954 1306.76 927.302 1290.29 952.521 1255.89C977.324 1222.06 996.282 1170.84 1010.91 1100.62L1001.12 1098.58ZM863.381 1220.63V1230.63C871.315 1230.63 878.027 1226.77 883.527 1220.76C888.849 1214.94 893.559 1206.59 898.027 1195.95C906.992 1174.6 916.157 1141.11 926.63 1091.95L916.849 1089.86L907.069 1087.78C896.62 1136.83 887.767 1168.73 879.587 1188.21C875.484 1197.98 871.838 1203.91 868.77 1207.26C865.879 1210.42 864.164 1210.63 863.381 1210.63V1220.63ZM916.849 1089.86L926.627 1091.96C935.378 1051.13 940.798 1014.83 940.798 989.901H930.798H920.798C920.798 1012.63 915.757 1047.24 907.071 1087.77L916.849 1089.86ZM930.798 989.901H940.798C940.798 978.2 939.644 967.704 936.307 959.789C934.591 955.719 932.085 951.819 928.371 948.919C924.511 945.905 919.949 944.448 915.106 944.448V954.448V964.448C915.784 964.448 915.944 964.59 916.062 964.682C916.325 964.888 917.052 965.601 917.879 967.56C919.626 971.705 920.798 978.936 920.798 989.901H930.798ZM915.106 954.448V944.448C907.289 944.448 900.66 948.297 895.223 954.208C889.939 959.952 885.21 968.209 880.699 978.785C871.65 1000 862.336 1033.35 851.857 1082.55L861.637 1084.63L871.418 1086.72C881.861 1037.69 890.854 1005.95 899.095 986.632C903.229 976.94 906.891 971.066 909.943 967.748C912.843 964.595 914.495 964.448 915.106 964.448V954.448ZM861.637 1084.63L851.859 1082.54C843.107 1123.38 837.689 1159.68 837.689 1185.18H847.689H857.689C857.689 1161.86 862.732 1127.25 871.415 1086.73L861.637 1084.63ZM847.689 1185.18H837.689C837.689 1196.63 838.851 1207.08 842.163 1215.03C843.859 1219.1 846.333 1223.04 850.006 1225.99C853.838 1229.07 858.429 1230.63 863.381 1230.63V1220.63V1210.63C862.811 1210.63 862.68 1210.52 862.535 1210.4C862.23 1210.16 861.471 1209.37 860.625 1207.34C858.851 1203.08 857.689 1195.82 857.689 1185.18H847.689ZM981.288 1290.95L971.504 1288.88L968.953 1300.95H981.288V1290.95ZM1067.3 884.125V874.125H1059.2L1057.52 882.057L1067.3 884.125ZM1160.29 884.125H1170.29V874.125H1160.29V884.125ZM1160.29 1021.87L1170.29 1021.98L1170.29 1021.92V1021.87H1160.29ZM1158.55 1169.49L1148.55 1169.37L1168.35 1171.45L1158.55 1169.49ZM1188.19 1021.87L1178.39 1019.88L1178.39 1019.89L1178.38 1019.9L1188.19 1021.87ZM1216.09 884.125V874.125H1207.91L1206.28 882.14L1216.09 884.125ZM1284.08 884.125L1293.87 886.194L1296.42 874.125H1284.08V884.125ZM1198.07 1290.95V1300.95H1206.18L1207.85 1293.02L1198.07 1290.95ZM1104.5 1290.95H1094.5V1300.95H1104.5V1290.95ZM1104.5 1153.21L1094.5 1153.09L1094.5 1153.15V1153.21H1104.5ZM1106.24 1005.59L1116.24 1005.71L1096.44 1003.62L1106.24 1005.59ZM1076.6 1153.21L1066.8 1151.24L1066.8 1151.26L1066.79 1151.27L1076.6 1153.21ZM1049.29 1290.95V1300.95H1057.5L1059.1 1292.9L1049.29 1290.95ZM981.288 1290.95L991.072 1293.02L1077.09 886.194L1067.3 884.125L1057.52 882.057L971.504 1288.88L981.288 1290.95ZM1067.3 884.125V894.125H1160.29V884.125V874.125H1067.3V884.125ZM1160.29 884.125H1150.29V1021.87H1160.29H1170.29V884.125H1160.29ZM1160.29 1021.87L1150.29 1021.75L1148.55 1169.37L1158.55 1169.49L1168.55 1169.6L1170.29 1021.98L1160.29 1021.87ZM1158.55 1169.49L1168.35 1171.45L1197.99 1023.83L1188.19 1021.87L1178.38 1019.9L1148.74 1167.52L1158.55 1169.49ZM1188.19 1021.87L1197.99 1023.85L1225.89 886.11L1216.09 884.125L1206.28 882.14L1178.39 1019.88L1188.19 1021.87ZM1216.09 884.125V894.125H1284.08V884.125V874.125H1216.09V884.125ZM1284.08 884.125L1274.3 882.057L1188.29 1288.88L1198.07 1290.95L1207.85 1293.02L1293.87 886.194L1284.08 884.125ZM1198.07 1290.95V1280.95H1104.5V1290.95V1300.95H1198.07V1290.95ZM1104.5 1290.95H1114.5V1153.21H1104.5H1094.5V1290.95H1104.5ZM1104.5 1153.21L1114.5 1153.33L1116.24 1005.71L1106.24 1005.59L1096.24 1005.47L1094.5 1153.09L1104.5 1153.21ZM1106.24 1005.59L1096.44 1003.62L1066.8 1151.24L1076.6 1153.21L1086.41 1155.18L1116.05 1007.56L1106.24 1005.59ZM1076.6 1153.21L1066.79 1151.27L1039.48 1289.01L1049.29 1290.95L1059.1 1292.9L1086.41 1155.16L1076.6 1153.21ZM1049.29 1290.95V1280.95H981.288V1290.95V1300.95H1049.29V1290.95ZM1222.49 1290.95L1212.71 1288.87L1210.14 1300.95H1222.49V1290.95ZM1309.08 884.125V874.125H1300.99L1299.3 882.044L1309.08 884.125ZM1494.48 884.125L1504.25 886.247L1506.88 874.125H1494.48V884.125ZM1478.21 959.098V969.098H1486.27L1487.98 961.219L1478.21 959.098ZM1379.41 959.098V949.098H1371.32L1369.63 957.012L1379.41 959.098ZM1360.81 1046.28L1351.03 1044.19L1348.45 1056.28H1360.81V1046.28ZM1435.78 1046.28L1445.56 1048.37L1448.15 1036.28H1435.78V1046.28ZM1420.09 1119.5V1129.5H1428.17L1429.87 1121.6L1420.09 1119.5ZM1345.12 1119.5V1109.5H1337.02L1335.34 1117.42L1345.12 1119.5ZM1324.19 1217.72L1314.41 1215.64L1311.84 1227.72H1324.19V1217.72ZM1423 1217.72L1432.79 1219.75L1435.27 1207.72H1423V1217.72ZM1407.89 1290.95V1300.95H1416.03L1417.68 1292.97L1407.89 1290.95ZM1222.49 1290.95L1232.27 1293.04L1318.86 886.207L1309.08 884.125L1299.3 882.044L1212.71 1288.87L1222.49 1290.95ZM1309.08 884.125V894.125H1494.48V884.125V874.125H1309.08V884.125ZM1494.48 884.125L1484.71 882.004L1468.44 956.977L1478.21 959.098L1487.98 961.219L1504.25 886.247L1494.48 884.125ZM1478.21 959.098V949.098H1379.41V959.098V969.098H1478.21V959.098ZM1379.41 959.098L1369.63 957.012L1351.03 1044.19L1360.81 1046.28L1370.59 1048.36L1389.19 961.184L1379.41 959.098ZM1360.81 1046.28V1056.28H1435.78V1046.28V1036.28H1360.81V1046.28ZM1435.78 1046.28L1426 1044.18L1410.31 1117.41L1420.09 1119.5L1429.87 1121.6L1445.56 1048.37L1435.78 1046.28ZM1420.09 1119.5V1109.5H1345.12V1119.5V1129.5H1420.09V1119.5ZM1345.12 1119.5L1335.34 1117.42L1314.41 1215.64L1324.19 1217.72L1333.98 1219.81L1354.9 1121.59L1345.12 1119.5ZM1324.19 1217.72V1227.72H1423V1217.72V1207.72H1324.19V1217.72ZM1423 1217.72L1413.2 1215.7L1398.09 1288.93L1407.89 1290.95L1417.68 1292.97L1432.79 1219.75L1423 1217.72ZM1407.89 1290.95V1280.95H1222.49V1290.95V1300.95H1407.89V1290.95Z" fill="#7F072A" mask="url(#path-15-outside-2_213_1893)"/>
<mask id="path-17-outside-3_213_1893" maskUnits="userSpaceOnUse" x="749.605" y="1372.95" width="1426" height="439" fill="black">
<rect fill="white" x="749.605" y="1372.95" width="1426" height="439"/>
<path d="M853.501 1801.76C786.665 1801.76 759.93 1756.43 759.93 1689.6C759.93 1677.97 760.511 1665.19 762.255 1652.4H839.552C837.227 1667.51 836.065 1680.88 836.065 1693.08C836.065 1716.33 841.296 1731.44 856.406 1731.44C874.423 1731.44 883.141 1704.13 883.141 1683.78C883.141 1658.21 865.705 1639.03 846.526 1617.53C822.698 1590.8 795.382 1561.16 795.382 1512.92C795.382 1443.76 834.322 1383.31 902.901 1383.31C970.318 1383.31 997.634 1430.97 997.634 1497.23C997.634 1507.69 996.471 1519.31 995.309 1530.93H919.755C921.499 1517.57 922.661 1504.78 922.661 1493.74C922.661 1470.49 917.431 1454.22 904.063 1454.22C887.209 1454.22 878.491 1480.37 878.491 1499.55C878.491 1522.8 894.183 1541.4 912.781 1561.74C937.772 1589.05 966.831 1619.27 966.831 1669.84C966.831 1742.48 923.824 1801.76 853.501 1801.76ZM962.545 1795.95L1049.14 1389.13H1135.16L1101.45 1548.37H1147.36L1181.07 1389.13H1266.5L1179.91 1795.95H1094.47L1131.09 1623.92H1085.17L1048.56 1795.95H962.545ZM1193.85 1795.95L1345.54 1389.13H1454.8L1433.3 1795.95H1353.68L1360.07 1716.91H1302.53L1275.8 1795.95H1193.85ZM1328.1 1641.94L1325.78 1648.91H1365.88L1366.46 1641.94L1382.15 1478.05L1328.1 1641.94ZM1446.67 1795.95L1533.27 1389.13H1633.82C1698.33 1389.13 1727.97 1432.71 1727.97 1483.86C1727.97 1493.16 1726.8 1503.04 1725.06 1512.92C1715.76 1556.51 1694.84 1584.98 1662.87 1598.93C1680.89 1608.81 1689.03 1625.09 1689.03 1647.75C1689.03 1678.55 1668.69 1728.54 1668.69 1795.95H1582.67V1792.47C1582.67 1742.48 1605.34 1671.58 1605.34 1648.91C1605.34 1636.13 1598.36 1628.57 1584.41 1628.57H1568.14L1532.69 1795.95H1446.67ZM1617.54 1460.61H1604.17L1582.67 1560.57H1603.01C1620.45 1560.57 1633.82 1545.46 1640.79 1513.5C1642.53 1505.94 1643.11 1498.39 1643.11 1491.99C1643.11 1473.4 1636.14 1460.61 1617.54 1460.61ZM1685.62 1795.95L1772.21 1389.13H1957.61L1941.34 1464.1H1842.54L1823.94 1551.28H1898.91L1883.22 1624.5H1808.25L1787.32 1722.72H1886.13L1871.01 1795.95H1685.62ZM1890.51 1795.95L1977.1 1389.13H2054.98C2133.44 1389.13 2164.83 1440.85 2164.83 1518.15C2164.83 1544.88 2161.34 1574.52 2154.36 1605.91C2125.89 1743.65 2075.32 1795.95 1999.19 1795.95H1890.51ZM2050.33 1465.26H2046.85L1992.8 1720.4H2003.26C2027.67 1720.4 2050.33 1693.67 2069.51 1597.19C2075.9 1566.39 2079.39 1539.07 2079.39 1516.99C2079.39 1485.02 2071.84 1465.26 2050.33 1465.26Z"/>
</mask>
<path d="M853.501 1801.76C786.665 1801.76 759.93 1756.43 759.93 1689.6C759.93 1677.97 760.511 1665.19 762.255 1652.4H839.552C837.227 1667.51 836.065 1680.88 836.065 1693.08C836.065 1716.33 841.296 1731.44 856.406 1731.44C874.423 1731.44 883.141 1704.13 883.141 1683.78C883.141 1658.21 865.705 1639.03 846.526 1617.53C822.698 1590.8 795.382 1561.16 795.382 1512.92C795.382 1443.76 834.322 1383.31 902.901 1383.31C970.318 1383.31 997.634 1430.97 997.634 1497.23C997.634 1507.69 996.471 1519.31 995.309 1530.93H919.755C921.499 1517.57 922.661 1504.78 922.661 1493.74C922.661 1470.49 917.431 1454.22 904.063 1454.22C887.209 1454.22 878.491 1480.37 878.491 1499.55C878.491 1522.8 894.183 1541.4 912.781 1561.74C937.772 1589.05 966.831 1619.27 966.831 1669.84C966.831 1742.48 923.824 1801.76 853.501 1801.76ZM962.545 1795.95L1049.14 1389.13H1135.16L1101.45 1548.37H1147.36L1181.07 1389.13H1266.5L1179.91 1795.95H1094.47L1131.09 1623.92H1085.17L1048.56 1795.95H962.545ZM1193.85 1795.95L1345.54 1389.13H1454.8L1433.3 1795.95H1353.68L1360.07 1716.91H1302.53L1275.8 1795.95H1193.85ZM1328.1 1641.94L1325.78 1648.91H1365.88L1366.46 1641.94L1382.15 1478.05L1328.1 1641.94ZM1446.67 1795.95L1533.27 1389.13H1633.82C1698.33 1389.13 1727.97 1432.71 1727.97 1483.86C1727.97 1493.16 1726.8 1503.04 1725.06 1512.92C1715.76 1556.51 1694.84 1584.98 1662.87 1598.93C1680.89 1608.81 1689.03 1625.09 1689.03 1647.75C1689.03 1678.55 1668.69 1728.54 1668.69 1795.95H1582.67V1792.47C1582.67 1742.48 1605.34 1671.58 1605.34 1648.91C1605.34 1636.13 1598.36 1628.57 1584.41 1628.57H1568.14L1532.69 1795.95H1446.67ZM1617.54 1460.61H1604.17L1582.67 1560.57H1603.01C1620.45 1560.57 1633.82 1545.46 1640.79 1513.5C1642.53 1505.94 1643.11 1498.39 1643.11 1491.99C1643.11 1473.4 1636.14 1460.61 1617.54 1460.61ZM1685.62 1795.95L1772.21 1389.13H1957.61L1941.34 1464.1H1842.54L1823.94 1551.28H1898.91L1883.22 1624.5H1808.25L1787.32 1722.72H1886.13L1871.01 1795.95H1685.62ZM1890.51 1795.95L1977.1 1389.13H2054.98C2133.44 1389.13 2164.83 1440.85 2164.83 1518.15C2164.83 1544.88 2161.34 1574.52 2154.36 1605.91C2125.89 1743.65 2075.32 1795.95 1999.19 1795.95H1890.51ZM2050.33 1465.26H2046.85L1992.8 1720.4H2003.26C2027.67 1720.4 2050.33 1693.67 2069.51 1597.19C2075.9 1566.39 2079.39 1539.07 2079.39 1516.99C2079.39 1485.02 2071.84 1465.26 2050.33 1465.26Z" fill="#CBBC9D"/>
<path d="M762.255 1652.4V1642.4H753.526L752.347 1651.05L762.255 1652.4ZM839.552 1652.4L849.436 1653.92L851.208 1642.4H839.552V1652.4ZM846.526 1617.53L839.061 1624.18L839.063 1624.19L846.526 1617.53ZM995.309 1530.93V1540.93H1004.36L1005.26 1531.93L995.309 1530.93ZM919.755 1530.93L909.839 1529.64L908.366 1540.93H919.755V1530.93ZM912.781 1561.74L905.401 1568.48L905.403 1568.49L912.781 1561.74ZM853.501 1801.76V1791.76C822.567 1791.76 802.392 1781.42 789.599 1764.67C776.439 1747.45 769.93 1721.94 769.93 1689.6H759.93H749.93C749.93 1724.09 756.788 1754.67 773.705 1776.81C790.988 1799.44 817.598 1811.76 853.501 1811.76V1801.76ZM759.93 1689.6H769.93C769.93 1678.29 770.497 1665.97 772.163 1653.75L762.255 1652.4L752.347 1651.05C750.526 1664.4 749.93 1677.66 749.93 1689.6H759.93ZM762.255 1652.4V1662.4H839.552V1652.4V1642.4H762.255V1652.4ZM839.552 1652.4L829.668 1650.88C827.287 1666.36 826.065 1680.25 826.065 1693.08H836.065H846.065C846.065 1681.51 847.168 1668.66 849.436 1653.92L839.552 1652.4ZM836.065 1693.08H826.065C826.065 1705.11 827.361 1716.54 831.548 1725.3C833.716 1729.83 836.82 1733.99 841.227 1736.98C845.701 1740.03 850.878 1741.44 856.406 1741.44V1731.44V1721.44C854.38 1721.44 853.236 1720.97 852.48 1720.45C851.655 1719.89 850.619 1718.82 849.591 1716.67C847.384 1712.05 846.065 1704.3 846.065 1693.08H836.065ZM856.406 1731.44V1741.44C871.303 1741.44 880.574 1730.08 885.57 1719.52C890.75 1708.56 893.141 1695.14 893.141 1683.78H883.141H873.141C873.141 1692.78 871.173 1703.18 867.49 1710.97C863.623 1719.14 859.527 1721.44 856.406 1721.44V1731.44ZM883.141 1683.78H893.141C893.141 1653.67 872.42 1631.54 853.989 1610.87L846.526 1617.53L839.063 1624.19C858.991 1646.53 873.141 1662.76 873.141 1683.78H883.141ZM846.526 1617.53L853.992 1610.88C829.899 1583.85 805.382 1556.87 805.382 1512.92H795.382H785.382C785.382 1565.44 815.496 1597.75 839.061 1624.18L846.526 1617.53ZM795.382 1512.92H805.382C805.382 1480.09 814.637 1449.96 831.345 1428.28C847.874 1406.84 871.897 1393.31 902.901 1393.31V1383.31V1373.31C865.326 1373.31 835.589 1390.01 815.504 1416.08C795.597 1441.91 785.382 1476.58 785.382 1512.92H795.382ZM902.901 1383.31V1393.31C933.986 1393.31 954.492 1404.14 967.57 1421.45C981.003 1439.24 987.634 1465.24 987.634 1497.23H997.634H1007.63C1007.63 1462.96 1000.61 1432.01 983.528 1409.4C966.094 1386.32 939.233 1373.31 902.901 1373.31V1383.31ZM997.634 1497.23H987.634C987.634 1507.09 986.533 1518.19 985.359 1529.94L995.309 1530.93L1005.26 1531.93C1006.41 1520.43 1007.63 1508.28 1007.63 1497.23H997.634ZM995.309 1530.93V1520.93H919.755V1530.93V1540.93H995.309V1530.93ZM919.755 1530.93L929.671 1532.23C931.439 1518.68 932.661 1505.4 932.661 1493.74H922.661H912.661C912.661 1504.16 911.559 1516.46 909.839 1529.64L919.755 1530.93ZM922.661 1493.74H932.661C932.661 1481.65 931.342 1470.16 927.571 1461.33C925.648 1456.83 922.877 1452.52 918.841 1449.3C914.651 1445.96 909.607 1444.22 904.063 1444.22V1454.22V1464.22C905.204 1464.22 905.826 1464.51 906.376 1464.94C907.08 1465.51 908.124 1466.72 909.179 1469.19C911.365 1474.31 912.661 1482.58 912.661 1493.74H922.661ZM904.063 1454.22V1444.22C889.712 1444.22 880.748 1455.35 875.941 1465.37C870.912 1475.85 868.491 1488.7 868.491 1499.55H878.491H888.491C888.491 1491.22 890.43 1481.4 893.973 1474.02C897.739 1466.17 901.561 1464.22 904.063 1464.22V1454.22ZM878.491 1499.55H868.491C868.491 1527.29 887.3 1548.69 905.401 1568.48L912.781 1561.74L920.161 1554.99C901.067 1534.1 888.491 1518.31 888.491 1499.55H878.491ZM912.781 1561.74L905.403 1568.49C930.707 1596.14 956.831 1623.67 956.831 1669.84H966.831H976.831C976.831 1614.88 944.837 1581.96 920.159 1554.99L912.781 1561.74ZM966.831 1669.84H956.831C956.831 1704.27 946.634 1734.9 928.795 1756.71C911.101 1778.35 885.582 1791.76 853.501 1791.76V1801.76V1811.76C891.742 1811.76 922.888 1795.54 944.279 1769.37C965.524 1743.39 976.831 1708.05 976.831 1669.84H966.831ZM962.545 1795.95L952.764 1793.87L950.192 1805.95H962.545V1795.95ZM1049.14 1389.13V1379.13H1041.05L1039.36 1387.04L1049.14 1389.13ZM1135.16 1389.13L1144.94 1391.2L1147.49 1379.13H1135.16V1389.13ZM1101.45 1548.37L1091.66 1546.3L1089.11 1558.37H1101.45V1548.37ZM1147.36 1548.37V1558.37H1155.47L1157.14 1550.44L1147.36 1548.37ZM1181.07 1389.13V1379.13H1172.96L1171.29 1387.05L1181.07 1389.13ZM1266.5 1389.13L1276.28 1391.21L1278.86 1379.13H1266.5V1389.13ZM1179.91 1795.95V1805.95H1188L1189.69 1798.04L1179.91 1795.95ZM1094.47 1795.95L1084.69 1793.87L1082.12 1805.95H1094.47V1795.95ZM1131.09 1623.92L1140.87 1626L1143.44 1613.92H1131.09V1623.92ZM1085.17 1623.92V1613.92H1077.08L1075.39 1621.84L1085.17 1623.92ZM1048.56 1795.95V1805.95H1056.66L1058.34 1798.03L1048.56 1795.95ZM962.545 1795.95L972.326 1798.04L1058.92 1391.21L1049.14 1389.13L1039.36 1387.04L952.764 1793.87L962.545 1795.95ZM1049.14 1389.13V1399.13H1135.16V1389.13V1379.13H1049.14V1389.13ZM1135.16 1389.13L1125.37 1387.05L1091.66 1546.3L1101.45 1548.37L1111.23 1550.44L1144.94 1391.2L1135.16 1389.13ZM1101.45 1548.37V1558.37H1147.36V1548.37V1538.37H1101.45V1548.37ZM1147.36 1548.37L1157.14 1550.44L1190.85 1391.2L1181.07 1389.13L1171.29 1387.05L1137.58 1546.3L1147.36 1548.37ZM1181.07 1389.13V1399.13H1266.5V1389.13V1379.13H1181.07V1389.13ZM1266.5 1389.13L1256.72 1387.04L1170.13 1793.87L1179.91 1795.95L1189.69 1798.04L1276.28 1391.21L1266.5 1389.13ZM1179.91 1795.95V1785.95H1094.47V1795.95V1805.95H1179.91V1795.95ZM1094.47 1795.95L1104.25 1798.03L1140.87 1626L1131.09 1623.92L1121.31 1621.84L1084.69 1793.87L1094.47 1795.95ZM1131.09 1623.92V1613.92H1085.17V1623.92V1633.92H1131.09V1623.92ZM1085.17 1623.92L1075.39 1621.84L1038.78 1793.87L1048.56 1795.95L1058.34 1798.03L1094.96 1626L1085.17 1623.92ZM1048.56 1795.95V1785.95H962.545V1795.95V1805.95H1048.56V1795.95ZM1193.85 1795.95L1184.48 1792.46L1179.45 1805.95H1193.85V1795.95ZM1345.54 1389.13V1379.13H1338.6L1336.17 1385.63L1345.54 1389.13ZM1454.8 1389.13L1464.79 1389.65L1465.34 1379.13H1454.8V1389.13ZM1433.3 1795.95V1805.95H1442.78L1443.28 1796.48L1433.3 1795.95ZM1353.68 1795.95L1343.71 1795.15L1342.83 1805.95H1353.68V1795.95ZM1360.07 1716.91L1370.04 1717.72L1370.91 1706.91H1360.07V1716.91ZM1302.53 1716.91V1706.91H1295.36L1293.06 1713.71L1302.53 1716.91ZM1275.8 1795.95V1805.95H1282.97L1285.27 1799.16L1275.8 1795.95ZM1328.1 1641.94L1337.59 1645.1L1337.6 1645.09L1337.6 1645.07L1328.1 1641.94ZM1325.78 1648.91L1316.29 1645.75L1311.91 1658.91H1325.78V1648.91ZM1365.88 1648.91V1658.91H1375.08L1375.85 1649.74L1365.88 1648.91ZM1366.46 1641.94L1356.51 1640.99L1356.5 1641.05L1356.5 1641.11L1366.46 1641.94ZM1382.15 1478.05L1392.11 1479L1372.66 1474.91L1382.15 1478.05ZM1193.85 1795.95L1203.22 1799.45L1354.91 1392.62L1345.54 1389.13L1336.17 1385.63L1184.48 1792.46L1193.85 1795.95ZM1345.54 1389.13V1399.13H1454.8V1389.13V1379.13H1345.54V1389.13ZM1454.8 1389.13L1444.82 1388.6L1423.31 1795.43L1433.3 1795.95L1443.28 1796.48L1464.79 1389.65L1454.8 1389.13ZM1433.3 1795.95V1785.95H1353.68V1795.95V1805.95H1433.3V1795.95ZM1353.68 1795.95L1363.64 1796.76L1370.04 1717.72L1360.07 1716.91L1350.1 1716.11L1343.71 1795.15L1353.68 1795.95ZM1360.07 1716.91V1706.91H1302.53V1716.91V1726.91H1360.07V1716.91ZM1302.53 1716.91L1293.06 1713.71L1266.32 1792.75L1275.8 1795.95L1285.27 1799.16L1312 1720.12L1302.53 1716.91ZM1275.8 1795.95V1785.95H1193.85V1795.95V1805.95H1275.8V1795.95ZM1328.1 1641.94L1318.62 1638.78L1316.29 1645.75L1325.78 1648.91L1335.27 1652.08L1337.59 1645.1L1328.1 1641.94ZM1325.78 1648.91V1658.91H1365.88V1648.91V1638.91H1325.78V1648.91ZM1365.88 1648.91L1375.85 1649.74L1376.43 1642.77L1366.46 1641.94L1356.5 1641.11L1355.92 1648.08L1365.88 1648.91ZM1366.46 1641.94L1376.42 1642.89L1392.11 1479L1382.15 1478.05L1372.2 1477.09L1356.51 1640.99L1366.46 1641.94ZM1382.15 1478.05L1372.66 1474.91L1318.61 1638.81L1328.1 1641.94L1337.6 1645.07L1391.65 1481.18L1382.15 1478.05ZM1446.67 1795.95L1436.89 1793.87L1434.32 1805.95H1446.67V1795.95ZM1533.27 1389.13V1379.13H1525.18L1523.49 1387.04L1533.27 1389.13ZM1725.06 1512.92L1734.84 1515L1734.88 1514.83L1734.91 1514.66L1725.06 1512.92ZM1662.87 1598.93L1658.87 1589.77L1640.21 1597.91L1658.07 1607.7L1662.87 1598.93ZM1668.69 1795.95V1805.95H1678.69V1795.95H1668.69ZM1582.67 1795.95H1572.67V1805.95H1582.67V1795.95ZM1568.14 1628.57V1618.57H1560.04L1558.36 1626.5L1568.14 1628.57ZM1532.69 1795.95V1805.95H1540.79L1542.47 1798.03L1532.69 1795.95ZM1604.17 1460.61V1450.61H1596.1L1594.4 1458.51L1604.17 1460.61ZM1582.67 1560.57L1572.89 1558.47L1570.29 1570.57H1582.67V1560.57ZM1640.79 1513.5L1631.05 1511.25L1631.03 1511.31L1631.02 1511.37L1640.79 1513.5ZM1446.67 1795.95L1456.46 1798.04L1543.05 1391.21L1533.27 1389.13L1523.49 1387.04L1436.89 1793.87L1446.67 1795.95ZM1533.27 1389.13V1399.13H1633.82V1389.13V1379.13H1533.27V1389.13ZM1633.82 1389.13V1399.13C1663.67 1399.13 1684.33 1409.12 1697.63 1423.98C1711.09 1439.02 1717.97 1460.13 1717.97 1483.86H1727.97H1737.97C1737.97 1456.44 1730.02 1430.18 1712.53 1410.64C1694.89 1390.93 1668.47 1379.13 1633.82 1379.13V1389.13ZM1727.97 1483.86H1717.97C1717.97 1492.37 1716.9 1501.63 1715.21 1511.18L1725.06 1512.92L1734.91 1514.66C1736.71 1504.44 1737.97 1493.94 1737.97 1483.86H1727.97ZM1725.06 1512.92L1715.28 1510.83C1706.47 1552.15 1687.15 1577.43 1658.87 1589.77L1662.87 1598.93L1666.87 1608.1C1702.53 1592.54 1725.06 1560.87 1734.84 1515L1725.06 1512.92ZM1662.87 1598.93L1658.07 1607.7C1665.51 1611.78 1670.57 1616.96 1673.86 1623.21C1677.2 1629.55 1679.03 1637.59 1679.03 1647.75H1689.03H1699.03C1699.03 1635.25 1696.78 1623.81 1691.55 1613.89C1686.27 1603.86 1678.25 1595.96 1667.68 1590.16L1662.87 1598.93ZM1689.03 1647.75H1679.03C1679.03 1661.81 1674.34 1680.4 1669.06 1706.11C1663.93 1731.12 1658.69 1761.24 1658.69 1795.95H1668.69H1678.69C1678.69 1763.25 1683.62 1734.67 1688.65 1710.13C1693.54 1686.3 1699.03 1664.49 1699.03 1647.75H1689.03ZM1668.69 1795.95V1785.95H1582.67V1795.95V1805.95H1668.69V1795.95ZM1582.67 1795.95H1592.67V1792.47H1582.67H1572.67V1795.95H1582.67ZM1582.67 1792.47H1592.67C1592.67 1768.65 1598.11 1739.38 1603.79 1712.51C1606.57 1699.33 1609.47 1686.5 1611.6 1675.84C1613.7 1665.35 1615.34 1655.72 1615.34 1648.91H1605.34H1595.34C1595.34 1653.44 1594.14 1661.17 1591.99 1671.91C1589.87 1682.49 1587.1 1694.76 1584.22 1708.38C1578.57 1735.13 1572.67 1766.3 1572.67 1792.47H1582.67ZM1605.34 1648.91H1615.34C1615.34 1640.76 1613.09 1632.79 1607.18 1626.88C1601.26 1620.96 1593.14 1618.57 1584.41 1618.57V1628.57V1638.57C1589.64 1638.57 1591.98 1639.96 1593.04 1641.02C1594.1 1642.08 1595.34 1644.28 1595.34 1648.91H1605.34ZM1584.41 1628.57V1618.57H1568.14V1628.57V1638.57H1584.41V1628.57ZM1568.14 1628.57L1558.36 1626.5L1522.91 1793.88L1532.69 1795.95L1542.47 1798.03L1577.92 1630.64L1568.14 1628.57ZM1532.69 1795.95V1785.95H1446.67V1795.95V1805.95H1532.69V1795.95ZM1617.54 1460.61V1450.61H1604.17V1460.61V1470.61H1617.54V1460.61ZM1604.17 1460.61L1594.4 1458.51L1572.89 1558.47L1582.67 1560.57L1592.45 1562.68L1613.95 1462.71L1604.17 1460.61ZM1582.67 1560.57V1570.57H1603.01V1560.57V1550.57H1582.67V1560.57ZM1603.01 1560.57V1570.57C1615.07 1570.57 1625.49 1565.17 1633.55 1555.38C1641.34 1545.9 1646.9 1532.41 1650.56 1515.63L1640.79 1513.5L1631.02 1511.37C1627.71 1526.55 1623.09 1536.6 1618.1 1542.67C1613.37 1548.42 1608.39 1550.57 1603.01 1550.57V1560.57ZM1640.79 1513.5L1650.53 1515.75C1652.49 1507.29 1653.11 1498.95 1653.11 1491.99H1643.11H1633.11C1633.11 1497.83 1632.58 1504.6 1631.05 1511.25L1640.79 1513.5ZM1643.11 1491.99H1653.11C1653.11 1481.73 1651.24 1471.38 1645.35 1463.4C1639.06 1454.85 1629.39 1450.61 1617.54 1450.61V1460.61V1470.61C1624.29 1470.61 1627.41 1472.76 1629.25 1475.26C1631.5 1478.32 1633.11 1483.66 1633.11 1491.99H1643.11ZM1685.62 1795.95L1675.84 1793.87L1673.26 1805.95H1685.62V1795.95ZM1772.21 1389.13V1379.13H1764.12L1762.43 1387.04L1772.21 1389.13ZM1957.61 1389.13L1967.38 1391.25L1970.01 1379.13H1957.61V1389.13ZM1941.34 1464.1V1474.1H1949.4L1951.11 1466.22L1941.34 1464.1ZM1842.54 1464.1V1454.1H1834.45L1832.76 1462.01L1842.54 1464.1ZM1823.94 1551.28L1814.16 1549.19L1811.58 1561.28H1823.94V1551.28ZM1898.91 1551.28L1908.69 1553.37L1911.28 1541.28H1898.91V1551.28ZM1883.22 1624.5V1634.5H1891.3L1893 1626.6L1883.22 1624.5ZM1808.25 1624.5V1614.5H1800.15L1798.47 1622.42L1808.25 1624.5ZM1787.32 1722.72L1777.54 1720.64L1774.97 1732.72H1787.32V1722.72ZM1886.13 1722.72L1895.92 1724.75L1898.4 1712.72H1886.13V1722.72ZM1871.01 1795.95V1805.95H1879.16L1880.81 1797.97L1871.01 1795.95ZM1685.62 1795.95L1695.4 1798.04L1781.99 1391.21L1772.21 1389.13L1762.43 1387.04L1675.84 1793.87L1685.62 1795.95ZM1772.21 1389.13V1399.13H1957.61V1389.13V1379.13H1772.21V1389.13ZM1957.61 1389.13L1947.84 1387L1931.57 1461.98L1941.34 1464.1L1951.11 1466.22L1967.38 1391.25L1957.61 1389.13ZM1941.34 1464.1V1454.1H1842.54V1464.1V1474.1H1941.34V1464.1ZM1842.54 1464.1L1832.76 1462.01L1814.16 1549.19L1823.94 1551.28L1833.72 1553.36L1852.32 1466.18L1842.54 1464.1ZM1823.94 1551.28V1561.28H1898.91V1551.28V1541.28H1823.94V1551.28ZM1898.91 1551.28L1889.13 1549.18L1873.44 1622.41L1883.22 1624.5L1893 1626.6L1908.69 1553.37L1898.91 1551.28ZM1883.22 1624.5V1614.5H1808.25V1624.5V1634.5H1883.22V1624.5ZM1808.25 1624.5L1798.47 1622.42L1777.54 1720.64L1787.32 1722.72L1797.1 1724.81L1818.03 1626.59L1808.25 1624.5ZM1787.32 1722.72V1732.72H1886.13V1722.72V1712.72H1787.32V1722.72ZM1886.13 1722.72L1876.33 1720.7L1861.22 1793.93L1871.01 1795.95L1880.81 1797.97L1895.92 1724.75L1886.13 1722.72ZM1871.01 1795.95V1785.95H1685.62V1795.95V1805.95H1871.01V1795.95ZM1890.51 1795.95L1880.73 1793.87L1878.15 1805.95H1890.51V1795.95ZM1977.1 1389.13V1379.13H1969.01L1967.32 1387.04L1977.1 1389.13ZM2154.36 1605.91L2144.6 1603.74L2144.59 1603.81L2144.57 1603.88L2154.36 1605.91ZM2046.85 1465.26V1455.26H2038.74L2037.06 1463.19L2046.85 1465.26ZM1992.8 1720.4L1983.01 1718.33L1980.45 1730.4H1992.8V1720.4ZM2069.51 1597.19L2059.72 1595.16L2059.71 1595.2L2059.7 1595.24L2069.51 1597.19ZM1890.51 1795.95L1900.29 1798.04L1986.88 1391.21L1977.1 1389.13L1967.32 1387.04L1880.73 1793.87L1890.51 1795.95ZM1977.1 1389.13V1399.13H2054.98V1389.13V1379.13H1977.1V1389.13ZM2054.98 1389.13V1399.13C2091.83 1399.13 2116.08 1411.14 2131.45 1430.81C2147.16 1450.92 2154.83 1480.6 2154.83 1518.15H2164.83H2174.83C2174.83 1478.4 2166.8 1443.56 2147.21 1418.49C2127.27 1392.97 2096.59 1379.13 2054.98 1379.13V1389.13ZM2164.83 1518.15H2154.83C2154.83 1544.04 2151.44 1572.94 2144.6 1603.74L2154.36 1605.91L2164.13 1608.08C2171.23 1576.1 2174.83 1545.73 2174.83 1518.15H2164.83ZM2154.36 1605.91L2144.57 1603.88C2130.47 1672.1 2111.15 1717.69 2087.02 1746.11C2063.35 1773.99 2034.55 1785.95 1999.19 1785.95V1795.95V1805.95C2039.96 1805.95 2074.51 1791.76 2102.27 1759.05C2129.58 1726.89 2149.78 1677.45 2164.16 1607.93L2154.36 1605.91ZM1999.19 1795.95V1785.95H1890.51V1795.95V1805.95H1999.19V1795.95ZM2050.33 1465.26V1455.26H2046.85V1465.26V1475.26H2050.33V1465.26ZM2046.85 1465.26L2037.06 1463.19L1983.01 1718.33L1992.8 1720.4L2002.58 1722.47L2056.63 1467.33L2046.85 1465.26ZM1992.8 1720.4V1730.4H2003.26V1720.4V1710.4H1992.8V1720.4ZM2003.26 1720.4V1730.4C2020.17 1730.4 2034.73 1720.68 2046.95 1700.07C2058.95 1679.84 2069.67 1647.68 2079.32 1599.14L2069.51 1597.19L2059.7 1595.24C2050.17 1643.17 2039.97 1672.62 2029.74 1689.87C2019.73 1706.75 2010.75 1710.4 2003.26 1710.4V1720.4ZM2069.51 1597.19L2079.3 1599.22C2085.77 1568.06 2089.39 1540.01 2089.39 1516.99H2079.39H2069.39C2069.39 1538.13 2066.04 1564.71 2059.72 1595.16L2069.51 1597.19ZM2079.39 1516.99H2089.39C2089.39 1500.58 2087.52 1485.68 2081.83 1474.58C2078.89 1468.85 2074.82 1463.88 2069.28 1460.39C2063.71 1456.88 2057.29 1455.26 2050.33 1455.26V1465.26V1475.26C2054.12 1475.26 2056.71 1476.11 2058.61 1477.31C2060.54 1478.52 2062.38 1480.49 2064.03 1483.69C2067.49 1490.46 2069.39 1501.43 2069.39 1516.99H2079.39Z" fill="#7F072A" mask="url(#path-17-outside-3_213_1893)"/>
<mask id="path-19-outside-4_213_1893" maskUnits="userSpaceOnUse" x="781.605" y="1883.95" width="1235" height="433" fill="black">
<rect fill="white" x="781.605" y="1883.95" width="1235" height="433"/>
<path d="M794.801 2300.95L865.705 1969.1H799.451L815.724 1894.13H1033.67L1017.39 1969.1H951.72L881.397 2300.95H794.801ZM964.248 2300.95L1050.84 1894.13H1151.39C1215.9 1894.13 1245.54 1937.71 1245.54 1988.86C1245.54 1998.16 1244.38 2008.04 1242.63 2017.92C1233.34 2061.51 1212.41 2089.98 1180.45 2103.93C1198.46 2113.81 1206.6 2130.09 1206.6 2152.75C1206.6 2183.55 1186.26 2233.54 1186.26 2300.95H1100.24V2297.47C1100.24 2247.48 1122.91 2176.58 1122.91 2153.91C1122.91 2141.13 1115.94 2133.57 1101.99 2133.57H1085.71L1050.26 2300.95H964.248ZM1135.12 1965.61H1121.75L1100.24 2065.57H1120.59C1138.02 2065.57 1151.39 2050.46 1158.36 2018.5C1160.11 2010.94 1160.69 2003.39 1160.69 1996.99C1160.69 1978.4 1153.71 1965.61 1135.12 1965.61ZM1323.51 2306.76C1260.16 2306.76 1224.13 2273.06 1224.13 2217.26C1224.13 2206.8 1225.29 2195.76 1227.61 2184.14L1288.64 1894.13H1374.65L1310.14 2199.25C1309.56 2202.73 1308.98 2206.22 1308.98 2209.71C1308.98 2221.91 1315.37 2230.63 1328.16 2230.63C1340.94 2230.63 1350.24 2221.33 1353.73 2203.9L1419.4 1894.13H1504.84L1438.58 2205.06C1424.63 2270.73 1382.21 2306.76 1323.51 2306.76ZM1501.41 2300.95L1572.32 1969.1H1506.06L1522.34 1894.13H1740.28L1724.01 1969.1H1658.33L1588.01 2300.95H1501.41ZM1670.86 2300.95L1757.46 1894.13H1843.47L1809.76 2053.37H1855.68L1889.39 1894.13H1974.82L1888.22 2300.95H1802.79L1839.4 2128.92H1793.49L1756.88 2300.95H1670.86ZM1909.14 2300.95L1926.58 2216.68H2003.87L1986.44 2300.95H1909.14Z"/>
</mask>
<path d="M794.801 2300.95L865.705 1969.1H799.451L815.724 1894.13H1033.67L1017.39 1969.1H951.72L881.397 2300.95H794.801ZM964.248 2300.95L1050.84 1894.13H1151.39C1215.9 1894.13 1245.54 1937.71 1245.54 1988.86C1245.54 1998.16 1244.38 2008.04 1242.63 2017.92C1233.34 2061.51 1212.41 2089.98 1180.45 2103.93C1198.46 2113.81 1206.6 2130.09 1206.6 2152.75C1206.6 2183.55 1186.26 2233.54 1186.26 2300.95H1100.24V2297.47C1100.24 2247.48 1122.91 2176.58 1122.91 2153.91C1122.91 2141.13 1115.94 2133.57 1101.99 2133.57H1085.71L1050.26 2300.95H964.248ZM1135.12 1965.61H1121.75L1100.24 2065.57H1120.59C1138.02 2065.57 1151.39 2050.46 1158.36 2018.5C1160.11 2010.94 1160.69 2003.39 1160.69 1996.99C1160.69 1978.4 1153.71 1965.61 1135.12 1965.61ZM1323.51 2306.76C1260.16 2306.76 1224.13 2273.06 1224.13 2217.26C1224.13 2206.8 1225.29 2195.76 1227.61 2184.14L1288.64 1894.13H1374.65L1310.14 2199.25C1309.56 2202.73 1308.98 2206.22 1308.98 2209.71C1308.98 2221.91 1315.37 2230.63 1328.16 2230.63C1340.94 2230.63 1350.24 2221.33 1353.73 2203.9L1419.4 1894.13H1504.84L1438.58 2205.06C1424.63 2270.73 1382.21 2306.76 1323.51 2306.76ZM1501.41 2300.95L1572.32 1969.1H1506.06L1522.34 1894.13H1740.28L1724.01 1969.1H1658.33L1588.01 2300.95H1501.41ZM1670.86 2300.95L1757.46 1894.13H1843.47L1809.76 2053.37H1855.68L1889.39 1894.13H1974.82L1888.22 2300.95H1802.79L1839.4 2128.92H1793.49L1756.88 2300.95H1670.86ZM1909.14 2300.95L1926.58 2216.68H2003.87L1986.44 2300.95H1909.14Z" fill="#CBBC9D"/>
<path d="M794.801 2300.95L785.022 2298.86L782.439 2310.95H794.801V2300.95ZM865.705 1969.1L875.485 1971.19L878.068 1959.1H865.705V1969.1ZM799.451 1969.1L789.678 1966.98L787.047 1979.1H799.451V1969.1ZM815.724 1894.13V1884.13H807.661L805.951 1892L815.724 1894.13ZM1033.67 1894.13L1043.44 1896.25L1046.07 1884.13H1033.67V1894.13ZM1017.39 1969.1V1979.1H1025.46L1027.17 1971.22L1017.39 1969.1ZM951.72 1969.1V1959.1H943.617L941.938 1967.02L951.72 1969.1ZM881.397 2300.95V2310.95H889.5L891.18 2303.03L881.397 2300.95ZM794.801 2300.95L804.58 2303.04L875.485 1971.19L865.705 1969.1L855.926 1967.01L785.022 2298.86L794.801 2300.95ZM865.705 1969.1V1959.1H799.451V1969.1V1979.1H865.705V1969.1ZM799.451 1969.1L809.223 1971.22L825.496 1896.25L815.724 1894.13L805.951 1892L789.678 1966.98L799.451 1969.1ZM815.724 1894.13V1904.13H1033.67V1894.13V1884.13H815.724V1894.13ZM1033.67 1894.13L1023.89 1892L1007.62 1966.98L1017.39 1969.1L1027.17 1971.22L1043.44 1896.25L1033.67 1894.13ZM1017.39 1969.1V1959.1H951.72V1969.1V1979.1H1017.39V1969.1ZM951.72 1969.1L941.938 1967.02L871.615 2298.88L881.397 2300.95L891.18 2303.03L961.503 1971.17L951.72 1969.1ZM881.397 2300.95V2290.95H794.801V2300.95V2310.95H881.397V2300.95ZM964.248 2300.95L954.467 2298.87L951.895 2310.95H964.248V2300.95ZM1050.84 1894.13V1884.13H1042.75L1041.06 1892.04L1050.84 1894.13ZM1242.63 2017.92L1252.41 2020L1252.45 2019.83L1252.48 2019.66L1242.63 2017.92ZM1180.45 2103.93L1176.45 2094.77L1157.79 2102.91L1175.64 2112.7L1180.45 2103.93ZM1186.26 2300.95V2310.95H1196.26V2300.95H1186.26ZM1100.24 2300.95H1090.24V2310.95H1100.24V2300.95ZM1085.71 2133.57V2123.57H1077.61L1075.93 2131.5L1085.71 2133.57ZM1050.26 2300.95V2310.95H1058.37L1060.05 2303.03L1050.26 2300.95ZM1121.75 1965.61V1955.61H1113.67L1111.97 1963.51L1121.75 1965.61ZM1100.24 2065.57L1090.47 2063.47L1087.86 2075.57H1100.24V2065.57ZM1158.36 2018.5L1148.62 2016.25L1148.61 2016.31L1148.59 2016.37L1158.36 2018.5ZM964.248 2300.95L974.028 2303.04L1060.62 1896.21L1050.84 1894.13L1041.06 1892.04L954.467 2298.87L964.248 2300.95ZM1050.84 1894.13V1904.13H1151.39V1894.13V1884.13H1050.84V1894.13ZM1151.39 1894.13V1904.13C1181.24 1904.13 1201.9 1914.12 1215.2 1928.98C1228.67 1944.02 1235.54 1965.13 1235.54 1988.86H1245.54H1255.54C1255.54 1961.44 1247.59 1935.18 1230.11 1915.64C1212.46 1895.93 1186.05 1884.13 1151.39 1884.13V1894.13ZM1245.54 1988.86H1235.54C1235.54 1997.37 1234.47 2006.63 1232.79 2016.18L1242.63 2017.92L1252.48 2019.66C1254.28 2009.44 1255.54 1998.94 1255.54 1988.86H1245.54ZM1242.63 2017.92L1232.85 2015.83C1224.04 2057.15 1204.72 2082.43 1176.45 2094.77L1180.45 2103.93L1184.45 2113.1C1220.11 2097.54 1242.63 2065.87 1252.41 2020L1242.63 2017.92ZM1180.45 2103.93L1175.64 2112.7C1183.08 2116.78 1188.14 2121.96 1191.43 2128.21C1194.78 2134.55 1196.6 2142.59 1196.6 2152.75H1206.6H1216.6C1216.6 2140.25 1214.36 2128.81 1209.13 2118.89C1203.85 2108.86 1195.83 2100.96 1185.26 2095.16L1180.45 2103.93ZM1206.6 2152.75H1196.6C1196.6 2166.81 1191.91 2185.4 1186.63 2211.11C1181.5 2236.12 1176.26 2266.24 1176.26 2300.95H1186.26H1196.26C1196.26 2268.25 1201.19 2239.67 1206.23 2215.13C1211.12 2191.3 1216.6 2169.49 1216.6 2152.75H1206.6ZM1186.26 2300.95V2290.95H1100.24V2300.95V2310.95H1186.26V2300.95ZM1100.24 2300.95H1110.24V2297.47H1100.24H1090.24V2300.95H1100.24ZM1100.24 2297.47H1110.24C1110.24 2273.65 1115.68 2244.38 1121.36 2217.51C1124.15 2204.33 1127.04 2191.5 1129.17 2180.84C1131.27 2170.35 1132.91 2160.72 1132.91 2153.91H1122.91H1112.91C1112.91 2158.44 1111.71 2166.17 1109.56 2176.91C1107.45 2187.49 1104.67 2199.76 1101.79 2213.38C1096.14 2240.13 1090.24 2271.3 1090.24 2297.47H1100.24ZM1122.91 2153.91H1132.91C1132.91 2145.76 1130.66 2137.79 1124.75 2131.88C1118.83 2125.96 1110.71 2123.57 1101.99 2123.57V2133.57V2143.57C1107.21 2143.57 1109.55 2144.96 1110.61 2146.02C1111.67 2147.08 1112.91 2149.28 1112.91 2153.91H1122.91ZM1101.99 2133.57V2123.57H1085.71V2133.57V2143.57H1101.99V2133.57ZM1085.71 2133.57L1075.93 2131.5L1040.48 2298.88L1050.26 2300.95L1060.05 2303.03L1095.5 2135.64L1085.71 2133.57ZM1050.26 2300.95V2290.95H964.248V2300.95V2310.95H1050.26V2300.95ZM1135.12 1965.61V1955.61H1121.75V1965.61V1975.61H1135.12V1965.61ZM1121.75 1965.61L1111.97 1963.51L1090.47 2063.47L1100.24 2065.57L1110.02 2067.68L1131.52 1967.71L1121.75 1965.61ZM1100.24 2065.57V2075.57H1120.59V2065.57V2055.57H1100.24V2065.57ZM1120.59 2065.57V2075.57C1132.64 2075.57 1143.06 2070.17 1151.12 2060.38C1158.91 2050.9 1164.47 2037.41 1168.13 2020.63L1158.36 2018.5L1148.59 2016.37C1145.28 2031.55 1140.67 2041.6 1135.67 2047.67C1130.95 2053.42 1125.96 2055.57 1120.59 2055.57V2065.57ZM1158.36 2018.5L1168.11 2020.75C1170.06 2012.29 1170.69 2003.95 1170.69 1996.99H1160.69H1150.69C1150.69 2002.83 1150.15 2009.6 1148.62 2016.25L1158.36 2018.5ZM1160.69 1996.99H1170.69C1170.69 1986.73 1168.81 1976.38 1162.93 1968.4C1156.63 1959.85 1146.96 1955.61 1135.12 1955.61V1965.61V1975.61C1141.86 1975.61 1144.99 1977.76 1146.82 1980.26C1149.08 1983.32 1150.69 1988.66 1150.69 1996.99H1160.69ZM1227.61 2184.14L1217.83 2182.08L1217.82 2182.13L1217.81 2182.17L1227.61 2184.14ZM1288.64 1894.13V1884.13H1280.52L1278.85 1892.07L1288.64 1894.13ZM1374.65 1894.13L1384.44 1896.19L1386.99 1884.13H1374.65V1894.13ZM1310.14 2199.25L1300.36 2197.18L1300.31 2197.39L1300.28 2197.6L1310.14 2199.25ZM1353.73 2203.9L1343.95 2201.82L1343.94 2201.88L1343.92 2201.93L1353.73 2203.9ZM1419.4 1894.13V1884.13H1411.3L1409.62 1892.05L1419.4 1894.13ZM1504.84 1894.13L1514.62 1896.21L1517.19 1884.13H1504.84V1894.13ZM1438.58 2205.06L1428.8 2202.97L1428.8 2202.98L1438.58 2205.06ZM1323.51 2306.76V2296.76C1293.53 2296.76 1271.36 2288.8 1256.79 2275.54C1242.34 2262.39 1234.13 2242.93 1234.13 2217.26H1224.13H1214.13C1214.13 2247.39 1223.93 2272.68 1243.33 2290.33C1262.61 2307.88 1290.14 2316.76 1323.51 2316.76V2306.76ZM1224.13 2217.26H1234.13C1234.13 2207.54 1235.21 2197.16 1237.42 2186.1L1227.61 2184.14L1217.81 2182.17C1215.37 2194.36 1214.13 2206.06 1214.13 2217.26H1224.13ZM1227.61 2184.14L1237.4 2186.19L1298.42 1896.18L1288.64 1894.13L1278.85 1892.07L1217.83 2182.08L1227.61 2184.14ZM1288.64 1894.13V1904.13H1374.65V1894.13V1884.13H1288.64V1894.13ZM1374.65 1894.13L1364.87 1892.06L1300.36 2197.18L1310.14 2199.25L1319.93 2201.31L1384.44 1896.19L1374.65 1894.13ZM1310.14 2199.25L1300.28 2197.6C1299.72 2200.94 1298.98 2205.25 1298.98 2209.71H1308.98H1318.98C1318.98 2207.19 1319.4 2204.52 1320.01 2200.89L1310.14 2199.25ZM1308.98 2209.71H1298.98C1298.98 2217.44 1301 2225.25 1306.2 2231.28C1311.59 2237.52 1319.33 2240.63 1328.16 2240.63V2230.63V2220.63C1324.2 2220.63 1322.35 2219.38 1321.35 2218.21C1320.15 2216.83 1318.98 2214.18 1318.98 2209.71H1308.98ZM1328.16 2230.63V2240.63C1337.21 2240.63 1345.34 2237.24 1351.62 2230.76C1357.7 2224.47 1361.55 2215.81 1363.54 2205.86L1353.73 2203.9L1343.92 2201.93C1342.43 2209.41 1339.88 2214.13 1337.25 2216.85C1334.8 2219.37 1331.89 2220.63 1328.16 2220.63V2230.63ZM1353.73 2203.9L1363.51 2205.97L1429.19 1896.2L1419.4 1894.13L1409.62 1892.05L1343.95 2201.82L1353.73 2203.9ZM1419.4 1894.13V1904.13H1504.84V1894.13V1884.13H1419.4V1894.13ZM1504.84 1894.13L1495.06 1892.04L1428.8 2202.97L1438.58 2205.06L1448.36 2207.14L1514.62 1896.21L1504.84 1894.13ZM1438.58 2205.06L1428.8 2202.98C1422.18 2234.18 1408.97 2257.51 1391.24 2273.01C1373.58 2288.46 1350.72 2296.76 1323.51 2296.76V2306.76V2316.76C1355 2316.76 1382.7 2307.05 1404.41 2288.07C1426.06 2269.14 1441.04 2241.61 1448.37 2207.14L1438.58 2205.06ZM1501.41 2300.95L1491.64 2298.86L1489.05 2310.95H1501.41V2300.95ZM1572.32 1969.1L1582.1 1971.19L1584.68 1959.1H1572.32V1969.1ZM1506.06 1969.1L1496.29 1966.98L1493.66 1979.1H1506.06V1969.1ZM1522.34 1894.13V1884.13H1514.27L1512.56 1892L1522.34 1894.13ZM1740.28 1894.13L1750.05 1896.25L1752.68 1884.13H1740.28V1894.13ZM1724.01 1969.1V1979.1H1732.07L1733.78 1971.22L1724.01 1969.1ZM1658.33 1969.1V1959.1H1650.23L1648.55 1967.02L1658.33 1969.1ZM1588.01 2300.95V2310.95H1596.11L1597.79 2303.03L1588.01 2300.95ZM1501.41 2300.95L1511.19 2303.04L1582.1 1971.19L1572.32 1969.1L1562.54 1967.01L1491.64 2298.86L1501.41 2300.95ZM1572.32 1969.1V1959.1H1506.06V1969.1V1979.1H1572.32V1969.1ZM1506.06 1969.1L1515.84 1971.22L1532.11 1896.25L1522.34 1894.13L1512.56 1892L1496.29 1966.98L1506.06 1969.1ZM1522.34 1894.13V1904.13H1740.28V1894.13V1884.13H1522.34V1894.13ZM1740.28 1894.13L1730.51 1892L1714.23 1966.98L1724.01 1969.1L1733.78 1971.22L1750.05 1896.25L1740.28 1894.13ZM1724.01 1969.1V1959.1H1658.33V1969.1V1979.1H1724.01V1969.1ZM1658.33 1969.1L1648.55 1967.02L1578.23 2298.88L1588.01 2300.95L1597.79 2303.03L1668.12 1971.17L1658.33 1969.1ZM1588.01 2300.95V2290.95H1501.41V2300.95V2310.95H1588.01V2300.95ZM1670.86 2300.95L1661.08 2298.87L1658.51 2310.95H1670.86V2300.95ZM1757.46 1894.13V1884.13H1749.36L1747.68 1892.04L1757.46 1894.13ZM1843.47 1894.13L1853.26 1896.2L1855.81 1884.13H1843.47V1894.13ZM1809.76 2053.37L1799.98 2051.3L1797.43 2063.37H1809.76V2053.37ZM1855.68 2053.37V2063.37H1863.78L1865.46 2055.44L1855.68 2053.37ZM1889.39 1894.13V1884.13H1881.28L1879.6 1892.05L1889.39 1894.13ZM1974.82 1894.13L1984.6 1896.21L1987.17 1884.13H1974.82V1894.13ZM1888.22 2300.95V2310.95H1896.32L1898 2303.04L1888.22 2300.95ZM1802.79 2300.95L1793.01 2298.87L1790.44 2310.95H1802.79V2300.95ZM1839.4 2128.92L1849.18 2131L1851.76 2118.92H1839.4V2128.92ZM1793.49 2128.92V2118.92H1785.39L1783.71 2126.84L1793.49 2128.92ZM1756.88 2300.95V2310.95H1764.97L1766.66 2303.03L1756.88 2300.95ZM1670.86 2300.95L1680.64 2303.04L1767.24 1896.21L1757.46 1894.13L1747.68 1892.04L1661.08 2298.87L1670.86 2300.95ZM1757.46 1894.13V1904.13H1843.47V1894.13V1884.13H1757.46V1894.13ZM1843.47 1894.13L1833.69 1892.05L1799.98 2051.3L1809.76 2053.37L1819.55 2055.44L1853.26 1896.2L1843.47 1894.13ZM1809.76 2053.37V2063.37H1855.68V2053.37V2043.37H1809.76V2053.37ZM1855.68 2053.37L1865.46 2055.44L1899.17 1896.2L1889.39 1894.13L1879.6 1892.05L1845.89 2051.3L1855.68 2053.37ZM1889.39 1894.13V1904.13H1974.82V1894.13V1884.13H1889.39V1894.13ZM1974.82 1894.13L1965.04 1892.04L1878.44 2298.87L1888.22 2300.95L1898 2303.04L1984.6 1896.21L1974.82 1894.13ZM1888.22 2300.95V2290.95H1802.79V2300.95V2310.95H1888.22V2300.95ZM1802.79 2300.95L1812.57 2303.03L1849.18 2131L1839.4 2128.92L1829.62 2126.84L1793.01 2298.87L1802.79 2300.95ZM1839.4 2128.92V2118.92H1793.49V2128.92V2138.92H1839.4V2128.92ZM1793.49 2128.92L1783.71 2126.84L1747.1 2298.87L1756.88 2300.95L1766.66 2303.03L1803.27 2131L1793.49 2128.92ZM1756.88 2300.95V2290.95H1670.86V2300.95V2310.95H1756.88V2300.95ZM1909.14 2300.95L1899.35 2298.93L1896.86 2310.95H1909.14V2300.95ZM1926.58 2216.68V2206.68H1918.43L1916.78 2214.66L1926.58 2216.68ZM2003.87 2216.68L2013.67 2218.71L2016.15 2206.68H2003.87V2216.68ZM1986.44 2300.95V2310.95H1994.58L1996.23 2302.98L1986.44 2300.95ZM1909.14 2300.95L1918.93 2302.98L1936.37 2218.71L1926.58 2216.68L1916.78 2214.66L1899.35 2298.93L1909.14 2300.95ZM1926.58 2216.68V2226.68H2003.87V2216.68V2206.68H1926.58V2216.68ZM2003.87 2216.68L1994.08 2214.66L1976.65 2298.93L1986.44 2300.95L1996.23 2302.98L2013.67 2218.71L2003.87 2216.68ZM1986.44 2300.95V2290.95H1909.14V2300.95V2310.95H1986.44V2300.95Z" fill="#7F072A" mask="url(#path-19-outside-4_213_1893)"/>
</g>
</svg>
